<svg xmlns="http://www.w3.org/2000/svg" viewBox="0 0 211 91.81"><defs><style>.cls-1{fill:#6764e2;}</style></defs><g id="レイヤー_2" data-name="レイヤー 2"><g id="レイヤー_1-2" data-name="レイヤー 1"><path class="cls-1" d="M211,45.9A45.89,45.89,0,0,0,165.3,0H160a10,10,0,0,0-10,10V81.81a10,10,0,0,0,10,10h5.3A45.9,45.9,0,0,0,211,45.9Z"/><path class="cls-1" d="M61,45.9A45.89,45.89,0,0,0,15.3,0H10A10,10,0,0,0,0,10V81.81a10,10,0,0,0,10,10h5.3A45.9,45.9,0,0,0,61,45.9Z"/><path class="cls-1" d="M136,45.9A45.89,45.89,0,0,0,90.3,0H85A10,10,0,0,0,75,10V81.81a10,10,0,0,0,10,10h5.3A45.9,45.9,0,0,0,136,45.9Z"/></g></g></svg>