<svg xmlns="http://www.w3.org/2000/svg" viewBox="0 0 219.98 130"><defs><style>.cls-1{fill:#fff;}</style></defs><g id="レイヤー_2" data-name="レイヤー 2"><g id="レイヤー_1-2" data-name="レイヤー 1"><path id="パス_563" data-name="パス 563" d="M43.43,109.48c-.14-1-.41-3.06-.72-5.08a4.8,4.8,0,0,0-.46-1.07,3.91,3.91,0,0,0-3.71-2.43,14.08,14.08,0,0,1-11-6.29A10.42,10.42,0,0,1,26,86.89c.38-2.53,1.1-5,1.56-7.52a9.43,9.43,0,0,0,.07-3.09,3.55,3.55,0,0,0-2.56-2.86c-2.66-1-5.37-.72-8.1-.47-3.67.33-7.25.24-10.6-1.63a10.94,10.94,0,0,1-6-8.85C.25,61.09.1,59.7,0,58.31a13.07,13.07,0,0,1,1.72-7A16.86,16.86,0,0,1,11.38,43a30.06,30.06,0,0,1,7.55-2.16c1.58-.14,3.2,0,4.78-.11a51.4,51.4,0,0,0,6.64-1,6.75,6.75,0,0,0,3-1.64c4.29-4.07,4.07-9.65-.2-13.23a16.57,16.57,0,0,1-3.42-3.67c-2.34-3.72-2.92-7.67-.39-11.54a14.42,14.42,0,0,1,5.88-4.95,7.57,7.57,0,0,1,5.23-.57,31.5,31.5,0,0,1,4.65,1.5,8,8,0,0,1,4.53,4.87c.66,1.76,1.39,3.5,2,5.28a11.31,11.31,0,0,0,3.86,5.42c1.2.93,2.81,1.33,4.2,2a4.16,4.16,0,0,0,3.17.29,6.06,6.06,0,0,0,2.19-1.15A32.58,32.58,0,0,0,68,19.34a14.53,14.53,0,0,0,3.16-6.74c.59-2.76,1.27-5.55,3.45-7.56,3.7-3.41,8-5.56,13.24-4.93a16,16,0,0,1,7.56,3.47c3.16,2.39,4.75,5.78,6.33,9.2a3.16,3.16,0,0,0,.76,1.08c1.36,1.15,2.74,2.27,4.13,3.38a3.49,3.49,0,0,0,2.6.78c4.81-.4,3.57-.05,6.87-3.06,4.07-3.7,9.8-4.82,14.11-2.46a25.45,25.45,0,0,1,5.41,4.17,14.21,14.21,0,0,0,7,3.72A4.45,4.45,0,0,0,147.18,19c2-2.16,3.85-4.46,5.9-6.56C158.67,6.75,165.5,5,173.23,6.94c5.3,1.32,7.76,5.28,8.85,10.23a30.7,30.7,0,0,1,.06,12.52,11,11,0,0,0,.1,5.92,7.27,7.27,0,0,0,2.6,3.72c2.66,2,5.72,2.41,8.8,3a24.81,24.81,0,0,0,8.42-.29,15.37,15.37,0,0,1,17.5,12.89v0c.5,3.72.72,7.41-.39,11.06a13.53,13.53,0,0,1-4.07,6.55,58.33,58.33,0,0,1-5,3.87A15.38,15.38,0,0,1,202,78.86a65.15,65.15,0,0,1-7.26-.12,10,10,0,0,0-4.38.38,20.81,20.81,0,0,1-3,.86c-4.54,1-6.73,6.88-5.5,10.29a9,9,0,0,0,3.25,4.3,23.1,23.1,0,0,1,4.37,3.58c2.61,3.12,3.69,6.77,1.82,10.57-1.47,3-3.67,5.52-7.1,6.55A11.27,11.27,0,0,1,171.44,110c-.85-1.65-1.75-3.27-2.68-4.88a11.5,11.5,0,0,0-4.1-4,3.74,3.74,0,0,0-2-.3,19.12,19.12,0,0,0-6.64,2c-3.22,1.39-4.28,4-4.74,7.07-.26,1.74-.39,3.5-.71,5.22a10.13,10.13,0,0,1-3.82,6.21c-2.4,1.91-4.94,3.6-8.1,4a9.88,9.88,0,0,1-3.07,0c-3.76-.7-7.2-2.11-9.8-5a16.26,16.26,0,0,1-3.47-5.27,7.64,7.64,0,0,0-3.74-4.07,3.69,3.69,0,0,0-.42-.17c-3.77-1.57-4.77-1.44-8.2,1.8a15.89,15.89,0,0,0-1.65,2,13.1,13.1,0,0,1-6.71,4.55c-4.31,1.33-7.92,0-11.09-2.92-1.19-1.1-2.34-2.27-3.62-3.26-2.79-2.16-5.5-1.87-7.85.73a14.71,14.71,0,0,0-1.35,1.69c-1.43,2.1-2.76,4.28-4.25,6.34-4.58,6.3-10.88,8.91-18.64,8.09-4.41-.47-7.3-3.13-9-6.93A25.85,25.85,0,0,1,43.43,109.48Z"/><path class="cls-1" d="M83.62,72.68a.43.43,0,0,0,.42-.45s-.73-2.47-1.07-3.49a.47.47,0,0,0-.45-.39H76.08c-.37.06-.48.11-.59.48l-1,3.29a.64.64,0,0,0,.65.56c1,0,1.69.48,1.69,1.44a1.41,1.41,0,0,1-1.55,1.4h-.11c-.71,0-1.44,0-2.17,0-.9,0-1.72,0-2.39,0h-.11A1.44,1.44,0,0,1,69,74.09a1.41,1.41,0,0,1,1.52-1.41h.14c.45,0,.73-.47.84-.84,1.63-5.09,4.25-12.44,5.38-15.76a2.44,2.44,0,0,1,2.3-1.85,2.65,2.65,0,0,1,2.45,1.94c1.49,4.27,4.25,12,5.63,15.67.08.25.45.84.9.84a1.48,1.48,0,0,1,1.66,1.44,1.44,1.44,0,0,1-1.58,1.4h-.11c-.7,0-1.43,0-2.16,0-.9,0-1.72,0-2.4,0a1.45,1.45,0,0,1-1.63-1.4,1.43,1.43,0,0,1,1.52-1.44h.17Zm-2-7c.17,0,.26-.06.26-.14s-1.95-6.14-2.17-6.84c-.17-.5-.31-.73-.45-.73s-.31.28-.51.84c-.64,1.75-2.14,6.7-2.14,6.7s.06.11.29.17Z"/><path class="cls-1" d="M95.75,73.92c-.06-.08-.11-.14-.17-.14s-.08.06-.11.14a2.6,2.6,0,0,1-2.73,1.6c-1.27,0-2-.44-2-1.54A1.26,1.26,0,0,1,92,72.63h.14c.56,0,.84-.34.84-1,0-3.12.11-7.48.11-10.94,0-.85,0-1.63,0-2.34s-.08-1.12-.81-1.12-1.55-.17-1.55-1.47A1.33,1.33,0,0,1,92,54.31h.08c.34,0,.62,0,.9,0,2.17,0,2.87,1,2.87,3v.11c0,1.44-.06,3.41-.06,5.55,0,.11,0,.14.06.14a.18.18,0,0,0,.14-.06A5.79,5.79,0,0,1,100,61.57a6.74,6.74,0,0,1,6.81,7.06A6.66,6.66,0,0,1,100,75.69,5.67,5.67,0,0,1,95.75,73.92ZM104,68.63c0-2.78-1.81-4.5-4.06-4.5s-4,1.72-4,4.5,1.8,4.45,4,4.45S104,71.39,104,68.63Z"/><path class="cls-1" d="M109.29,68.63a7.08,7.08,0,1,1,14.15,0,7.08,7.08,0,1,1-14.15,0Zm11.31,0a4.24,4.24,0,1,0-4.22,4.5A4.2,4.2,0,0,0,120.6,68.63Z"/><path class="cls-1" d="M135.12,64.52a1.39,1.39,0,1,1,.11-2.78h.25c1.69,0,3.18.7,3.18,3v.11c-.08,3.21-.14,3.38-.14,4.79,0,.5,0,1.18,0,2.25,0,.5.2.73.79.73h.31A1.26,1.26,0,0,1,140.91,74a1.4,1.4,0,0,1-1.4,1.49c-.34,0-.62,0-.9,0h-.17a2.76,2.76,0,0,1-2.53-1,.13.13,0,0,0-.12-.08s-.14.08-.28.2a6.34,6.34,0,0,1-3.74,1.18c-2.34,0-4.7-1.27-4.78-4.84,0-.56,0-1.49,0-2.53s0-2.23,0-3.27a.63.63,0,0,0-.57-.62,1.24,1.24,0,0,1-1.35-1.29,1.44,1.44,0,0,1,1.38-1.49H127c2.3,0,2.92,1.15,2.92,3v.11c0,1.58-.08,3.55-.08,4.76,0,1,0,3.6,2.53,3.6a3.45,3.45,0,0,0,3.43-3c0-.51.06-1.13.06-1.94s0-1.81-.06-3a.65.65,0,0,0-.64-.71Z"/><path class="cls-1" d="M147.75,64.41c-.42,0-.42.14-.42.31,0,1-.08,3.43-.08,5.29,0,2.2.08,3.1,1.66,3.1a5.09,5.09,0,0,0,.64-.06c.09,0,.14,0,.23,0A1.21,1.21,0,0,1,151,74.26c0,1-.93,1.49-2.39,1.49-4.17,0-4.17-3.69-4.17-4.84,0-1.63.06-4.45.06-5.68v-.42c0-.37-.17-.4-.45-.4h-.84a1.28,1.28,0,0,1-1.27-1.35,1.23,1.23,0,0,1,1.27-1.29H144c.45,0,.48-.09.48-.48,0,0,0-.56,0-1.21,0-.34,0-.68,0-1V59a1.28,1.28,0,0,1,1.41-1.27,1.47,1.47,0,0,1,1.49,1.72c0,.76-.06,1.83-.06,1.83,0,.45.11.48.4.48h1.88a1.22,1.22,0,0,1,1.24,1.32,1.23,1.23,0,0,1-1.24,1.32Z"/></g></g></svg>