<svg xmlns="http://www.w3.org/2000/svg" viewBox="0 0 192 242.26"><defs><style>.cls-1{fill:#fff;}.cls-2{fill:#85807f;}.cls-3{fill:#4793cf;}.cls-4{fill:#211715;}</style></defs><g id="レイヤー_2" data-name="レイヤー 2"><g id="レイヤー_1-2" data-name="レイヤー 1"><path class="cls-1" d="M140.8,61.89a5.88,5.88,0,0,1,4.25-1.55,5.45,5.45,0,0,1,4.9,2.72c1.66,2.88,1.59,8.2.47,11.49-.79,2.33-2.08,5.89-5.21,8.45a6.49,6.49,0,0,1-5,1.44l-.48-.08A36.64,36.64,0,0,1,138,89c-1.3,3.53-8.63,16.13-17.82,20.57v2.68c-.7.57-15.06,11.89-16.15,12.67h-2.53c-1.09-.78-15.46-12.1-16.16-12.67v-3.22a34.68,34.68,0,0,1-10.23-8.71,44.53,44.53,0,0,1-8.48-16A6.34,6.34,0,0,1,61.24,83c-3.12-2.55-4.41-6.12-5.2-8.45-1.12-3.29-1.19-8.6.47-11.49a5.45,5.45,0,0,1,4.9-2.72,5.85,5.85,0,0,1,4.25,1.56S62.56,30.37,101,30.37,140.8,61.89,140.8,61.89Z"/><path class="cls-2" d="M94.59,2.74a42.75,42.75,0,0,0-18.27,7.82A45,45,0,0,0,57.74,45.78a49,49,0,0,0,1.84,14.85,7.06,7.06,0,0,1,1.83-.29,5.88,5.88,0,0,1,4.24,1.55l6-5c4.51-5,12.46-12.59,18-15.52.65-.34,1.5.12,1.76,1.22a7,7,0,0,1,.17,2.62,1.36,1.36,0,0,0,1.1,1.58,1.39,1.39,0,0,0,.85-.12c4-2.21,11.08-6.67,16.11-8.79a20.31,20.31,0,0,1,7.47.92A24.19,24.19,0,0,1,124,43.08c4.53,3.9,8.87,9.25,10.8,14.09l5.95,4.72A5.9,5.9,0,0,1,145,60.34a7.32,7.32,0,0,1,1.67.24,48,48,0,0,0,1.79-14.8C147.75,28,138.79,17,130.14,10.72a44.59,44.59,0,0,0-27-8.71A48.72,48.72,0,0,0,94.59,2.74Z"/><path class="cls-3" d="M120.91,145.77c2.49-9,4.77-18.05,6.74-26.79,1.57,1,3.52,2.36,5.51,3.91,17.48,6.84,32.79,11.9,40.66,23.86,4.37,6.65,7,15.42,8.75,26.84,2.23,17.08,6.31,54.37,7.42,66.66H53.77c0-3.16-.08-8.65-.16-15.33l-2.89,1.93a72.27,72.27,0,0,1-8.55,6c-4.58,2.43-8.45,4.44-15.66,3.33-6.15-1-11.09-6.23-12.69-12.25a39.57,39.57,0,0,1-1-8.47c-.47-11-.13-16.4-1.26-26.94l10-35.28,21-15.88c8-6.08,18.51-10.53,29.58-14.28,2.07-1.61,4.1-3,5.72-4.07,3.75,16.62,8.64,34.4,13.9,50.57,3.9,12,5.19,16,10.18,28.35h1.61c5-12.31,6.27-16.37,10.17-28.35C116.25,161.88,118.66,153.86,120.91,145.77Z"/><path class="cls-1" d="M102,197.9c-5-12.31-6.27-16.37-10.17-28.35-4.83-14.84-9.35-31.05-13-46.47A5.3,5.3,0,0,1,80,118.72c1.62-1.88,3.67-4.6,5.33-6.45.7.57,15.06,11.89,16.15,12.67H104c1.09-.78,15.46-12.1,16.16-12.67,1.66,1.85,3.7,4.57,5.32,6.45a5.31,5.31,0,0,1,1.2,4.36c-3.61,15.42-8.13,31.63-13,46.47-3.9,12-5.19,16-10.18,28.35Z"/><path class="cls-1" d="M97.63,186.8c1.15,3.12,2.49,6.54,4.34,11.1h1.61c4.59-11.33,6-15.68,9.29-25.64-1.57-13.49-3.65-29.54-3.65-30a11.29,11.29,0,0,1,.38-2.52c.1-.38.18-.75.26-1.13.42-1.88.49-2.83,1-4.82l0-.1c-2.32-3.12-5.12-6.83-6.83-8.75h-2.53c-1.69,1.9-4.46,5.56-6.77,8.67l.22.61a24.79,24.79,0,0,1,1.18,3.85,16.28,16.28,0,0,1,.94,4.46c0,.8-2.18,16-4.21,30.32C94.71,178.48,96,182.32,97.63,186.8Z"/><path class="cls-4" d="M91.37,197.42c-9-15.51-17.8-31.1-26.05-47a17,17,0,0,1-1.67-3.23c-.11-.42-.12-.31.32-.78s.84-.89,1.27-1.33c1.77-1.82,3.61-3.56,5.46-5.3a2,2,0,0,0,0-2.85,2.06,2.06,0,0,0-.37-.29l-3.46-2-1.73-1-.86-.49c-.47-.31-.57-.35-.29-.11l.27,1a8.41,8.41,0,0,1,1.07-1.64,17.36,17.36,0,0,1,1.33-1.62,45.41,45.41,0,0,1,4-3.94,72.86,72.86,0,0,1,8.24-6.18L76,119.51a580,580,0,0,0,18.36,64c1.76,5,3.71,10,5.71,14.92a2.07,2.07,0,0,0,2.46,1.4,2,2,0,0,0,1.4-2.46,493.79,493.79,0,0,1-19.42-59.89Q82,128,79.82,118.44a2,2,0,0,0-2.49-1.38,2.44,2.44,0,0,0-.44.19,66.42,66.42,0,0,0-12.5,10.1,28.82,28.82,0,0,0-2.45,3,7.26,7.26,0,0,0-1.69,3.42c-.12,1.88,1.44,2.6,2.84,3.4l5.19,3-.41-3.15c-1.73,1.63-3.46,3.28-5.14,5-1.5,1.53-3.58,3.19-3.17,5.58a11.73,11.73,0,0,0,1.36,3.12c.56,1.09,1.12,2.17,1.69,3.25,1.07,2,2.15,4.11,3.25,6.15,4.54,8.5,9.22,16.92,14,25.31q4,7.08,8.09,14.12c1.29,2.23,4.74.22,3.45-2Z"/><path class="cls-4" d="M108.66,138.79c-3.74,0-7.48-.08-11.23-.08a2,2,0,0,0,0,4c3.75,0,7.49.08,11.23.08a2,2,0,0,0,0-4Z"/><path class="cls-4" d="M108.91,133.25c-.44,1.85-.72,3.72-1.14,5.57a12.31,12.31,0,0,0-.52,3.77c.16,2,.49,4,.74,6,1,7.89,2,15.78,2.89,23.68a2.06,2.06,0,0,0,2,2,2,2,0,0,0,2-2c-.91-7.8-1.88-15.59-2.86-23.38-.25-2.05-.53-4.11-.75-6.17a8.44,8.44,0,0,1,.35-2.87c.43-1.85.7-3.73,1.15-5.57C113.36,131.82,109.5,130.74,108.91,133.25Z"/><path class="cls-4" d="M94.9,172.68c1.11-7.85,2.25-15.7,3.33-23.55.28-2,.65-4.11.81-6.17a11.38,11.38,0,0,0-.45-3.67,39.75,39.75,0,0,0-1.9-6.09,2,2,0,0,0-2.74-.71,2,2,0,0,0-.71,2.73,22.05,22.05,0,0,1,.86,3c.26.94.59,1.87.79,2.83a6.6,6.6,0,0,1,.12,2.26c-.23,2-.49,3.7-.77,5.73-1,7.54-2.13,15.06-3.2,22.59a2.07,2.07,0,0,0,1.4,2.46,2,2,0,0,0,2.46-1.4Z"/><path class="cls-4" d="M50.7,166.36c.22,9.62.36,19.25.51,28.87q.24,16.5.43,33,.07,6,.13,12c0,2.57,4,2.58,4,0q-.1-12.72-.29-25.42-.23-17-.5-34-.12-7.25-.28-14.51c-.06-2.57-4.06-2.58-4,0Z"/><path class="cls-4" d="M154.3,240.25q.07-12.84.21-25.68.17-16.84.39-33.7c.07-4.84.14-9.68.24-14.51.05-2.58-3.95-2.58-4,0-.2,9.57-.3,19.14-.42,28.71q-.18,16.43-.33,32.86-.06,6.16-.09,12.32c0,2.58,4,2.58,4,0Z"/><path class="cls-4" d="M9.59,188.49c.59,5.59.84,11.18,1,16.8.07,3.06.14,6.11.26,9.17a45.28,45.28,0,0,0,1.09,10,19.23,19.23,0,0,0,9.56,12.13,20.86,20.86,0,0,0,15.95.68c5.47-2,10.2-5.4,14.73-9a2,2,0,0,0,0-2.83,2.06,2.06,0,0,0-2.83,0c-6.83,5.39-15.9,11.68-25,8.05a15.08,15.08,0,0,1-8.54-10.11,42.06,42.06,0,0,1-.95-9.15c-.11-2.73-.17-5.46-.23-8.19-.13-5.87-.36-11.71-1-17.55a2.06,2.06,0,0,0-2-2,2,2,0,0,0-2,2Z"/><path class="cls-1" d="M27.73,145.62c.92-.51,1.61-1.36,2.5-1.92a6.41,6.41,0,0,1,6.33.08,16.23,16.23,0,0,1,4.84,4.46,9.12,9.12,0,0,1,1.83,4.8,3.4,3.4,0,0,1-1.3,2.92,5.44,5.44,0,0,1-4.46,1.11l1.15,2.34a6.92,6.92,0,0,1,1.86,1.3,5.05,5.05,0,0,1,.89,5.34q-1.35,3-3,5.85l-2.65-1.13c-1.16,2-1.84,4.29-1.36,6.13,2.48,10.47,1.5,15.47-2.06,18a24,24,0,0,1-9.47,3.89c-.94.1-5.25.4-6.07-.08-1.6-.94-3.2-1.48-4.3-3.1a11.53,11.53,0,0,1-1.62-4.52c-.33-1.91-1.45-6.66-2.33-9.76a63.15,63.15,0,0,0-4.74-12,11.8,11.8,0,0,1-1.69-7.69,13.67,13.67,0,0,1,1.63-4.5,137.57,137.57,0,0,1,9-10.66,29.15,29.15,0,0,1,2.42-2.16,6.81,6.81,0,0,1,4.91-1.49,5.43,5.43,0,0,1,4,3.07Z"/><path class="cls-4" d="M26,145.43c-1.77-4.8-7.82-5.74-11.7-2.9-4.2,3.07-7.44,7.54-10.65,11.57a18.19,18.19,0,0,0-2,2.64,15.55,15.55,0,0,0-1.15,2.95,12.74,12.74,0,0,0-.07,6.9c.57,2.2,1.85,4,2.79,6.09a61.62,61.62,0,0,1,2.31,5.87A94.53,94.53,0,0,1,8.7,190.46c.44,2.14.8,4.32,2.05,6.17a11.53,11.53,0,0,0,5.6,4.07,13.45,13.45,0,0,0,4.69.23,20.17,20.17,0,0,0,4.63-.69c3.61-1.06,7.85-2.84,10.09-6s2.2-7.15,1.81-10.72c-.14-1.35-.34-2.69-.6-4a25.33,25.33,0,0,1-.75-3.88c0-2.44,1.74-4.92,3.32-6.63,1.76-1.88-1.07-4.72-2.82-2.83-2.86,3.07-5.2,7.24-4.21,11.53.8,3.55,1.66,7.46,1.13,11.08a7.7,7.7,0,0,1-1,3,6.15,6.15,0,0,1-2.22,2,19.6,19.6,0,0,1-9.06,3.11c-.75,0-1.5.07-2.25.06a5.8,5.8,0,0,1-1.5-.1c.56.17,0,0-.1-.08s-.46-.25-.68-.37c-.45-.24-.89-.47-1.32-.73a4.83,4.83,0,0,1-1.89-2.27,26.76,26.76,0,0,1-1.22-5.07q-.64-3-1.43-5.89A74.75,74.75,0,0,0,7.23,171.9c-1.43-3.34-4-6.56-3.07-10.41a12,12,0,0,1,2.75-5.1c1.71-2.15,3.44-4.29,5.28-6.34,1.51-1.69,3.29-4,5.46-4.85,1.41-.55,3.84-.43,4.48,1.3.88,2.39,4.75,1.36,3.86-1.06Z"/><path class="cls-4" d="M17.08,158.46q3.2-3.57,6.55-7c.34-.35.69-.68,1-1a.52.52,0,0,1,.11-.1c-.3.27,0,0,.24-.14a1.41,1.41,0,0,1,.56-.21l.22-.05c-.18,0-.15,0,.1,0l.42,0c-.18,0-.15,0,.09.05s.27.09.12,0a2.75,2.75,0,0,1,.38.2c.26.13.06,0,.29.21a2.91,2.91,0,0,1,.3.31l.09.1a2.44,2.44,0,0,1,.48,1c0,.13.06.26.09.39,0-.2,0-.18,0,.06v.38q.06-.33,0,0a2,2,0,0,0,1.4,2.46,2,2,0,0,0,2.46-1.4,6.72,6.72,0,0,0-2-6.19,6,6,0,0,0-6.83-1,10,10,0,0,0-2.52,2.14q-1.58,1.63-3.11,3.28c-1.11,1.19-2.22,2.38-3.3,3.59a2,2,0,1,0,2.83,2.83Z"/><path class="cls-4" d="M25.21,161c.72-.7,1.48-1.37,2.24-2l1.28-1.12c.18-.16.37-.32.57-.47-.07.06-.23.17.1-.08l.34-.25c.41-.31.84-.6,1.26-.9a7.35,7.35,0,0,0,1.14-.77c.13-.13,0,0-.11,0l.3-.09c.16,0,.29,0,0,0h.25c.06,0,.42,0,.15,0s0,0,.07,0l.34.09c.34.08-.08-.08.09,0a5.84,5.84,0,0,1,.53.33c-.36-.28.27.28,0,0s0,.05.07.12l.12.21c.18.32,0,.07,0,0,0,.14.09.28.13.42s.05.23.08.34,0-.07,0-.1c0,.22,0,.42,0,.64,0-.05.1-.32,0-.16s-.14.38-.06.19-.07.11-.07.12-.17.3-.27.44a9.65,9.65,0,0,1-.76,1,8.18,8.18,0,0,1-.53.64c-.44.49-.91,1-1.38,1.42q-1.78,1.74-3.62,3.43a2,2,0,0,0,2.83,2.83c1.25-1.17,2.5-2.34,3.72-3.54a17.6,17.6,0,0,0,3.56-4.4,5.66,5.66,0,0,0-5.3-8.12A6.27,6.27,0,0,0,29,152.75a51.66,51.66,0,0,0-6.6,5.47,2,2,0,0,0,2.83,2.83Z"/><path class="cls-4" d="M36.29,161.52l.4-.21c-.15.06-.11.05.11,0s.64-.14.24-.09a3.75,3.75,0,0,1,.58,0c-.37,0,.28.1.36.12s.14,0-.09,0l.3.18c.16.1.31.21.46.32-.29-.22.12.1.17.15s.32.3.47.46c-.23-.25,0,0,.07.13a3.68,3.68,0,0,1,.23.44c-.18-.41,0,.15.06.25a5.6,5.6,0,0,1,.12.59c-.05-.36,0,0,0,.15s0,.35,0,.52,0,.23,0,0c0,.11,0,.22-.07.33s-.11.32-.13.47c0-.23.1-.21,0-.06l-.12.26-.3.65c-.26.57-.54,1.13-.82,1.7a26.06,26.06,0,0,1-1.69,3.12,2,2,0,0,0,.72,2.74,2,2,0,0,0,2.73-.72,29.09,29.09,0,0,0,2-3.82,12.89,12.89,0,0,0,1.61-4.47A6.65,6.65,0,0,0,41.52,159a6.77,6.77,0,0,0-3.17-1.7,6.16,6.16,0,0,0-4.07.8,2,2,0,0,0-.72,2.73,2,2,0,0,0,2.73.72Z"/><path class="cls-4" d="M28.74,147.35c1-.59,1.78-1.54,2.71-2a3.85,3.85,0,0,1,2.24-.38c2.11.27,3.76,1.78,5.15,3.36a10.21,10.21,0,0,1,1.77,2.5,5.92,5.92,0,0,1,.62,2.71c0,.07-.21.57-.1.35,0,0-.37.51-.18.29-.07.09-.71.62-.26.3a3.87,3.87,0,0,1-.43.27,2.32,2.32,0,0,1-1,.4,3.29,3.29,0,0,1-1.21.05,2.06,2.06,0,0,0-2.46,1.4,2,2,0,0,0,1.4,2.46,7.64,7.64,0,0,0,6.56-1.76c2-1.86,2-4.6,1.17-7a15.6,15.6,0,0,0-4.15-6,11.35,11.35,0,0,0-6.67-3.3,7.67,7.67,0,0,0-4.1.74c-1.15.54-2,1.61-3,2.21-2.21,1.31-.2,4.77,2,3.45Z"/><path class="cls-4" d="M83.94,110.85c-1.34,1.52-2.58,3.11-3.85,4.68s-2.58,2.89-3.11,4.82c-.73,2.69.44,4.5,1.81,6.62q2.42,3.75,5.17,7.25a26.91,26.91,0,0,0,6.1,6.09,2,2,0,0,0,2.73-.72c3.33-4.44,6.46-9.07,10.13-13.24a2,2,0,0,0-.07-2.88,1.64,1.64,0,0,0-.33-.26l-.36-.27-.35-.27L100,121.23,94.6,117c-2.62-2-5.25-4.09-7.83-6.17a2.06,2.06,0,0,0-2.83,0,2,2,0,0,0,0,2.82c2.65,2.15,5.35,4.24,8,6.34s5.6,4.55,8.52,6.64l-.41-3.14c-3.9,4.42-7.22,9.34-10.75,14.06l2.74-.72a23.94,23.94,0,0,1-5-5.1c-1.59-2-3-4.08-4.45-6.2-.5-.77-1-1.55-1.47-2.34s-.52-.7-.41-1.44c.21-1.49,1.52-2.63,2.42-3.74,1.18-1.46,2.35-3,3.59-4.36C88.47,111.76,85.65,108.92,83.94,110.85Z"/><path class="cls-4" d="M117.63,199.44c9.51-16.49,19.05-33,27.62-50a4.66,4.66,0,0,0,.56-3.83,9.41,9.41,0,0,0-2.35-3c-1.87-1.94-3.82-3.79-5.79-5.63l-.4,3.14,5-2.84c1.46-.83,3.17-1.56,3.06-3.53a7.18,7.18,0,0,0-1.6-3.3,31.11,31.11,0,0,0-2.54-3.07,66.42,66.42,0,0,0-12.5-10.1,2,2,0,0,0-2.75.75,2.25,2.25,0,0,0-.19.45,580.58,580.58,0,0,1-18.36,64c-1.76,5-3.72,10-5.71,14.92a2,2,0,0,0,1.4,2.46,2.07,2.07,0,0,0,2.46-1.4,496.74,496.74,0,0,0,19.42-59.89q2.49-9.48,4.65-19l-2.94,1.19a71.1,71.1,0,0,1,8.24,6.18,44.18,44.18,0,0,1,3.93,3.81,20.29,20.29,0,0,1,1.44,1.75,8.36,8.36,0,0,1,1.06,1.64l.28-1c.27-.24.18-.2-.29.11l-.86.49-1.73,1-3.46,2a2,2,0,0,0-.69,2.77,2.12,2.12,0,0,0,.29.38c1.62,1.52,3.24,3.05,4.81,4.64.7.7,1.43,1.4,2.08,2.16s.27.14.16.61a9.08,9.08,0,0,1-.83,1.61q-3,5.87-6.16,11.68-6.47,12-13.23,23.85-3.74,6.55-7.5,13.1c-1.29,2.23,2.16,4.25,3.45,2Z"/><path class="cls-4" d="M118.78,113.68c1.25,1.41,2.41,2.89,3.59,4.36.9,1.11,2.21,2.25,2.43,3.74.1.71,0,.73-.41,1.44s-1,1.56-1.48,2.33c-1.39,2.13-2.85,4.23-4.44,6.21a24.42,24.42,0,0,1-5,5.1l2.74.72c-3.53-4.72-6.86-9.64-10.76-14.06l-.4,3.14c2.92-2.09,5.7-4.42,8.52-6.64s5.39-4.2,8-6.34a2,2,0,0,0,0-2.83,2.06,2.06,0,0,0-2.83,0c-2.58,2.09-5.21,4.13-7.83,6.18l-5.27,4.14-1.94,1.5-.35.27-.36.27a2,2,0,0,0-.4,3.14c3.67,4.16,6.8,8.8,10.13,13.24a2,2,0,0,0,2.73.72,26.55,26.55,0,0,0,6-6q2.82-3.56,5.27-7.38c1.33-2.07,2.47-3.8,1.85-6.43-.47-2-1.79-3.33-3-4.85s-2.6-3.27-4-4.83C119.9,108.92,117.08,111.76,118.78,113.68Z"/><path class="cls-4" d="M192,240.25c-1.5-16.56-3.42-33.1-5.34-49.63-1.06-9-1.87-18.19-4-27.06-2.29-9.65-6.23-19-14-25.49-9.31-7.82-21.32-11.81-32.5-16.14a2,2,0,0,0-2.46,1.4,2.05,2.05,0,0,0,1.4,2.46c9.8,3.8,20.1,7.31,28.69,13.52a33.27,33.27,0,0,1,9.15,9.83,51.36,51.36,0,0,1,5.27,13.13c2.31,8.64,3.15,17.56,4.2,26.41q1.6,13.75,3.1,27.52c.87,8,1.74,16,2.47,24.06a2.05,2.05,0,0,0,2,2,2,2,0,0,0,2-2Z"/><path class="cls-4" d="M43.6,139.05c8.66-6.53,18.91-10.61,29.11-14.07,2.43-.82,1.39-4.69-1.06-3.86-10.5,3.57-21.15,7.75-30.07,14.48a2.08,2.08,0,0,0-.72,2.74A2,2,0,0,0,43.6,139.05Z"/><path class="cls-4" d="M96.21,93.7a15.41,15.41,0,0,0,7.41,1.72,12.09,12.09,0,0,0,7.5-2.22,2,2,0,0,0,0-2.83,2.06,2.06,0,0,0-2.83,0c.61-.48.16-.12,0,0s-.3.18-.45.26l-.25.12c-.23.12-.17,0,.1,0a2.8,2.8,0,0,0-.63.23,11.52,11.52,0,0,1-1.76.4c.3,0,0,0-.14,0l-.52,0c-.42,0-.83,0-1.25,0s-.75,0-1.12,0l-.51,0s-.66-.1-.23,0a13.38,13.38,0,0,1-1.64-.37c-.23-.06-.46-.15-.68-.22-.5-.18.31.16-.15-.06-.28-.13-.55-.27-.83-.42a2,2,0,1,0-2,3.46Z"/><path class="cls-4" d="M102.57,76.28a33.77,33.77,0,0,1,.81,3.72l-.07-.53a2.18,2.18,0,0,1,0,.51l.08-.53a1.55,1.55,0,0,1-.06.23l.2-.48a.53.53,0,0,1-.08.15l.31-.4-.12.12.4-.31a2.1,2.1,0,0,1-.3.15l.48-.2a2.21,2.21,0,0,1-.5.15l.53-.08a1.85,1.85,0,0,1-.47,0l.53.08-.52-.1a1.55,1.55,0,0,0-.8,0,1.45,1.45,0,0,0-.75.24,2,2,0,0,0-.71,2.73,1.87,1.87,0,0,0,1.19.92c.41.06.81.16,1.22.18a4.05,4.05,0,0,0,1.81-.43,2.65,2.65,0,0,0,1.46-1.74,4.44,4.44,0,0,0,0-1.85c-.2-1.2-.48-2.39-.79-3.57a2.09,2.09,0,0,0-.92-1.2,2,2,0,0,0-2.94,2.26Z"/><path class="cls-4" d="M82.88,65.7c-.63,2-.22,6.67,3.61,7.07,5.06,0,5.33-5.65,3.63-8.3C88.72,62.31,84.62,61.41,82.88,65.7Z"/><path class="cls-4" d="M123.57,65.7c.63,2,.22,6.67-3.61,7.07-5.06,0-5.33-5.66-3.63-8.3C117.73,62.31,121.83,61.41,123.57,65.7Z"/><path class="cls-4" d="M67.07,60.48A8.38,8.38,0,0,0,58,59.11a8,8,0,0,0-4.2,5.4C52.3,70,53.72,76.38,56.86,81.05c2.1,3.12,5.37,5.9,9.38,5.38a2.06,2.06,0,0,0,2-2,2,2,0,0,0-2-2c-5.47.71-8.56-7.23-8.94-11.63-.2-2.3-.2-5.2,1.21-7.16-.2.28.2-.22.2-.23s.27-.27.33-.31a3.69,3.69,0,0,1,1.41-.64,4.2,4.2,0,0,1,3.79.84C66.15,65,69,62.19,67.07,60.47Z"/><path class="cls-4" d="M142.21,63.31a4.13,4.13,0,0,1,3.62-.88,3.77,3.77,0,0,1,1.58.67,3.19,3.19,0,0,0,.33.31c0,.06.4.52.2.23,1.41,2,1.41,4.86,1.21,7.17-.38,4.4-3.47,12.34-8.94,11.63a2,2,0,0,0-2,2,2.06,2.06,0,0,0,2,2c6.59.85,10.58-6.33,12.22-11.65,1.45-4.7,1.51-12.18-3.11-15.21a8.33,8.33,0,0,0-9.94.9c-1.93,1.71.91,4.53,2.83,2.82Z"/><path class="cls-4" d="M138.52,81.07A44.08,44.08,0,0,1,136,88.83c.21-.52-.15.3-.23.47-.18.4-.38.79-.58,1.17-.47.89-1,1.76-1.49,2.61a47.1,47.1,0,0,1-10,11.89,18.71,18.71,0,0,1-7.55,4c-2.5.58-1.44,4.44,1.07,3.85,5.73-1.33,10.49-5.5,14.23-9.86a51,51,0,0,0,8-12c.1-.22.18-.43.27-.64l.21-.5c.09-.22.59-1.38.8-2a38.52,38.52,0,0,0,1.7-5.67c.52-2.51-3.33-3.58-3.86-1.06Z"/><path class="cls-4" d="M64,82a47.23,47.23,0,0,0,10.29,20.41c4.86,5.63,11.1,10.08,18.58,11.19a2.06,2.06,0,0,0,2.46-1.4,2,2,0,0,0-1.4-2.46c-6.88-1-12.34-5-16.81-10.16a43,43,0,0,1-9.27-18.65C67.26,78.43,63.4,79.49,64,82Z"/><path class="cls-4" d="M129.19,7.64A48.78,48.78,0,0,0,83.63,4,47.42,47.42,0,0,0,58.14,32.16a50.35,50.35,0,0,0-.67,28.32c.63,2.5,4.5,1.44,3.85-1.06-3.54-13.9-1-29,8.48-40A44.61,44.61,0,0,1,82.9,8.78a44.69,44.69,0,0,1,44.27,2.32c2.17,1.4,4.18-2.06,2-3.46Z"/><path class="cls-4" d="M148.8,60.48a52.75,52.75,0,0,0,.68-23.25,45.44,45.44,0,0,0-7.66-17.66,48,48,0,0,0-6.38-7.13c-1.9-1.73-4.74,1.09-2.83,2.83a43.34,43.34,0,0,1,13.93,31.82,48.39,48.39,0,0,1-1.6,12.33c-.61,2.5,3.25,3.57,3.86,1.06Z"/><path class="cls-4" d="M116.15,40.48a30.47,30.47,0,0,1,9.69,7.06,33.34,33.34,0,0,1,7.07,10.16,2.07,2.07,0,0,0,2.46,1.4,2,2,0,0,0,1.4-2.46A38,38,0,0,0,128.89,45,33.34,33.34,0,0,0,118.17,37a2.05,2.05,0,0,0-2.73.72,2,2,0,0,0,.71,2.73Z"/><path class="cls-4" d="M73.07,58.26a83.78,83.78,0,0,1,15.1-13.67c.58-.39,1.16-.76,1.77-1.1a1.69,1.69,0,0,0,.39-.22c.21-.27,0,.08-.17-.05-1-.78-.55,0-.5.57a13.71,13.71,0,0,0,.1,2.56,3.52,3.52,0,0,0,1.68,2c1.7.9,3.21-.07,4.67-.91s2.75-1.6,4.12-2.4a96.78,96.78,0,0,1,10.47-5.52,2,2,0,0,0,.72-2.74,2,2,0,0,0-2.73-.72A87.28,87.28,0,0,0,99.39,41c-1.49.85-3,1.72-4.45,2.59a10.14,10.14,0,0,0-1.89,1.08s-.25.09-.27.16a3.58,3.58,0,0,0,.77.29c.13-.06,0,.06.12-.24a2.66,2.66,0,0,0,0-.69c0-1.83-.58-4.08-2.53-4.74-1.6-.54-3,.44-4.3,1.27a65.57,65.57,0,0,0-8.28,6.47,110.17,110.17,0,0,0-8.32,8.28c-1.72,1.91,1.1,4.75,2.83,2.83Z"/></g></g></svg>