<svg xmlns="http://www.w3.org/2000/svg" viewBox="0 0 179.91 233.28"><defs><style>.cls-1{fill:#fff;}.cls-2{fill:#85807f;}.cls-3{fill:#211715;}.cls-4{fill:#4793cf;}</style></defs><g id="レイヤー_2" data-name="レイヤー 2"><g id="レイヤー_1-2" data-name="レイヤー 1"><path class="cls-1" d="M115.86,61.25A5.73,5.73,0,0,1,120,59.74a5.32,5.32,0,0,1,4.77,2.65c1.62,2.81,1.55,8,.46,11.2-.77,2.27-2,5.74-5.08,8.23a6.28,6.28,0,0,1-4.86,1.4l-.33,0c-.58,1.68-1.3,3.17-1.54,3.91-1.21,3.28-7.82,14.67-16.22,19.34v2.35c-.66.53-14.09,11.12-15.11,11.84H79.73c-1-.72-14.45-11.31-15.1-11.84v-1.18A35.15,35.15,0,0,1,52.74,98a42.94,42.94,0,0,1-8-14.84,6.2,6.2,0,0,1-5.14-1.34c-3-2.49-4.31-6-5.08-8.23-1.09-3.2-1.15-8.39.47-11.2a5.29,5.29,0,0,1,4.77-2.65,5.68,5.68,0,0,1,4.13,1.51S39.61,31,79.45,31C120.11,31,115.86,61.25,115.86,61.25Z"/><path class="cls-2" d="M39.81,29.23A43.52,43.52,0,0,1,54.08,11.68a45.37,45.37,0,0,1,46-3.41c9.41-11.43,23.77-5.45,25.55,3.8,1.15,6,1.51,9.77,4.27,15.23s5.23,6.32,10.18,8.64c-3.79,5.6-8.7,10.4-16.76,9.11a46.09,46.09,0,0,1-1.93,14.86,7.67,7.67,0,0,0-1.35-.17,5.75,5.75,0,0,0-4,1.43c-6-1.24-12.26-7.25-15.86-11.84-3.44-4.39-5.59-9.66-7.4-15.61-5.51,6.2-14.84,11.29-25.23,17A141.64,141.64,0,0,1,50,57.55L43.9,61.26a5.74,5.74,0,0,0-4.14-1.52,7.62,7.62,0,0,0-1.5.2,46.89,46.89,0,0,1-2-14.89A45.42,45.42,0,0,1,38,34.37,42.54,42.54,0,0,1,39.81,29.23Z"/><path class="cls-1" d="M67.51,153.82c.94,2.66,1.86,5.28,2.74,7.85,3.65,10.68,5.68,15.24,9.91,25.59h1.5c4.22-10.35,6.26-14.91,9.9-25.59C96.1,148.4,101.73,133.8,105.33,120l-2.12-.89a4.83,4.83,0,0,0-1-4.3c-1.52-1.76-3.43-4.3-5-6-.66.53-14.09,11.12-15.1,11.84H79.72c-1-.72-14.44-11.31-15.1-11.84-1.55,1.73-3.46,4.27-5,6a4.83,4.83,0,0,0-1,4.3l-2.14.79C59.36,131.05,63.6,142.74,67.51,153.82Z"/><path class="cls-3" d="M62.24,108.24a47.76,47.76,0,0,1-.58,4.77c-.13,1-.3,2-.52,2.92,0,.13-.27.7-.1.34a4.68,4.68,0,0,1-.3.54c-.17.26.19-.21,0,0l-.2.21a1.37,1.37,0,0,1-.51.38,15.46,15.46,0,0,1-1.6.74c-2.78,1.27-5.54,2.57-8.31,3.85L48,123l-.77.35c-.49.22.47-.18,0,0a2,2,0,0,0-1.4,2.46,2,2,0,0,0,2.46,1.4c1.11-.4,2.19-1,3.26-1.45l5.12-2.36,3.77-1.75a2,2,0,0,0,.3-.14s-.75.3-.33.14c.21-.07.42-.16.62-.25a7.53,7.53,0,0,0,1.1-.55,6.51,6.51,0,0,0,2.64-3.17,16.22,16.22,0,0,0,.69-3.22c.34-2.06.65-4.12.79-6.2a2,2,0,0,0-4,0Z"/><path class="cls-3" d="M94.1,107.31a64.39,64.39,0,0,0,1.12,9,7,7,0,0,0,4.62,5.32c.72.29-.52-.26,0,0l.56.26,1.76.83,4.75,2.25c1.09.51,2.16,1.06,3.26,1.53a2.07,2.07,0,0,0,2.74-.72,2,2,0,0,0-.72-2.73c-2.34-1-4.61-2.17-6.9-3.26-1.11-.53-2.22-1.07-3.35-1.58a12.92,12.92,0,0,1-1.68-.8,2,2,0,0,1-1-1.36,30.76,30.76,0,0,1-.6-3.32,48.4,48.4,0,0,1-.57-5.37,2.05,2.05,0,0,0-2-2,2,2,0,0,0-2,2Z"/><path class="cls-3" d="M73.11,91.46a14.89,14.89,0,0,0,7.15,1.66A11.65,11.65,0,0,0,87.5,91a2,2,0,0,0,0-2.83,2,2,0,0,0-2.82,0c.61-.48.17-.14,0,0s-.29.17-.44.25l-.23.11c-.17.09-.3,0,.11,0-.2.06-.4.14-.6.22a10.77,10.77,0,0,1-1.68.39c.29-.05,0,0-.12,0l-.5,0q-.6,0-1.2,0c-.36,0-.72,0-1.08,0l-.49,0s-.65-.1-.19,0a14.38,14.38,0,0,1-1.58-.35c-.22-.06-.43-.14-.65-.22-.5-.17.33.17-.12,0l-.8-.4a2,2,0,1,0-2,3.45Z"/><path class="cls-3" d="M79.16,74.72A32.9,32.9,0,0,1,80,78.29l-.08-.53a2,2,0,0,1,0,.49l.07-.53a.9.9,0,0,1-.06.22l.2-.48a.61.61,0,0,1-.07.14l.31-.4a.63.63,0,0,1-.12.11l.4-.31a1.51,1.51,0,0,1-.28.15l.48-.2a2.18,2.18,0,0,1-.48.14l.53-.07a1.7,1.7,0,0,1-.45,0l.54.07c-.17,0-.34-.06-.5-.09a1.55,1.55,0,0,0-.8,0,1.45,1.45,0,0,0-.75.24,2,2,0,0,0-.72,2.73h0a1.89,1.89,0,0,0,1.2.92,11.75,11.75,0,0,0,1.19.17,3.78,3.78,0,0,0,1.77-.42,2.6,2.6,0,0,0,1.43-1.71,4.29,4.29,0,0,0,0-1.82c-.2-1.15-.46-2.29-.76-3.42a2,2,0,0,0-3.86,1.06Z"/><path class="cls-3" d="M60.44,64.56c-.6,1.93-.2,6.4,3.47,6.77,4.85,0,5.11-5.42,3.48-7.95C66.05,61.3,62.11,60.44,60.44,64.56Z"/><path class="cls-3" d="M99.31,64.56c.6,1.93.2,6.4-3.47,6.77-4.85,0-5.11-5.42-3.48-7.95C93.7,61.3,97.63,60.44,99.31,64.56Z"/><path class="cls-3" d="M113.76,79.63a23.3,23.3,0,0,1-1.83,5.8c-.2.48-.38,1-.57,1.46.21-.56,0,.08-.09.19l-.3.61a48.53,48.53,0,0,1-4.06,6.66c-3.56,5-8.42,10.41-14.63,11.86-2.51.59-1.45,4.45,1.06,3.86,5.48-1.28,10-5.23,13.63-9.38a50,50,0,0,0,7.75-11.6,31.1,31.1,0,0,0,2.9-8.4,2.08,2.08,0,0,0-1.4-2.46,2,2,0,0,0-2.46,1.4Z"/><path class="cls-3" d="M42,80.55a45.63,45.63,0,0,0,9.93,19.52c4.81,5.56,11.21,10.27,18.63,11.39a2.07,2.07,0,0,0,2.46-1.4,2,2,0,0,0-1.4-2.46c-6.82-1-12.45-5.25-16.87-10.36a41.44,41.44,0,0,1-8.89-17.76C45.23,77,41.37,78,42,80.55Z"/><path class="cls-3" d="M45.31,59.84A8.23,8.23,0,0,0,36.4,58.5a7.83,7.83,0,0,0-4.12,5.3,20.47,20.47,0,0,0,3,16.15c2.06,3,5.27,5.78,9.19,5.28a2.07,2.07,0,0,0,2-2,2,2,0,0,0-2-2c-3.09.4-5.19-2.14-6.53-4.62A17.41,17.41,0,0,1,35.8,70c-.19-2.25-.2-5,1.18-7-.17.23.43-.46.49-.51a3.42,3.42,0,0,1,1.36-.61,4,4,0,0,1,3.65.8c1.91,1.71,4.75-1.11,2.82-2.83Z"/><path class="cls-3" d="M117.27,62.67a4,4,0,0,1,3.48-.84,3.47,3.47,0,0,1,1.53.65c-.15-.12.36.35.3.3s.41.51.19.21c1.37,1.91,1.37,4.71,1.18,7-.37,4.25-3.36,12-8.66,11.28a2,2,0,0,0-2,2,2,2,0,0,0,2,2c6.44.83,10.35-6.19,12-11.39,1.42-4.6,1.46-11.91-3.06-14.88a8.18,8.18,0,0,0-9.75.88c-1.92,1.72.91,4.54,2.83,2.83Z"/><path class="cls-4" d="M2,231.28C4.45,212.43,8.56,180,11.62,165c1.28-6.35,4.24-17.13,8.44-23.51,6.56-10,17.34-15,30-21.1a37.17,37.17,0,0,1,5.52-4.06c3.5,14.85,9.73,30.87,14.67,45.31,3.65,10.68,5.68,15.24,9.9,25.59h1.51c4.22-10.35,6.26-14.91,9.9-25.59,4.94-14.44,11.17-30.46,14.67-45.31a32.85,32.85,0,0,1,4.19,2.94l5,1.47a70.4,70.4,0,0,1,16.52,8.5l15.46,10.88,16.16,35.49c1.2,6.54,2.61,12.42,5,23.18a39.89,39.89,0,0,1,1.22,8.48c0,6.25-3.43,12.67-9.16,15.13-4.48,1.93-10.85,2-16.05.8-3.57-.84-9.46-2.7-13.74-5.62l-3.39-1.69c-.06,7-.08,13.52-.09,15.36Z"/><path class="cls-3" d="M133,127.54a76.44,76.44,0,0,0-17-8.7,2,2,0,0,0-2.46,1.4,2,2,0,0,0,1.4,2.46,72.84,72.84,0,0,1,16,8.3,2,2,0,1,0,2-3.44h0Z"/><path class="cls-3" d="M128.06,161.42c0,9.43-1.21,18.79-1.67,28.2s-.89,19-1,28.48q0,6.6-.07,13.18c0,2.58,4,2.58,4,0,.1-18,.31-35.92,1.86-53.84.46-5.33.83-10.66.84-16,0-2.58-4-2.58-4,0Z"/><path class="cls-3" d="M30.69,161.42c0,9.43,1.21,18.79,1.67,28.2s.88,19,1,28.48c0,4.4,0,8.79.07,13.18,0,2.58,4,2.58,4,0-.1-18-.31-35.92-1.86-53.84-.46-5.33-.83-10.66-.84-16,0-2.58-4-2.58-4,0Z"/><path class="cls-3" d="M161.66,176.17c.78,4.2,1.7,8.37,2.62,12.54q.87,3.93,1.75,7.87a62.37,62.37,0,0,1,1.71,9.3A15.57,15.57,0,0,1,162.53,219c-3.94,3.24-9.88,3.44-14.72,2.83a38.43,38.43,0,0,1-16-5.91c-2.14-1.43-4.15,2-2,3.45a42.74,42.74,0,0,0,15.41,6.07c5.73,1.09,12.47,1.07,17.69-1.88a18.37,18.37,0,0,0,8.62-13.17,28,28,0,0,0-.55-9.73c-.65-3.23-1.4-6.45-2.12-9.67-1.17-5.27-2.36-10.54-3.35-15.85-.47-2.53-4.32-1.46-3.86,1.06Z"/><path class="cls-3" d="M4,231.28c2.21-17.06,4.35-34.14,7-51.14a191.66,191.66,0,0,1,4.14-21.25,71.21,71.21,0,0,1,4.59-12.74,33.49,33.49,0,0,1,7.65-10.07c7.8-7.1,18.06-11.16,27.41-15.75,2.32-1.13.29-4.58-2-3.45C44,121.17,34.86,125,27.13,131.08a39.15,39.15,0,0,0-9,9.71,54.31,54.31,0,0,0-5.58,12.7,150.37,150.37,0,0,0-4.91,22.32C6.24,184.64,5,193.5,3.79,202.37,2.49,212,1.25,221.64,0,231.28a2,2,0,0,0,2,2,2.06,2.06,0,0,0,2-2Z"/><path class="cls-1" d="M177.51,147.69a10.32,10.32,0,0,1,.4,1.64,11.92,11.92,0,0,1-1.7,7.73,62.8,62.8,0,0,0-4.75,12c-.89,3.12-2,7.89-2.34,9.8a11.69,11.69,0,0,1-1.63,4.54c-1.1,1.63-2.7,2.17-4.32,3.11-.82.48-5.14.18-6.09.08a24,24,0,0,1-9.5-3.91c-3.57-2.54-4.56-7.56-2.06-18.07.49-1.89-.24-4.22-1.45-6.3l-2.58,1.28c-1.09-1.9-2.1-3.86-3-5.87a5,5,0,0,1,.89-5.35,6.93,6.93,0,0,1,1.87-1.31l1.16-2.34a5.52,5.52,0,0,1-4.48-1.12,3.4,3.4,0,0,1-1.3-2.93,9,9,0,0,1,1.84-4.82,16.09,16.09,0,0,1,4.85-4.48,6.45,6.45,0,0,1,6.35-.08c.89.57,1.59,1.41,2.51,1.93l3.68.35a5.46,5.46,0,0,1,4-3.09,6.86,6.86,0,0,1,4.93,1.49,29.4,29.4,0,0,1,2.43,2.17c3.18,3.3,5.9,6.75,9,10.7A11.06,11.06,0,0,1,177.51,147.69Z"/><path class="cls-3" d="M157.78,134.08c.49-1.34,2.37-1.8,3.59-1.58,2.13.4,3.8,2.33,5.21,3.84,1.61,1.72,3.14,3.51,4.63,5.34,1.28,1.57,3,3.21,3.84,5.07a10,10,0,0,1,.92,4.92c-.18,2.08-1.21,3.73-2.13,5.54a62.77,62.77,0,0,0-4.08,10.49,102.05,102.05,0,0,0-2.56,10.52c-.35,1.91-.82,4-2.54,5.15a14,14,0,0,1-1.3.74l-.69.37c-.08.05-.81.4-.4.23s-.46,0-.1,0c-.43,0-.86,0-1.29,0a19.52,19.52,0,0,1-8.58-1.71,24.54,24.54,0,0,1-2.77-1.48c-.35-.22-.7-.44-1-.68,0,0-.2-.18-.41-.38a5.61,5.61,0,0,1-1.39-2.2c-1.16-3.52-.47-7.55.28-11.14.51-2.48,1-4.59.1-7.06a18.13,18.13,0,0,0-3.93-6.32c-1.76-1.89-4.58,1-2.83,2.83a12.16,12.16,0,0,1,3.25,5.8,7.34,7.34,0,0,1-.31,3c-.29,1.31-.54,2.62-.73,3.95-.51,3.57-.81,7.43.64,10.83s4.58,5.2,7.83,6.59a23.91,23.91,0,0,0,10.43,1.94c4.44-.13,8.12-3.63,9.26-7.79.5-1.86.78-3.79,1.22-5.67.49-2.09,1-4.18,1.61-6.25a51.56,51.56,0,0,1,4.4-11,14,14,0,0,0,.46-13.59,20.41,20.41,0,0,0-2.34-3.13q-1.48-1.86-3-3.71a54.34,54.34,0,0,0-5.9-6.33c-2.2-1.9-4.79-3.27-7.8-2.78a7.24,7.24,0,0,0-5.43,4.48c-.89,2.42,3,3.47,3.86,1.07Z"/><path class="cls-3" d="M165.69,143.25c-2-2.22-4-4.39-6.09-6.53a17.7,17.7,0,0,0-2.17-2.07,5.87,5.87,0,0,0-6.71-.12,6.78,6.78,0,0,0-2.81,6.87,2,2,0,0,0,2.46,1.4,2,2,0,0,0,1.4-2.46q-.06-.36,0,0a2.54,2.54,0,0,1,0-.39c0-.24,0-.26,0-.06a2.74,2.74,0,0,1,.09-.39,2.36,2.36,0,0,1,.48-1c-.1.12-.07.09.09-.1l.3-.31c.35-.32-.1,0,.3-.21a1.62,1.62,0,0,1,1-.29c.4,0-.07-.07.32,0a1.71,1.71,0,0,1,.57.21c.21.14.53.41.24.14l.11.1c.33.36.69.69,1,1q3.36,3.45,6.58,7a2,2,0,1,0,2.83-2.83Z"/><path class="cls-3" d="M157.53,145.85a49.93,49.93,0,0,0-5.88-5,9.7,9.7,0,0,0-3-1.74,5.69,5.69,0,0,0-6.83,7,10.54,10.54,0,0,0,2.18,3.48,17.47,17.47,0,0,0,1.34,1.5c1.37,1.38,2.79,2.69,4.2,4a2,2,0,1,0,2.83-2.82c-1.06-1-2.13-2-3.17-3-.53-.51-1.06-1-1.56-1.55s-.9-1-1.17-1.4a11.16,11.16,0,0,1-.73-1.11c-.16-.3.13.21,0-.07,0-.07,0-.16-.07-.23.14.26,0,.29,0,.08s0-.28,0-.41c0-.29-.08.31,0,0a2,2,0,0,0,.06-.26c0-.1.27-.71.09-.34.08-.17.2-.33.28-.5s0,.07-.08.1.33-.33.16-.18.12-.08.16-.1l.23-.14c.32-.18.1,0,0,0l.33-.11a2,2,0,0,0,.26-.06c.27-.09-.31,0,0,0h.25c.44,0-.17-.09,0,0a1.57,1.57,0,0,0,.31.08c.2,0-.06,0-.11,0l.54.35,1.26.87.68.49.35.26.1.08c.49.39,1,.8,1.42,1.22.9.79,1.83,1.57,2.69,2.42a2,2,0,0,0,2.83-2.83Z"/><path class="cls-3" d="M145.6,145.7a6.2,6.2,0,0,0-4.08-.8,6.83,6.83,0,0,0-3.19,1.7,6.68,6.68,0,0,0-2.22,5.67,13.23,13.23,0,0,0,1.61,4.48,29.85,29.85,0,0,0,2,3.83,2,2,0,1,0,3.46-2,24.91,24.91,0,0,1-1.7-3.13c-.28-.57-.56-1.13-.83-1.7-.1-.2-.19-.41-.29-.61l-.14-.31c-.06-.12,0-.23,0,.07a4.34,4.34,0,0,0-.14-.48,3,3,0,0,1-.07-.32c0,.22,0,.26,0,.11s0-.4,0-.6,0-.64,0-.16c0-.18.06-.35.1-.51s.27-.76.08-.33a4.73,4.73,0,0,1,.23-.45c.06-.1.36-.41.07-.14l.41-.4s.52-.42.24-.21c.15-.11.3-.22.46-.32s.46-.24.11-.1c.09,0,.83-.19.47-.16a2.81,2.81,0,0,1,.58,0c-.4-.05.21.09.24.1.22.08.26.09.11,0l.4.21a2,2,0,1,0,2-3.45Z"/><path class="cls-3" d="M153.18,131.47c-.89-.53-1.66-1.42-2.61-2a7.45,7.45,0,0,0-3.68-1,10.45,10.45,0,0,0-6.88,2.76,16,16,0,0,0-4.39,5.48c-1.06,2.41-1.59,5.26.15,7.49a7.38,7.38,0,0,0,7.16,2.42,2,2,0,0,0,1.4-2.46,2.05,2.05,0,0,0-2.46-1.4,3.31,3.31,0,0,1-2.28-.45,3.07,3.07,0,0,1-.42-.28c.43.32-.12-.13-.2-.22a1.24,1.24,0,0,1-.36-.72,6.05,6.05,0,0,1,.57-2.61,10.16,10.16,0,0,1,1.84-2.62c1.39-1.58,3-3.1,5.17-3.38a3.88,3.88,0,0,1,2.25.38c.94.52,1.74,1.48,2.72,2.06,2.22,1.31,4.24-2.14,2-3.45Z"/><path class="cls-3" d="M83.59,187.79c3.37-8.25,6.77-16.47,9.67-24.9,3.37-9.8,7-19.52,10.17-29.39,1.77-5.48,3.4-11,4.74-16.61l-2.94,1.2a36.92,36.92,0,0,1,7.23,5.7c2.1,2.06,4.4,4.42,5.57,7.17l-.27-1v.32l.27-1c.25-.45,0-.07-.33.11l-.7.44c-.61.39-1.21.79-1.81,1.2-1.12.75-2.24,1.51-3.39,2.25a2,2,0,0,0-.65,2.79,2,2,0,0,0,.65.66c1.59,1.17,3.28,2.21,4.82,3.44.42.34,1.76,1.22,1.86,1.69-.09-.4-.27.21-.36.37q-.39.75-.81,1.5-2.89,5.32-6,10.56c-4.24,7.32-8.64,14.55-13.1,21.74q-3.67,5.93-7.4,11.83c-1.37,2.18,2.09,4.19,3.46,2,4.82-7.66,9.61-15.34,14.29-23.09q3.56-5.9,7-11.85c2.14-3.7,4.37-7.41,6.28-11.24,1.3-2.61-.12-4.43-2.12-6.1s-4-2.87-5.94-4.32v3.45c1.33-.85,2.63-1.75,3.94-2.62a18.59,18.59,0,0,0,3.3-2.2c2-2.11-.92-5.35-2.25-7a42.35,42.35,0,0,0-11.57-10.22,2,2,0,0,0-2.75.76,2.44,2.44,0,0,0-.19.44,292.53,292.53,0,0,1-9.17,29.64c-3.21,9.16-6.25,18.4-9.78,27.44-1.81,4.63-3.74,9.22-5.62,13.82a2,2,0,0,0,1.4,2.46,2,2,0,0,0,2.46-1.4Z"/><path class="cls-3" d="M82.09,186.73c-3.37-8.25-6.78-16.47-9.67-24.9-3.37-9.8-7-19.53-10.17-29.39-1.77-5.48-3.4-11-4.74-16.61a2,2,0,0,0-2.5-1.39,2.44,2.44,0,0,0-.44.19A42,42,0,0,0,43,124.85c-1.3,1.64-4.1,4.71-2.41,6.84.82,1,2.36,1.68,3.45,2.4,1.32.87,2.61,1.76,3.94,2.62v-3.46c-1.76,1.29-3.59,2.47-5.3,3.81s-3.47,2.7-3.3,4.92a7.28,7.28,0,0,0,1.15,2.81c.54,1,1.09,2,1.64,3q1.55,2.81,3.14,5.57c4.53,7.92,9.26,15.73,14.06,23.49q4,6.51,8.12,13c1.37,2.17,4.84.17,3.46-2C62.09,173.74,53.25,159.6,45.22,145c-.52-.94-1-1.87-1.53-2.81a2,2,0,0,1-.3-.56c0,.08-.22.45.08,0a7.46,7.46,0,0,1,1.09-1c1.69-1.48,3.64-2.65,5.45-4a2,2,0,0,0,.66-2.79,2.08,2.08,0,0,0-.66-.66c-1.14-.73-2.26-1.5-3.39-2.25-.54-.37-1.08-.73-1.63-1.08l-.71-.45-.52-.32c-.23-.16-.23-.13,0,.1l.27,1v-.32l-.27,1c1.17-2.75,3.47-5.11,5.57-7.16a37,37,0,0,1,7.23-5.71l-2.94-1.2a297.89,297.89,0,0,0,9.17,29.65c3.22,9.15,6.25,18.4,9.79,27.44,1.81,4.63,3.74,9.21,5.62,13.82a2.07,2.07,0,0,0,2.46,1.4,2,2,0,0,0,1.4-2.46Z"/><path class="cls-3" d="M71.87,140.08c1.38,1,2.72,2.12,4.1,3.15.72.53,1.44,1.05,2.19,1.54a5.94,5.94,0,0,0,2.75,1.3,5.61,5.61,0,0,0,2.63-1.23c.75-.48,1.48-1,2.19-1.53,1.42-1.06,2.8-2.17,4.22-3.23a2.08,2.08,0,0,0,.72-2.74,2,2,0,0,0-2.74-.71c-2.63,2-5.12,4.15-8,5.71h2c-2.91-1.56-5.4-3.76-8-5.71a2,2,0,0,0-2.74.71,2.05,2.05,0,0,0,.72,2.74Z"/><path class="cls-1" d="M64.62,108.77c-1.55,1.73-3.46,4.27-5,6a4.83,4.83,0,0,0-1,4.3c.59,1.16,7,11.49,11.36,14.27,1.37-1.83,7.05-9.71,9.77-12.76C78.71,119.89,65.28,109.3,64.62,108.77Z"/><path class="cls-1" d="M97.2,108.77c1.55,1.73,3.46,4.27,5,6a4.83,4.83,0,0,1,1,4.3c-.59,1.16-7,11.49-11.36,14.27-1.37-1.83-7-9.71-9.77-12.76C83.11,119.89,96.54,109.3,97.2,108.77Z"/><path class="cls-3" d="M63.21,107.35c-1.31,1.49-2.52,3.06-3.77,4.59s-2.37,2.7-2.81,4.53c-.6,2.47.5,4.16,1.75,6.11q2.26,3.51,4.85,6.8A25.24,25.24,0,0,0,69,135.09a2.05,2.05,0,0,0,2.74-.71c3.1-4.15,6-8.47,9.45-12.36a2,2,0,0,0-.41-3.14l-.9-.68c.44.33,0,0-.12-.1l-.47-.37-.92-.71-5-3.9c-2.44-1.92-4.9-3.83-7.32-5.77a2.06,2.06,0,0,0-2.83,0,2,2,0,0,0,0,2.82c5.1,4.11,10.2,8.34,15.51,12.16l-.4-3.14c-3.65,4.14-6.77,8.75-10.07,13.16l2.73-.71a22.7,22.7,0,0,1-4.53-4.6c-1.51-1.88-2.9-3.87-4.22-5.88-.46-.71-.92-1.43-1.36-2.16a6.21,6.21,0,0,1-.39-.65,2.12,2.12,0,0,1-.11-.21c.07.29.09-.42.1-.51.2-1.38,1.47-2.46,2.3-3.49,1.07-1.33,2.13-2.68,3.27-4C67.74,108.26,64.91,105.42,63.21,107.35Z"/><path class="cls-3" d="M95.78,110.18c1.14,1.29,2.2,2.63,3.28,4,.81,1,2,2,2.28,3.38.14.75.07.74-.38,1.47s-.9,1.45-1.36,2.16c-1.29,2-2.65,3.92-4.12,5.76a23,23,0,0,1-4.63,4.72l2.73.72c-3.3-4.42-6.42-9-10.07-13.17l-.41,3.15c5.32-3.82,10.41-8,15.51-12.16a2,2,0,0,0,0-2.83,2.06,2.06,0,0,0-2.83,0c-2.41,2-4.87,3.85-7.31,5.77l-5,3.9-.92.72-.41.32c-.08.06-.64.5-.19.14-.3.23-.59.47-.9.69a2,2,0,0,0-.66,2.8,2.78,2.78,0,0,0,.26.34c3.43,3.88,6.35,8.21,9.45,12.35a2,2,0,0,0,2.74.72,25.61,25.61,0,0,0,5.72-5.71c1.73-2.19,3.34-4.46,4.85-6.8,1.26-2,2.35-3.64,1.76-6.11-.44-1.82-1.66-3.12-2.81-4.53s-2.46-3.11-3.78-4.59C96.9,105.42,94.08,108.26,95.78,110.18Z"/><path class="cls-3" d="M123.65,59a50.11,50.11,0,0,0,1.15-19.2,44.8,44.8,0,0,0-5-15.41,37.68,37.68,0,0,0-8.57-10.64A53.41,53.41,0,0,0,98.92,5.49,47.72,47.72,0,0,0,64.25,4.12,45.74,45.74,0,0,0,41.87,21.41c-7.53,11-9.24,24.84-5.95,37.6.65,2.49,4.5,1.44,3.86-1.06C37,47.34,38,36,43.48,26.37A41.94,41.94,0,0,1,62,9.3,44,44,0,0,1,93.9,7.78a43.07,43.07,0,0,1,12.3,7,37.24,37.24,0,0,1,8.45,8.77,40.07,40.07,0,0,1,5.91,14.88,45.51,45.51,0,0,1-.77,19.5c-.62,2.5,3.24,3.56,3.86,1.06Z"/><path class="cls-3" d="M101.86,9.19C104.49,6.24,108,4.07,112,4a12.33,12.33,0,0,1,8.63,3.26,10.18,10.18,0,0,1,2.52,3.57,34.18,34.18,0,0,1,1.35,6.3,37.54,37.54,0,0,0,4.75,13.17,15.35,15.35,0,0,0,4.22,4.5A37.42,37.42,0,0,0,139,37.66l-.72-2.74a23,23,0,0,1-5.63,6.13,12.27,12.27,0,0,1-8.14,2.14c-2.57-.18-2.56,3.82,0,4a15.82,15.82,0,0,0,10.15-2.67A28,28,0,0,0,141.76,37a2,2,0,0,0-.71-2.74,42.36,42.36,0,0,1-5.13-2.57,11,11,0,0,1-3.49-3.81c-2.56-4.31-3.59-9.06-4.48-13.93A19.35,19.35,0,0,0,126.21,8a14.12,14.12,0,0,0-3.46-4.18A16.54,16.54,0,0,0,112.15,0,17.91,17.91,0,0,0,99,6.37c-1.71,1.91,1.11,4.75,2.83,2.82Z"/><path class="cls-3" d="M59.33,42.68c2.11,3.75,4.63,8,6.88,11.34a2.64,2.64,0,0,0,3.24.92l1.69-.76a2.65,2.65,0,0,0,1.32-3.5l0,0C70.92,47.45,68.3,42.12,66.7,39a2.75,2.75,0,0,0-3.57-1.25c-.84.38-1.77.8-2.61,1.2a2.65,2.65,0,0,0-1.29,3.52A1.14,1.14,0,0,0,59.33,42.68Z"/><path class="cls-3" d="M91.28,32.31c-4.54,5.06-10.54,8.62-16.38,12A123.59,123.59,0,0,1,59.51,52c-3.32,1.33-6.7,2.49-10.08,3.62C47,56.43,48,60.3,50.49,59.48c5.35-1.8,10.62-3.74,15.76-6,3.27-1.47,6.36-3.26,9.48-5,3.32-1.88,6.62-3.82,9.77-6a47.58,47.58,0,0,0,8.61-7.28c1.72-1.91-1.1-4.74-2.82-2.82Z"/><path class="cls-3" d="M90.77,34.25c2,6.35,4.5,12.43,8.79,17.57,3.94,4.72,9,9.35,15.07,11.09,2.48.71,3.54-3.15,1.07-3.86-5.36-1.55-9.82-5.89-13.32-10.06-3.83-4.58-6-10.15-7.75-15.8-.76-2.45-4.62-1.41-3.86,1.06Z"/></g></g></svg>