<svg xmlns="http://www.w3.org/2000/svg" viewBox="0 0 249.97 270.83"><defs><style>.cls-1{fill:#fff;}.cls-2{fill:#ffda71;}.cls-3{fill:#211715;}.cls-4{fill:#7a7473;}.cls-5{fill:#5394cf;}</style></defs><g id="レイヤー_2" data-name="レイヤー 2"><g id="レイヤー_1-2" data-name="レイヤー 1"><path class="cls-1" d="M126.28,211c-7.81-5-17.08-6.5-26.4-5.81s-21,1.74-28.33,5.48c-2.77,12.92-8.26,44.39-10.64,56.95,21.64-5.46,47.63-5.46,65.37,1.54,18-6.86,42.47-6.86,65.37-1.54-2.38-12.56-7.87-44-10.65-56.95-7.36-3.74-18.75-5.33-28-6S135,206.11,126.28,211Z"/><path class="cls-1" d="M123.87,108a3.56,3.56,0,0,0-1.21-.69c-6.26-2.52-11.49-6.36-13.78-9.43a17,17,0,0,0-3.94,5.54c3,12,7.88,24.77,11.79,36.35q4.32,12.81,8.65,25.61,4.32-12.8,8.65-25.61c3.88-11.47,8.69-24.1,11.7-36a17.69,17.69,0,0,0-4.12-5.89c-2.29,3.07-7.51,6.91-13.77,9.43a3.6,3.6,0,0,0-1.22.69Z"/><path class="cls-1" d="M157.86,53.67a5.28,5.28,0,0,1,3.81-1.39,4.88,4.88,0,0,1,4.39,2.44c1.49,2.58,1.43,7.35.42,10.3a15.82,15.82,0,0,1-4.67,7.57,5.79,5.79,0,0,1-4.47,1.3l-.5-.09c-.44,1.53-1.07,3.13-1.31,3.86-1.06,2.87-6.68,12.6-13.92,17.09v3.13c-2.28,3.07-7.51,6.91-13.77,9.43a3.56,3.56,0,0,0-1.21.69h-2.75a3.6,3.6,0,0,0-1.22-.69c-6.26-2.52-11.48-6.36-13.77-9.43V95a31,31,0,0,1-8.47-7.37A35.68,35.68,0,0,1,93,73.85a5.76,5.76,0,0,1-4.69-1.25A16,16,0,0,1,83.6,65c-1-2.95-1.07-7.72.42-10.3a4.9,4.9,0,0,1,4.39-2.44,5.28,5.28,0,0,1,3.81,1.39s-4-29.53,32.36-29.53S157.86,53.67,157.86,53.67Z"/><path class="cls-1" d="M52.93,61.24a2.74,2.74,0,0,1-.37.88,5.75,5.75,0,0,1-2.28,1.68,51.21,51.21,0,0,1-7.55,2.92,4.51,4.51,0,0,1-2.64-.82,5.07,5.07,0,0,1-.93-1.27c-1.39-2.67-4.09-9.19-3.76-10l.07-1A72.59,72.59,0,0,0,48.9,48l.5.86A61.39,61.39,0,0,1,52.92,60,3.15,3.15,0,0,1,52.93,61.24Z"/><path class="cls-2" d="M23.41,24.07c-.35.4-.7.84-1,1.31a15.9,15.9,0,0,0-1.75,16.46,19.82,19.82,0,0,0,4.6,6.46A22.21,22.21,0,0,0,30,52a21.61,21.61,0,0,0,4.55,1.91,69.52,69.52,0,0,0,15.25-6.35c2.52-2.38,3.7-8,3.52-11a22.31,22.31,0,0,0-1.21-6.53,19,19,0,0,0-3.86-6.24A16.26,16.26,0,0,0,40,18.62a18.75,18.75,0,0,0-10.5,1A17.18,17.18,0,0,0,23.41,24.07Z"/><path class="cls-3" d="M24.59,25.25a15.77,15.77,0,0,0-3.53,6.88A15.14,15.14,0,0,0,22,40.85a20.64,20.64,0,0,0,13,11.4H34.1a63.55,63.55,0,0,0,12.42-4.83,7.82,7.82,0,0,0,2.58-1.6,9.79,9.79,0,0,0,1.37-2.52,17.9,17.9,0,0,0-3.41-18.42,14.25,14.25,0,0,0-11-5,15.72,15.72,0,0,0-11.46,5.34c-1.43,1.59-3.78-.77-2.35-2.36,5.26-5.86,14.13-8.12,21.4-4.74a19.65,19.65,0,0,1,7,5.84A21.69,21.69,0,0,1,55,36.67a18.34,18.34,0,0,1-2.81,10.57c-1.21,1.75-3,2.57-4.83,3.49s-4,1.84-6.1,2.64c-1.73.66-3.48,1.29-5.26,1.81a3.7,3.7,0,0,1-2.39.13,23.39,23.39,0,0,1-3.41-1.38,24.7,24.7,0,0,1-8.3-6.82,19.69,19.69,0,0,1-4.44-12.54,18.74,18.74,0,0,1,4.79-11.68C23.64,21.26,26,23.63,24.59,25.25Z"/><path class="cls-3" d="M30.73,3.53q0,2.66-.09,5.31a1.67,1.67,0,0,1-3.33,0c0-1.77.07-3.54.08-5.31a1.67,1.67,0,0,1,3.34,0Z"/><path class="cls-3" d="M18.71,11.76Q17.36,9.9,16.16,8A1.67,1.67,0,1,1,19,6.27c.79,1.3,1.65,2.57,2.55,3.81a1.64,1.64,0,0,1,.17,1.28,1.67,1.67,0,0,1-2.05,1.17h0l-.4-.17a1.72,1.72,0,0,1-.6-.6Z"/><path class="cls-3" d="M13.25,18.77c-1.55-.9-3.12-1.77-4.74-2.54a1.68,1.68,0,0,1-.77-1A1.73,1.73,0,0,1,7.91,14a1.68,1.68,0,0,1,1-.77,1.89,1.89,0,0,1,1.28.17c1.62.77,3.2,1.63,4.74,2.53a1.67,1.67,0,0,1-1.68,2.88Z"/><path class="cls-3" d="M50.9,57.16A118.86,118.86,0,0,1,38.71,61.8a1.67,1.67,0,0,1-.89-3.21,113.5,113.5,0,0,0,11.4-4.31,1.72,1.72,0,0,1,2.28.6A1.68,1.68,0,0,1,50.9,57.16Z"/><path class="cls-3" d="M50.84,48a20.58,20.58,0,0,1,1.28,3.15c.51,1.44,1,2.9,1.42,4.37a31.37,31.37,0,0,1,1,4.28c.34,2.33-.91,4-2.89,5.12a44.27,44.27,0,0,1-4.52,2A18.76,18.76,0,0,1,43,68.35a5.24,5.24,0,0,1-4.64-2,18.49,18.49,0,0,1-1.94-3.78c-.71-1.6-1.38-3.23-2-4.89-.36-1-1-2.42-.61-3.52.64-2,3.86-1.16,3.21.89-.06.19,0-.31,0-.28,0,.21.07.1,0,0s0-.17,0,0,0,.2.07.3c.11.47.26.94.41,1.4.41,1.19.87,2.36,1.36,3.51s.91,2.11,1.42,3.14a6,6,0,0,0,.83,1.38c.19.22-.25-.15,0,0a3.62,3.62,0,0,0,.43.24,3.79,3.79,0,0,0,.74.25c.12,0,.36,0,.12,0l.3-.07.7-.21c.64-.21,1.28-.45,1.91-.7,1.27-.49,2.52-1,3.76-1.58,1.07-.48,2.4-1,2.17-2.33a32.16,32.16,0,0,0-.88-3.51q-.65-2.22-1.41-4.41a15,15,0,0,0-1-2.54c-1.06-1.87,1.82-3.55,2.88-1.68Z"/><path class="cls-3" d="M28.64,41.9a8.3,8.3,0,0,1,2.2-5.1c1.2-1.42,2.84-3,4.74-3.34,3.89-.67,7.61,2.86,6.37,6.82a5.25,5.25,0,0,1-3.71,3.47,4.7,4.7,0,0,1-2.68.06,6.07,6.07,0,0,1-2.46-1.72c-2.78-3.14-1.26-7.28,1.7-9.65a8,8,0,0,1,11.35.37,7.4,7.4,0,0,1,.7.87,1.7,1.7,0,0,1,0,2.35,1.66,1.66,0,0,1-2.35,0c-1.52-1.9-3.68-3.1-6.09-2-1.66.76-3.82,2.75-3.47,4.62a3,3,0,0,0,1.68,2c-.23-.06.27,0,.3,0a3.83,3.83,0,0,0,.74-.19,2.63,2.63,0,0,0,.82-.57,1.94,1.94,0,0,0,.07-2.23,2.55,2.55,0,0,0-2.1-1c-1.18.05-2.27,1.36-3,2.18a5.09,5.09,0,0,0-1.47,3c-.08,2.14-3.41,2.15-3.33,0Z"/><path class="cls-3" d="M1.61,195q17.22,0,34.44,0H43.9a1.67,1.67,0,0,0,0-3.34q-17.53,0-35.07,0H1.61A1.67,1.67,0,0,0,1.61,195Z"/><path class="cls-3" d="M205.52,195q17.44,0,34.9,0h7.94a1.67,1.67,0,0,0,0-3.34q-17.76,0-35.52,0h-7.32a1.67,1.67,0,0,0,0,3.33Z"/><path class="cls-4" d="M87.55,27.65A39.36,39.36,0,0,1,101.46,9.42,38.93,38.93,0,0,1,124.94,2c8.18,0,14.91,1.93,20.58,5.46,8.09-10.4,20.77-5.22,22.32,2.84,1,5.2,1.3,8.41,3.68,13.11s4.5,5.43,8.75,7.43c-3.44,5.1-8,9.43-15.65,7.6,0,.47.07,1,.09,1.45a40.66,40.66,0,0,1-1.52,12.6,6.09,6.09,0,0,0-1.53-.23A5.25,5.25,0,0,0,158,53.57c-5.39-1.3-11-6.67-14.2-10.79s-5.12-8.86-6.79-14.33c-5.06,5.7-13.62,10.36-23.16,15.59a131.76,131.76,0,0,1-16.07,6.28l-5.54,3.35a5.28,5.28,0,0,0-3.81-1.39,6,6,0,0,0-1.68.27,42.47,42.47,0,0,1-1.55-12.64,41.57,41.57,0,0,1,1.66-10.09C87.05,29.08,87.29,28.36,87.55,27.65Z"/><path class="cls-5" d="M77,188.57l.74-.38c-2-3-3.63-5.34-5-7.06-2.74-3.45-4-3.93-1.92-8.14a85.74,85.74,0,0,1,6.24-9.71l1.44-1.58c.48,4.61,1,8.91,1.55,11.79.82,9.9,1,9.61,1.73,19.69l86.16-.05c.67-9.56.89-9.36,1.7-19.09.48-2.61,1-6.41,1.42-10.56l2.08,2.32a82,82,0,0,1,7.55,12.08c.52,2.73-2.23,9.44-3.85,11.6,0,0-1.09.84-2,1.55l26.54,10.41a67,67,0,0,0,7.55-14.34c1.32-3.57.87-7.95-.07-11.18-2.45-8.41-13.06-29.67-15.62-35.6-1.29-3-3-6.55-4.77-9.88A33.25,33.25,0,0,0,173,116.06c-4.5-2.06-13.16-6.29-20.33-9.81a35.1,35.1,0,0,0-6.29-5.1c-2.95,12.65-8.2,26.32-12.35,38.63l-8.65,25.61-8.65-25.62c-4.15-12.31-9.4-26-12.35-38.63a33.67,33.67,0,0,0-5.14,4c-8.14,3.61-18.66,8.35-24,11.06C69.7,119,65.69,123,62,128.66c-1.88,2.89-3.31,6.22-4.89,9.22-2.83,5.37-11.45,20.32-14.32,27.46a65.26,65.26,0,0,0-4.18,12.73c-1.41,7.75,7.55,20.29,14.78,22.8Z"/><path class="cls-3" d="M127.12,209.58c-8.1-5.12-17.79-6.71-27.24-6-8.62.62-17.69,1.23-25.85,4.28-.87.32-1.73.67-2.56,1.06a2.77,2.77,0,0,0-1.36,1,4,4,0,0,0-.33,1.17q-.41,1.9-.78,3.81c-.64,3.17-1.25,6.33-1.84,9.5q-2.07,11-4.06,22.07c-1.25,6.93-2.49,13.87-3.8,20.8a1.7,1.7,0,0,0,1.23,2.05,1.63,1.63,0,0,0,.82,0,129.67,129.67,0,0,1,25.7-3.73A112.56,112.56,0,0,1,112.32,267a75,75,0,0,1,11.14,2.88c.78.27,1.59.68,2.38.88,1,.25,2.31-.54,3.27-.86q2.76-.93,5.6-1.65a102.08,102.08,0,0,1,25.53-2.79,142.8,142.8,0,0,1,31,3.76,1.68,1.68,0,0,0,2.05-1.23,1.63,1.63,0,0,0,0-.82c-2.52-13.34-4.83-26.71-7.33-40q-.91-5-1.88-9.88c-.27-1.36-.54-2.72-.82-4.08s-.31-3.33-1.63-4.07c-3.6-2-7.93-3-11.92-3.88a118.18,118.18,0,0,0-13.38-2,53.2,53.2,0,0,0-15.53.48,52.32,52.32,0,0,0-15.32,5.82c-1.88,1-.2,3.92,1.68,2.88a46.47,46.47,0,0,1,21.55-6.24,79.05,79.05,0,0,1,10.65.71,97.68,97.68,0,0,1,10.47,1.74,45.16,45.16,0,0,1,10.37,3.46l-.76-1c3.29,15.34,5.87,30.84,8.67,46.27q1,5.34,2,10.68l2.05-2.05c-17.35-4-35.78-5.38-53.36-2a75.81,75.81,0,0,0-12.89,3.58h.89a84.76,84.76,0,0,0-24.16-5.14,129.45,129.45,0,0,0-27.12.78,131.72,131.72,0,0,0-15,2.82l2.05,2.05c2.9-15.35,5.53-30.74,8.47-46.08.69-3.63,1.4-7.26,2.17-10.87l-.76,1c6-3,13-3.88,19.61-4.57,7.22-.76,14.55-1.43,21.71.14a36.32,36.32,0,0,1,11.72,4.76C127.25,213.61,128.93,210.72,127.12,209.58Z"/><path class="cls-3" d="M124.66,218.3c0,13.14-.14,26.29-.14,39.44a1.67,1.67,0,0,0,3.33,0c0-13.15.14-26.3.14-39.44A1.67,1.67,0,0,0,124.66,218.3Z"/><path class="cls-3" d="M79.18,187.35c-1.61-2.41-3.24-4.81-5-7.09-.69-.88-1.46-1.71-2.11-2.62a2,2,0,0,1-.56-1.7c.29-2,1.8-4,2.87-5.73,1.31-2.07,2.69-4.12,4.15-6.09a1.68,1.68,0,0,0-.6-2.28,1.71,1.71,0,0,0-2.28.6c-1.57,2.13-3.06,4.33-4.46,6.58-1.26,2-2.72,4.28-3,6.7s1.35,4.09,2.76,5.81c1.91,2.4,3.7,4.91,5.37,7.49,1.18,1.78,4.07.11,2.87-1.68Z"/><path class="cls-3" d="M50.31,178.1a40.48,40.48,0,0,1,13.7-.91,1.68,1.68,0,0,0,1.66-1.67A1.7,1.7,0,0,0,64,173.85a43.34,43.34,0,0,0-14.58,1c-2.09.5-1.2,3.72.88,3.21Z"/><path class="cls-3" d="M172,167a57.32,57.32,0,0,1,4.4,6.56c.66,1.11,1.29,2.24,1.92,3.37a14,14,0,0,0,.71,1.32c.35.47.15-.18.1.16a5.23,5.23,0,0,0,0,.56,17,17,0,0,1-1.36,5.15,19.92,19.92,0,0,1-2.32,4.55l.59-.6c-.67.52-1.36,1-2,1.55a1.72,1.72,0,0,0-.6,2.28,1.68,1.68,0,0,0,2.28.6,11.72,11.72,0,0,0,2.83-2.42,17.65,17.65,0,0,0,1.47-2.7,26.68,26.68,0,0,0,2.34-7.12,5.55,5.55,0,0,0-.27-3.44c-.68-1.32-1.42-2.61-2.15-3.89a67.6,67.6,0,0,0-5.54-8.29,1.68,1.68,0,0,0-2.35,0,1.71,1.71,0,0,0,0,2.36Z"/><path class="cls-3" d="M187.69,178.38c-.49.21-.05,0,.06,0l.4-.12a6.31,6.31,0,0,1,.86-.2l.47-.08c.18,0,.16,0-.09,0l.25,0c.33,0,.66-.07,1-.09a37.39,37.39,0,0,1,4.1,0,1.69,1.69,0,0,0,1.67-1.67,1.7,1.7,0,0,0-1.67-1.66c-2.9-.12-6-.18-8.73,1a1.67,1.67,0,0,0-.6,2.28,1.71,1.71,0,0,0,2.28.59Z"/><path class="cls-3" d="M125.16,69a30.56,30.56,0,0,1,.71,3.26l-.06-.44a1.7,1.7,0,0,1,0,.45l.06-.45a.8.8,0,0,1,0,.21l.17-.4a.83.83,0,0,1-.07.13l.26-.34a.57.57,0,0,1-.11.11l.34-.26a2.1,2.1,0,0,1-.26.13l.4-.16a1.62,1.62,0,0,1-.43.12l.44-.06a1.41,1.41,0,0,1-.41,0l.44.06-.46-.08a1.85,1.85,0,0,0-1.28.17,1.66,1.66,0,0,0-.6,2.27h0a1.58,1.58,0,0,0,1,.76,9.3,9.3,0,0,0,1,.15,3.26,3.26,0,0,0,1.54-.36,2.25,2.25,0,0,0,1.24-1.47,3.82,3.82,0,0,0,0-1.58c-.18-1-.42-2.09-.69-3.12a1.67,1.67,0,1,0-3.21.89Z"/><path class="cls-3" d="M135.56,62a4.64,4.64,0,0,1,2.11-4.18,3.61,3.61,0,0,1,5,2.57c.79,2.41-.45,5.62-3.2,5.9C137.24,66.43,135.53,64.13,135.56,62Z"/><path class="cls-3" d="M107.81,62a4.62,4.62,0,0,1,2.1-4.19,3.58,3.58,0,0,1,5,2.57c.79,2.41-.45,5.62-3.19,5.9C109.49,66.44,107.77,64.14,107.81,62Z"/><path class="cls-3" d="M126.1,79.13a4.69,4.69,0,0,0-4.48,2.65,5.49,5.49,0,0,0-.63,2.6,4.76,4.76,0,0,0,7,4.08,4.38,4.38,0,0,0,2-2,6,6,0,0,0,.4-3.35,4.78,4.78,0,0,0-1.32-2.65,4.85,4.85,0,0,0-3-1.32A1.67,1.67,0,0,0,124.93,82a1.84,1.84,0,0,0,1.17.49c-.59-.07-.11,0,0,0s.25.08.37.12c-.52-.16-.14,0,0,0a1.22,1.22,0,0,0,.19.12c-.37-.2-.24-.18-.11-.07s.18.18.27.27-.24-.35-.08-.1l.08.13c.07.11.12.24.19.35-.24-.39-.11-.26,0-.1s0,.15.07.23,0,.28.08.42c-.13-.55,0-.08,0,.09s0,.31,0,.46v.1c0,.18,0,.13,0-.15a1,1,0,0,0,0,.3c0,.09,0,.18-.07.27s-.14.18.07-.16c-.07.12-.13.25-.21.38s.28-.3.06-.07l-.12.12a1.62,1.62,0,0,1-.19.18c-.21.2.34-.21.07,0s-.24.15-.37.21-.32.15,0,0,0,0,0,0a3,3,0,0,1-.4.11c-.31.07.37,0,.15,0h-.48c-.2,0,.46.1.14,0a2.54,2.54,0,0,0-.45-.13c.24,0,.29.14.08,0l-.21-.12-.21-.13.15.11a1,1,0,0,1-.15-.13c-.1-.09-.24-.32-.35-.36.16.07.19.27.09.1s-.11-.16-.16-.25a.65.65,0,0,0-.09-.16l.1.22a1.34,1.34,0,0,1-.07-.18c0-.06,0-.12,0-.18s0-.47,0,.07c0-.26,0-.5,0-.76,0,.58,0,.16,0,0a1.08,1.08,0,0,1,.14-.45s-.19.42-.08.18l.13-.25c.07-.13.15-.25.23-.37s-.28.32-.07.09a1.29,1.29,0,0,1,.16-.17l.16-.17c.12-.1.32-.16-.09.07.14-.08.26-.18.4-.25s.3-.14,0,0,0,0,.1,0l.16,0c.42-.1-.33,0,0,0a4.34,4.34,0,0,1,.51,0,1.68,1.68,0,0,0,1.67-1.67A1.71,1.71,0,0,0,126.1,79.13Z"/><path class="cls-3" d="M138.6,161.88a275.85,275.85,0,0,0,20.56-37.47,3.75,3.75,0,0,0,.42-2.76,6.12,6.12,0,0,0-1.75-2.31c-1.52-1.53-3.11-3-4.71-4.44l-.34,2.62,3.06-1.69a11.36,11.36,0,0,0,2.73-1.65c1.61-1.66-.55-4.2-1.6-5.57a36.89,36.89,0,0,0-9.73-8.91,1.69,1.69,0,0,0-2.3.63,2.39,2.39,0,0,0-.15.37c-2,8.3-4.65,16.4-7.44,24.46q-4.33,12.5-8.58,25-2.49,7.38-5,14.77c-.68,2,2.53,2.91,3.22.89q4.38-13,8.77-26c2.77-8.15,5.74-16.24,8.35-24.45,1.45-4.57,2.78-9.17,3.89-13.82l-2.45,1a32.18,32.18,0,0,1,5.82,4.71,34.76,34.76,0,0,1,2.65,2.91c.34.43.66.88,1,1.33a8.6,8.6,0,0,1,.83,1.29l.23-.85c.25-.23.18-.22-.2,0l-.68.37-1.36.75-2.72,1.5a1.68,1.68,0,0,0-.58,2.31,2.34,2.34,0,0,0,.24.31c1.26,1.14,2.52,2.29,3.74,3.47a10.17,10.17,0,0,1,1.79,1.8c.17.31.24-.22-.08.38-.2.4-.37.83-.55,1.24q-2.07,4.54-4.31,9c-2.94,5.83-6.12,11.54-9.48,17.14q-3,5-6.13,9.88c-1.16,1.82,1.72,3.49,2.87,1.69Z"/><path class="cls-3" d="M127,164.94l-8.76-26c-2.75-8.13-5.72-16.18-8.32-24.36-1.46-4.59-2.8-9.23-3.91-13.92a1.69,1.69,0,0,0-2.09-1.15,2.28,2.28,0,0,0-.36.15,37.12,37.12,0,0,0-9.7,8.87c-1,1.31-3,3.56-1.9,5.28a6.78,6.78,0,0,0,2.59,1.76L98,117.52l-.34-2.62c-1.36,1.23-2.71,2.47-4,3.75s-2.88,2.48-2.54,4.38a10.77,10.77,0,0,0,1,2.46L93.27,128q1.2,2.52,2.43,5,4.69,9.44,10.08,18.5,3.12,5.23,6.49,10.3c1.18,1.78,4.07.11,2.88-1.69a272.8,272.8,0,0,1-19.42-34.69,19,19,0,0,1-1.24-2.67c-.07-.24-.29.06.13-.34s.64-.66,1-1c1.43-1.43,2.93-2.8,4.43-4.16a1.67,1.67,0,0,0,0-2.37,1.48,1.48,0,0,0-.31-.25l-2.73-1.5-1.28-.71-.72-.4c-.4-.27-.48-.29-.22,0l.23.85a9.87,9.87,0,0,1,.66-1q.49-.77,1-1.47a32,32,0,0,1,2.64-2.94,33,33,0,0,1,5.92-4.82l-2.45-1c2,8.32,4.67,16.45,7.47,24.53q4.31,12.45,8.54,24.94,2.5,7.39,5,14.78c.69,2,3.91,1.15,3.22-.89Z"/><path class="cls-3" d="M137.27,119.64a64.65,64.65,0,0,0,7.82-11.44c.54-1,1-2,1.54-3.09a3.31,3.31,0,0,0,.58-1.88,5.47,5.47,0,0,0-.71-1.6,18.66,18.66,0,0,0-3.72-4.93,1.69,1.69,0,0,0-2.4.06,1.46,1.46,0,0,0-.21.28,22.53,22.53,0,0,1-5.61,4.87,40.05,40.05,0,0,1-4.21,2.44,44.19,44.19,0,0,0-4.36,2c-2.74,1.78.47,4.29,1.81,5.69,2.39,2.49,4.88,4.94,7.12,7.57,1.38,1.64,3.73-.73,2.35-2.35-1.8-2.13-3.84-4.05-5.73-6.1-.81-.86-1.61-1.72-2.44-2.55l-.71-.71a2.62,2.62,0,0,1-.22-.25c.37.41,0-.05-.14-.25l.23.84,0-.27-.49,1.18a8.13,8.13,0,0,1,2.25-1q1.17-.53,2.31-1.11a38.9,38.9,0,0,0,4.43-2.64,26.54,26.54,0,0,0,6.26-5.7l-2.62.33a18.32,18.32,0,0,1,3.7,5.24v-1.68a65,65,0,0,1-9.21,14.67C133.55,118.92,135.89,121.29,137.27,119.64Z"/><path class="cls-3" d="M115.58,117.29a64.75,64.75,0,0,1-9.22-14.68v1.69a18.38,18.38,0,0,1,3.7-5.24l-2.61-.34a26.18,26.18,0,0,0,6.26,5.71,40.93,40.93,0,0,0,4.42,2.64c.76.39,1.53.75,2.31,1.1a8.76,8.76,0,0,1,2.25,1L122.2,108l0,.27.22-.84c-.08.15-.57.71-.13.26l-.23.25c-.21.2-.41.41-.62.62-.86.86-1.69,1.74-2.52,2.63-1.9,2-3.93,4-5.73,6.1-1.38,1.63,1,4,2.35,2.36,2.23-2.64,4.72-5.09,7.12-7.58,1.33-1.39,4.55-3.9,1.81-5.69a44.28,44.28,0,0,0-4.37-2,42.88,42.88,0,0,1-4.2-2.44A22.37,22.37,0,0,1,110.32,97a1.7,1.7,0,0,0-2.34-.55,1.86,1.86,0,0,0-.28.21,18.79,18.79,0,0,0-3.64,4.8,8,8,0,0,0-.75,1.52,2.75,2.75,0,0,0,.47,1.93c.51,1.1,1,2.19,1.62,3.26a65,65,0,0,0,7.82,11.44C114.6,121.29,117,118.92,115.58,117.29Z"/><path class="cls-3" d="M117.9,174.25a4.09,4.09,0,0,1,.47.46c.2.22-.07-.12-.1-.13s.08.11.09.13a2.75,2.75,0,0,1,.17.29c0,.07.19.4.06.11s0,.07,0,.16a5,5,0,0,1,.14.67l-.06-.44a4.79,4.79,0,0,1,0,1.07l.06-.45a5.31,5.31,0,0,1-.12.6c0,.09-.06.17-.08.26-.11.34.16-.35,0-.09a4.54,4.54,0,0,1-.3.53c-.09.13-.27.25.08-.09-.08.07-.14.16-.21.23s-.17.14-.24.22c.3-.31.22-.16.08-.07a4,4,0,0,1-.57.32c-.28.14.37-.13.09,0l-.31.11c-.22.06-.44.1-.66.14l.45-.06a5.23,5.23,0,0,1-1.25,0l.44.06-.57-.12-.31-.11c-.27-.09.37.19.1,0a4.85,4.85,0,0,1-.49-.29c-.25-.17.3.29,0,0l-.19-.19-.15-.18c.36.37.12.15,0,0s-.16-.32-.25-.47c.24.42.11.25.06.11a1.9,1.9,0,0,1-.09-.29c0-.18-.08-.36-.11-.53l.06.44a5,5,0,0,1,0-1.16l-.06.44a5.78,5.78,0,0,1,.12-.57,2.41,2.41,0,0,1,.08-.25c.14-.4-.15.29,0,0s.17-.32.26-.47.09-.13.13-.19c-.26.44-.12.15,0,0l.19-.19c.28-.25-.3.2,0,0a5.09,5.09,0,0,1,.5-.3c.39-.19-.28.09,0,0l.24-.08a3.82,3.82,0,0,1,.67-.15l-.44.06a4.66,4.66,0,0,1,1.18,0l-.44-.06a5.19,5.19,0,0,1,.94.24c.19.07-.38-.18-.13-.05l.22.11c.13.08.59.43.15.08a1.84,1.84,0,0,0,1.18.49,1.67,1.67,0,0,0,1.18-2.85,6.38,6.38,0,0,0-1.75-1,5.67,5.67,0,0,0-1.68-.31,5.81,5.81,0,0,0-3.31.84,5.7,5.7,0,0,0-2.39,6,5.23,5.23,0,0,0,1.5,2.75,5.56,5.56,0,0,0,3.32,1.41,5.53,5.53,0,0,0,4.31-9.63,1.74,1.74,0,0,0-1.18-.49,1.67,1.67,0,0,0-1.18,2.84Z"/><path class="cls-3" d="M93.39,52.49a7.38,7.38,0,0,0-8-1.18,7,7,0,0,0-3.69,4.83,18.7,18.7,0,0,0,2.64,14.47c1.85,2.84,4.8,5.41,8.42,4.94a1.73,1.73,0,0,0,1.66-1.67,1.67,1.67,0,0,0-1.66-1.66c-2.91.38-4.9-2-6.16-4.33a16.39,16.39,0,0,1-2-6.28c-.17-2.07-.17-4.66,1.1-6.42.17-.24,0,0,.17-.2a2.82,2.82,0,0,1,1.7-.94,3.85,3.85,0,0,1,3.48.8c1.59,1.42,4-.93,2.35-2.36Z"/><path class="cls-3" d="M159,54.85a3.89,3.89,0,0,1,3.47-.8,3.72,3.72,0,0,1,1.84,1.08c1.32,1.73,1.31,4.42,1.14,6.48-.33,4-3.14,11.26-8.15,10.61a1.67,1.67,0,0,0-1.66,1.67,1.7,1.7,0,0,0,1.66,1.66c5.88.77,9.46-5.71,10.88-10.47,1.22-4.11,1.28-10.58-2.68-13.31a7.34,7.34,0,0,0-8.85.72c-1.61,1.43.76,3.78,2.35,2.36Z"/><path class="cls-3" d="M155.63,71.54a20.52,20.52,0,0,1-1.06,3.85l-.54,1.5c-.05.14-.1.28-.14.42-.12.32,0,0,0,.06a34.12,34.12,0,0,1-2.23,4.12,40.8,40.8,0,0,1-8.7,10.27,16.25,16.25,0,0,1-6.57,3.42c-2.09.49-1.2,3.7.89,3.21,4.93-1.14,9.05-4.71,12.29-8.45a45.6,45.6,0,0,0,7-10.48,26.11,26.11,0,0,0,2.28-7,1.71,1.71,0,0,0-1.16-2,1.68,1.68,0,0,0-2.05,1.16Z"/><path class="cls-3" d="M90.87,72.3a38.56,38.56,0,0,0,8.94,17.14c4.24,4.87,9.66,8.71,16.15,9.67A1.71,1.71,0,0,0,118,98a1.68,1.68,0,0,0-1.16-2c-6-.89-10.77-4.32-14.68-8.82a35.06,35.06,0,0,1-8.09-15.67C93.63,69.32,90.42,70.2,90.87,72.3Z"/><path class="cls-3" d="M164.89,52.63a45.62,45.62,0,0,0,1.05-17.45,40.81,40.81,0,0,0-4.53-14.07,34.65,34.65,0,0,0-7.83-9.7,49.09,49.09,0,0,0-11.16-7.48,43.48,43.48,0,0,0-31.71-1.24A41.64,41.64,0,0,0,90.35,18.52C83.56,28.5,82,41.06,85,52.63c.54,2.07,3.75,1.19,3.22-.89a38.8,38.8,0,0,1,3.38-28.95A38.54,38.54,0,0,1,108.55,7.14a40.34,40.34,0,0,1,29.39-1.43,39.28,39.28,0,0,1,11.26,6.44,34.42,34.42,0,0,1,7.74,8A36.66,36.66,0,0,1,162.41,34a41.67,41.67,0,0,1-.74,17.71c-.51,2.09,2.7,3,3.22.89Z"/><path class="cls-3" d="M123.72,165.83a39.93,39.93,0,0,1,1.45,7,35.2,35.2,0,0,1,0,6.16,110.26,110.26,0,0,1-2.09,13.39c-.43,2.09,2.79,3,3.21.88A116.27,116.27,0,0,0,128.47,179a40,40,0,0,0-1.53-14.05,1.67,1.67,0,0,0-3.22.89Z"/><path class="cls-1" d="M94.4,210.64c7.51-2.9.59-12.77-2.39-16.91-3.64-5-12.94-5.29-17.52-5.34-4,0-10,.48-13.3,3.11-2.29,1.85-5.62,4.93-7.14,8.56a9.94,9.94,0,0,0-.4,1.16c-.63,2.11,2.14,7.68,3.3,11.21a53.75,53.75,0,0,0,2.88,8.13c1.56,3,7.23,9.65,10.51,4.81l1.32-1.69c3.59,2.83,7.8,4.1,9.3-1.8a5.43,5.43,0,0,0,6.15-1.48Z"/><path class="cls-3" d="M65.08,218.78a22.53,22.53,0,0,0,5.73,6.34c2.29,1.77,5.41,3.44,8.3,2.12A6.67,6.67,0,0,0,82.38,223a1.67,1.67,0,0,0-3.22-.89h0a4.13,4.13,0,0,1-.45,1.06,5.54,5.54,0,0,1-.33.51c.22-.3-.13.13-.18.19s-.5.37-.15.14c-.13.09-.28.16-.41.25s.28-.05-.14,0c-.11,0-.62.1-.13.06a5,5,0,0,1-1,0c.47,0-.08,0-.18-.05l-.51-.14-.51-.19c.38.15-.18-.09-.25-.13a10.33,10.33,0,0,1-1-.54,17.44,17.44,0,0,1-3.6-3c-.28-.29-.55-.6-.82-.9l-.37-.45c0-.06-.42-.53-.18-.22A16,16,0,0,1,68,217.1a1.67,1.67,0,0,0-2.88,1.68Z"/><path class="cls-3" d="M71.07,214.29c2,3,4.26,6.09,7.32,8.12A8.44,8.44,0,0,0,83.2,224a7.77,7.77,0,0,0,5.09-2.37c1.55-1.49-.81-3.84-2.36-2.36a5.72,5.72,0,0,1-1.67,1.17,3.15,3.15,0,0,1-1.49.22c-.09,0-.38,0-.14,0a4,4,0,0,1-.5-.1l-.5-.15-.26-.1a8.83,8.83,0,0,1-1.77-1.06A26.46,26.46,0,0,1,74,212.61a1.71,1.71,0,0,0-2.28-.6,1.68,1.68,0,0,0-.6,2.28Z"/><path class="cls-3" d="M68.9,224.54a2.35,2.35,0,0,1-1,.82,1.8,1.8,0,0,1-1.25-.12,8.35,8.35,0,0,1-3-2.2c-2.31-2.43-3.39-5.37-4.36-8.54-1-3.44-2.53-6.71-3.6-10.14a11,11,0,0,1-.48-1.94,4.61,4.61,0,0,1,0-.64c0-.3,0,.21,0,0s.12-.44.19-.65a14.57,14.57,0,0,1,3.08-4.8c2.29-2.55,4.75-4.59,8.12-5.44a34.41,34.41,0,0,1,9.33-.77c5.12.13,11.77.52,15,5.08a32.71,32.71,0,0,1,4.5,7.82,7.85,7.85,0,0,1,.58,3.65A3.11,3.11,0,0,1,94,209a1.71,1.71,0,0,0-1.16,2.05,1.67,1.67,0,0,0,2,1.17,7.18,7.18,0,0,0,3.83-3.07,7.26,7.26,0,0,0,.66-4.56c-.46-3.27-2.23-6.33-4-9.05A32.5,32.5,0,0,0,92.73,192a12,12,0,0,0-4.15-3,29.68,29.68,0,0,0-10.48-2.2,46.41,46.41,0,0,0-10.53.42,18.79,18.79,0,0,0-5.84,1.9,20.51,20.51,0,0,0-4.47,3.62c-2.68,2.65-5.9,6.49-5.23,10.52a27.93,27.93,0,0,0,1.74,5.43c.75,1.91,1.48,3.8,2.07,5.76,1.32,4.32,2.75,8.36,6.11,11.52a9.36,9.36,0,0,0,4.7,2.66,5.17,5.17,0,0,0,5.13-2.45,1.67,1.67,0,1,0-2.88-1.68Z"/><path class="cls-3" d="M90.1,209c.62,1.12,8.05,15,11.41,20.7a2.32,2.32,0,0,0,3.17.83l0,0h0a2.31,2.31,0,0,0,.87-3c-4.76-9.64-20.91-41.05-25.12-48.21-.84-1.45-1.71-1.48-2.61-1.05a29.15,29.15,0,0,0-2.79,1.55c-1,.65-1.32,1.42-.8,2.36,2.31,4.26,6,9.86,8.79,14.21,2.36,3.66,5,8.76,7,12.64"/><path class="cls-1" d="M91,210.53c1.85,2.57,3.16,5.17,5.19,7.52,1.75,2,3.72,3.87,3.75,5.24.06,3.13-2.27,3.93-4.92,2.25a43.69,43.69,0,0,1-5.56-4.28c-3.94-3.68-8-8.33-9-9"/><path class="cls-3" d="M89.52,211.37c1.92,2.7,3.5,5.62,5.69,8.13a20.17,20.17,0,0,1,2.84,3.41,1.77,1.77,0,0,1-.12,1.7.68.68,0,0,1-.62.12,3.9,3.9,0,0,1-1.5-.63c-.88-.55-1.72-1.17-2.55-1.79A58.35,58.35,0,0,1,86.5,216c-1.67-1.73-3.28-3.86-5.29-5.22-1.78-1.2-3.45,1.69-1.68,2.88.2.14-.09-.07-.11-.09l.19.17.47.43c.42.4.82.82,1.22,1.23,1.11,1.14,2.2,2.3,3.3,3.44a59,59,0,0,0,7.9,7c2,1.43,4.67,3.15,7.11,1.63a4.51,4.51,0,0,0,1.93-3.64,5.82,5.82,0,0,0-1.7-4.11c-1.26-1.57-2.71-3-3.86-4.62s-2.33-3.66-3.59-5.43a1.71,1.71,0,0,0-2.28-.59,1.68,1.68,0,0,0-.59,2.28Z"/><path class="cls-3" d="M117.63,127.41c1.19.88,2.34,1.82,3.53,2.7.61.46,1.24.91,1.88,1.33a5,5,0,0,0,2.33,1.11,4.78,4.78,0,0,0,2.24-1.05c.64-.41,1.27-.86,1.88-1.31,1.22-.91,2.41-1.87,3.63-2.78a1.71,1.71,0,0,0,.59-2.28,1.67,1.67,0,0,0-2.28-.6,56.5,56.5,0,0,1-6.9,4.92h1.69a57.39,57.39,0,0,1-6.91-4.92,1.68,1.68,0,0,0-2.28.6,1.72,1.72,0,0,0,.6,2.28Z"/><path class="cls-3" d="M135.81,27.28c-4.16,4.63-9.64,7.9-15,11a114.64,114.64,0,0,1-14.23,7.14c-3,1.22-6.16,2.28-9.27,3.33-2,.67-1.16,3.89.88,3.21,4.93-1.65,9.77-3.44,14.51-5.57,3-1.34,5.8-3,8.64-4.58,3.06-1.73,6.1-3.52,9-5.52a43.8,43.8,0,0,0,7.81-6.63c1.43-1.59-.91-3.95-2.35-2.35Z"/><path class="cls-3" d="M147.4,7.82a12.15,12.15,0,0,1,8.76-4.49,10.69,10.69,0,0,1,7.55,2.91,8.78,8.78,0,0,1,2.08,3A27.36,27.36,0,0,1,167,14.66,32.61,32.61,0,0,0,171,25.92a13.07,13.07,0,0,0,3.63,3.92,31.52,31.52,0,0,0,4.8,2.47l-.6-2.28A19.81,19.81,0,0,1,174,35.32a10.64,10.64,0,0,1-7,1.85c-2.14-.15-2.13,3.18,0,3.33a13.52,13.52,0,0,0,8.71-2.3,24,24,0,0,0,6.06-6.49,1.66,1.66,0,0,0-.59-2.28,36.84,36.84,0,0,1-4.44-2.23,9.36,9.36,0,0,1-3-3.21c-2.22-3.7-3.12-7.79-3.89-12a17,17,0,0,0-1.46-5.07,12,12,0,0,0-2.81-3.5A14.23,14.23,0,0,0,156.4,0,15.4,15.4,0,0,0,145,5.46c-1.42,1.6.93,4,2.36,2.36Z"/><path class="cls-3" d="M135.38,28.9c1.78,5.81,4.11,11.37,8,16.07,3.6,4.29,8.25,8.53,13.75,10.11,2.06.59,2.94-2.63.88-3.22-4.93-1.41-9.05-5.41-12.27-9.25-3.54-4.24-5.58-9.37-7.18-14.6-.63-2-3.85-1.17-3.22.89Z"/><path class="cls-3" d="M107,36.14a90.37,90.37,0,0,0,6.58,10.77,1.64,1.64,0,0,0,2,.56c.56-.25,1.21-.54,1.78-.81a1.64,1.64,0,0,0,.79-2.19h0c-1.29-2.73-4-8.16-5.41-10.94a2,2,0,0,0-2.52-.93c-.72.29-1.54.62-2.26.93a1.9,1.9,0,0,0-1,2.5A.61.61,0,0,0,107,36.14Z"/><path class="cls-3" d="M75,139.74c.36,6,.88,12.07,1.46,18.09.67,6.92,1.73,13.77,2.38,20.68.33,3.44.71,6.87,1,10.31.16,2.13,3.5,2.14,3.33,0-.25-3-.56-6-.86-9-.2-2-.35-4.07-.55-6.1-.14-1.42-.45-2.83-.65-4.24-1-6.92-1.56-13.91-2.12-20.87-.24-2.94-.47-5.89-.65-8.84-.12-2.13-3.46-2.14-3.33,0Z"/><path class="cls-3" d="M171.38,140.21c-.38,6.47-.94,12.94-1.58,19.39-.35,3.55-.72,7.11-1.22,10.65-.25,1.72-.56,3.42-.71,5.15q-.26,3-.55,5.95c-.41,4-.78,8-1.06,12-.15,2.14,3.18,2.14,3.33,0q.39-5.44.94-10.88c.36-3.51.62-7,1.14-10.51,1.1-7.42,1.75-14.91,2.36-22.38.26-3.13.5-6.27.69-9.41.13-2.14-3.21-2.14-3.33,0Z"/><path class="cls-3" d="M53.86,199.27c-3.17-1.14-5.83-3.83-7.94-6.39a26.54,26.54,0,0,1-5.3-9.88c-1.11-4.22.4-8.31,1.87-12.3A103.18,103.18,0,0,1,47,160.17c3.33-6.66,7-13.12,10.57-19.66,2.1-3.85,3.8-7.94,6.24-11.59A33.47,33.47,0,0,1,73,119.38c3.76-2.48,8.09-4.23,12.17-6.11q7.41-3.4,14.88-6.69a1.68,1.68,0,0,0,.6-2.28,1.72,1.72,0,0,0-2.28-.6q-6.86,3-13.66,6.14c-3.85,1.76-7.79,3.45-11.49,5.51a34.14,34.14,0,0,0-10.48,9.39c-3.06,4-5,8.55-7.43,13-3.56,6.66-7.33,13.2-10.74,19.93-1.78,3.51-3.35,7.08-4.77,10.74-1.7,4.39-3.53,9.17-2.75,13.93.73,4.45,3.14,8.63,5.88,12.14s5.94,6.55,10,8c2,.73,2.9-2.49.89-3.21Z"/><path class="cls-3" d="M151.84,107.69q6.48,3.18,13,6.33c3.59,1.74,7.39,3.24,10.8,5.31a31.24,31.24,0,0,1,9.3,8.62c2.85,4,4.88,8.7,6.84,13.21,2.3,5.26,4.86,10.42,7.28,15.63A175.81,175.81,0,0,1,206.79,175a22.76,22.76,0,0,1,1.22,5.83,16.39,16.39,0,0,1-1.45,7.62,55.72,55.72,0,0,1-6.66,12.13,1.69,1.69,0,0,0,.6,2.28,1.71,1.71,0,0,0,2.28-.6,56,56,0,0,0,6.16-11,24.53,24.53,0,0,0,2.28-6.93,21.68,21.68,0,0,0-.41-7.36,50.63,50.63,0,0,0-2.94-8.48c-1.42-3.44-2.93-6.83-4.47-10.21-2.68-5.87-5.52-11.66-8.18-17.54-1.79-4-3.52-8-5.67-11.76a35,35,0,0,0-9-10.37c-3.74-2.87-8-4.65-12.26-6.67-4.93-2.36-9.83-4.77-14.73-7.18-1.92-.94-3.61,1.93-1.68,2.88Z"/><path class="cls-1" d="M167,193.43c-.28.19-.57.4-.86.62-2.93,2.11-5.13,4-5.91,5.75a3.61,3.61,0,0,0,1.19,4.26l1.5.89c-1.18.86-2.32,1.72-3.44,2.69-2,1.71-3.3,3.7-2.82,5.26.8,2.53,3.39,2.3,4.6,1.61a21.76,21.76,0,0,0-1.85,1.61,3.84,3.84,0,0,0,.35,5.07c1.14.93,3.7.72,5.55-.48l2-1.43c-1.24,1.49-1.27,3.48.33,4.53s3.9.4,5-.13a73.66,73.66,0,0,0,6.71-4.18c.81-.51,2.29-1.4,3.73-2.29,1.25-1.37-.41.9-1.07,2.18a5.79,5.79,0,0,0-.52,1.67,2.56,2.56,0,0,0,.74,2.31c1.67,1.75,3.82-.38,6-1.75a27.3,27.3,0,0,0,5.12-3.82,19.88,19.88,0,0,0,5.51-9.76,13.11,13.11,0,0,0-.72-9.06,16.5,16.5,0,0,0-3.63-4.75c-2.1-1.59-6.77-2.89-9-3.12a43.67,43.67,0,0,0-9.63-.2C172.62,191.16,169.84,191.55,167,193.43Z"/><path class="cls-3" d="M176,206.11l0,0-1.68-2.88c-3.06,2.3-6.29,4.38-9.42,6.58-1,.7-2,1.41-3,2.15a16.5,16.5,0,0,0-4.08,3.54,5.63,5.63,0,0,0-.3,5.45,4.42,4.42,0,0,0,4.06,2.5c2.88.11,5-1.57,7.17-3.14a1.71,1.71,0,0,0,.59-2.28,1.68,1.68,0,0,0-2.28-.6c-1.33,1-2.66,2.19-4.29,2.57a3.52,3.52,0,0,1-1.58.06s-.49-.17-.34-.1-.2-.24,0,0c0,0-.2-.22-.09-.06a2.76,2.76,0,0,1-.28-.5,2.32,2.32,0,0,1,.81-2.68c3.41-3,7.4-5.46,11.12-8,1.2-.84,2.44-1.64,3.61-2.52a1.72,1.72,0,0,0,.6-2.28,1.68,1.68,0,0,0-2.28-.6l0,0a1.71,1.71,0,0,0-.59,2.28,1.68,1.68,0,0,0,2.28.6Z"/><path class="cls-3" d="M160.47,213.06c-.39.22.12,0-.16.09l-.39.11c-.13,0-.41.05-.12,0a3.75,3.75,0,0,1-.58,0c.3,0,0,0-.14,0l-.29-.09q.21.08.06,0a.68.68,0,0,1-.39-.39.91.91,0,0,1-.19-.73c0,.25.06-.25.07-.27a1.75,1.75,0,0,1,.17-.43,8.47,8.47,0,0,1,2-2.36c3.57-3.16,7.8-5.45,11.51-8.43a1.68,1.68,0,0,0,0-2.35,1.71,1.71,0,0,0-2.36,0c-1.67,1.34-3.52,2.46-5.26,3.69s-3.75,2.65-5.52,4.12c-1.59,1.32-3.29,3-3.78,5.06a4.54,4.54,0,0,0,2,4.93,5.18,5.18,0,0,0,5.06-.07c1.88-1,.2-3.9-1.69-2.88Z"/><path class="cls-3" d="M178.37,209.1c-2.87,2-5.75,4-8.58,6.1-2.27,1.68-5.32,3.58-5,6.83.4,3.72,4.54,4.51,7.54,3.55s5.42-3.12,8-4.72c2.37-1.48,4.82-2.85,7.11-4.46a1.72,1.72,0,0,0,.6-2.28,1.68,1.68,0,0,0-2.28-.6c-1.79,1.26-3.69,2.36-5.55,3.5-2,1.26-4,2.64-6.06,3.91a11.17,11.17,0,0,1-3.27,1.6c-.77.18-2.14.36-2.65-.44s.35-1.71.95-2.21c.83-.69,1.66-1.36,2.53-2,2.75-2,5.54-4,8.32-5.91a1.71,1.71,0,0,0,.6-2.28,1.68,1.68,0,0,0-2.28-.6Z"/><path class="cls-3" d="M162.3,202.62a1.94,1.94,0,0,1-.45-2.28,8.45,8.45,0,0,1,2.22-2.54c2.11-1.86,4.48-3.74,7.22-4.52a31.36,31.36,0,0,1,8.07-.88,36.14,36.14,0,0,1,7.27.56,20.19,20.19,0,0,1,6.48,2.32,11,11,0,0,1,4,5.51c1.68,5-.51,10.77-3.82,14.62-2.17,2.51-4.93,4.13-7.66,6-.6.4-2.21,1.73-2.5.3-.23-1.22,1.07-2.71,1.66-3.66,1.13-1.84-1.76-3.51-2.88-1.69a11.62,11.62,0,0,0-2.08,4.73,4.33,4.33,0,0,0,2.15,4.2c1.58.88,3.33.25,4.75-.63s3.09-2,4.6-3c5.48-3.76,9.6-10.21,9.68-17a15,15,0,0,0-3.46-9.53c-2-2.53-4.6-3.75-7.62-4.66a35.28,35.28,0,0,0-9-1.29,37.16,37.16,0,0,0-10.08.87,15.29,15.29,0,0,0-5.22,2.43,39.32,39.32,0,0,0-4.82,3.9,7.43,7.43,0,0,0-2.45,4.41,5.26,5.26,0,0,0,2.26,4.8c1.78,1.21,3.45-1.68,1.68-2.87Z"/><path class="cls-3" d="M91.59,194.87l28.58,0,32.07,0h15.24a1.67,1.67,0,0,0,0-3.34l-28.92,0-32,0h-15a1.67,1.67,0,0,0,0,3.34Z"/></g></g></svg>