<svg xmlns="http://www.w3.org/2000/svg" viewBox="0 0 250 290.4"><defs><style>.cls-1{fill:#5394cf;}.cls-2{fill:#fff;}.cls-3{fill:#211715;}.cls-4{fill:#7a7473;}</style></defs><g id="レイヤー_2" data-name="レイヤー 2"><g id="レイヤー_1-2" data-name="レイヤー 1"><path class="cls-1" d="M200,138.21c-2-7.53-5.74-11.13-12.81-14.36-7.93-3.62-17.06-6.79-24.18-10.55a37.26,37.26,0,0,0-6.37-5.09c-3.16,13.6-8.8,28.26-13.27,41.49q-4.65,13.76-9.28,27.51l-9.29-27.51c-4.46-13.22-10.1-27.9-13.27-41.49a38.22,38.22,0,0,0-6.44,5.17c-8.31,3.7-18.87,7.63-27.36,11.91a33.91,33.91,0,0,0-14.17,13.4c-1.83,3.21-3.56,6.68-5.25,9.9-3,5.77-9.81,20.91-12.9,28.57a70,70,0,0,0-4.48,13.67c-1.52,8.32,8.11,21.79,15.86,24.49L82.89,201.7c-2.11-3.18-3.9-5.73-5.36-7.58-3-3.71-4.28-4.22-2.07-8.75a90.77,90.77,0,0,1,6.72-10.43l.56-.58c.83,10,1.71,20.56,2.41,30.58,0,0,.08,1,.17,2.12,19.73,0,67.22,0,88.23,0a11.53,11.53,0,0,0,3.85,1.85c2.91.8,10.9.45,15-2.51,3.86-2.76,6.39-6,7.62-13C203,177.1,202.5,164,201.47,149.7A86.66,86.66,0,0,0,200,138.14"/><path class="cls-2" d="M135,226.22c-8.39-5.37-18.34-7-28.35-6.24s-22.51,1.87-30.42,5.88c-3,13.88-8.88,47.67-11.43,61.17,23.24-5.86,51.16-5.86,70.21,1.65,19.28-7.37,45.61-7.37,70.2-1.65-2.55-13.5-8.45-47.29-11.43-61.17-7.92-4-20.15-5.72-30-6.46S144.42,220.94,135,226.22Z"/><path class="cls-3" d="M135.89,224.72c-8.69-5.5-19.09-7.21-29.23-6.48-9.23.67-19,1.32-27.71,4.58-1,.34-1.88.74-2.8,1.16a2.81,2.81,0,0,0-1.41,1,4.66,4.66,0,0,0-.37,1.31c-.28,1.36-.56,2.73-.83,4.09q-1,5.07-2,10.15-2.25,11.94-4.39,23.89c-1.34,7.38-2.65,14.76-4,22.13a1.76,1.76,0,0,0,1.27,2.14,1.79,1.79,0,0,0,.86,0,138.46,138.46,0,0,1,27.69-4,121.51,121.51,0,0,1,26.87,1.58,82.62,82.62,0,0,1,12.1,3.11c.87.3,1.74.74,2.62,1,1,.27,2.43-.56,3.41-.9q3-1,6-1.77a108.63,108.63,0,0,1,27.42-3,152.87,152.87,0,0,1,33.35,4,1.76,1.76,0,0,0,2.14-2.14c-2.69-14.25-5.17-28.54-7.83-42.8q-1-5.35-2-10.71c-.3-1.53-.61-3.06-.92-4.59s-.32-3.49-1.71-4.23a48.4,48.4,0,0,0-12.82-4.18,127.29,127.29,0,0,0-14.41-2.1,51.67,51.67,0,0,0-33,6.77c-1.95,1.08-.2,4.08,1.75,3a50,50,0,0,1,23-6.69,81.66,81.66,0,0,1,11.48.73,109.17,109.17,0,0,1,11.35,1.88,49.3,49.3,0,0,1,11.22,3.73l-.8-1c3.54,16.52,6.32,33.21,9.34,49.83q1,5.67,2.09,11.33l2.13-2.13c-18.64-4.31-38.43-5.77-57.32-2.19a81.65,81.65,0,0,0-13.8,3.84h.93a91,91,0,0,0-26-5.52,138.43,138.43,0,0,0-29,.83,142.67,142.67,0,0,0-16.15,3l2.13,2.13c3.13-16.53,6-33.11,9.13-49.63.73-3.85,1.48-7.7,2.3-11.53l-.79,1c6.41-3.21,14-4.17,21-4.91,7.78-.81,15.67-1.54,23.39.14a39.18,39.18,0,0,1,12.61,5.12C136,228.91,137.77,225.91,135.89,224.72Z"/><path class="cls-3" d="M1.68,208.88q17.93,0,35.87,0h8.18a1.74,1.74,0,0,0,0-3.47q-18.27,0-36.53,0H1.68A1.74,1.74,0,0,0,1.68,208.88Z"/><path class="cls-3" d="M193.28,208.88h19.45l26.11,0h9.48a1.74,1.74,0,0,0,0-3.47H228l-25.86,0h-8.83a1.74,1.74,0,0,0,0,3.47Z"/><path class="cls-2" d="M235,63c-3.3,1.11-5.66,1.55-7.34,2.34a8.64,8.64,0,0,0-3.56,3,29.71,29.71,0,0,0-2,3.21c-.77,1.41-2.3,2.79-4.12,2.33-2.52-.64-3.65-1.48-3.85-3.42-.13-3.31,1.44-5.74,3.45-8.73,3.86-4.58,8-4.88,12.42-6.37a5.46,5.46,0,0,0,3.33-6.94,5.69,5.69,0,0,0-.4-.87,6.68,6.68,0,0,0-7.29-3c-2.11.49-3.12.81-6.75,4.05a4.22,4.22,0,0,1-3,.89c-3.55-.29-3.91-3.45-3.65-5,.45-4,3.34-6.41,7.42-8.41,7.48-3.66,19.58-.31,22.94,8.25C245.26,51.28,243.23,60.27,235,63Z"/><path class="cls-2" d="M217.47,87.28a4.75,4.75,0,0,1-5.57,1.14,4.65,4.65,0,0,1-2.18-2.79,4.94,4.94,0,0,1,.68-4.42,4.7,4.7,0,0,1,6-.85,4.86,4.86,0,0,1,1.14,6.78Z"/><path class="cls-3" d="M234.53,61.36A75.44,75.44,0,0,0,227,63.79c-2.68,1.21-4.4,3.49-5.86,6-.53.89-1.11,2.37-2.32,2.51a4,4,0,0,1-2.64-1,3.25,3.25,0,0,1-.22-2.38,11.5,11.5,0,0,1,1.66-4,13.49,13.49,0,0,1,6.15-5.66c2.24-1,4.68-1.38,7-2.25a7.29,7.29,0,0,0,4.06-9.48,7.19,7.19,0,0,0-1.44-2.26c-3-3.27-8.14-3.2-11.74-1a22.91,22.91,0,0,0-2.5,1.87c-1.07.89-1.88,1.87-3.41,1.61A2,2,0,0,1,214,46.5c0-.22-.1-.44-.16-.65a3.25,3.25,0,0,1,0-.54c0-.08.05-.77,0-.32.48-4.58,5.36-7.44,9.48-8.31a17.32,17.32,0,0,1,12.18,2.2,13.13,13.13,0,0,1,6.43,11.65,11.23,11.23,0,0,1-7.41,10.83c-2.1.73-1.19,4.09.92,3.35a14.42,14.42,0,0,0,9.63-11,17.2,17.2,0,0,0-3.46-14.18c-3.24-3.88-8.25-6-13.19-6.52a18.91,18.91,0,0,0-14.3,4.54c-3.35,2.87-5.82,9.5-1.42,12.64a6.14,6.14,0,0,0,4,1A7.28,7.28,0,0,0,221,49a16.7,16.7,0,0,1,2.77-2,3,3,0,0,1,.79-.36c.39-.13.77-.23,1.16-.33a5,5,0,0,1,5.62,2,3.8,3.8,0,0,1-1,5,12.05,12.05,0,0,1-3.6,1.26A36.52,36.52,0,0,0,223,55.81a16,16,0,0,0-7.45,5.9c-1.73,2.62-3.4,5.65-3.12,8.91.25,2.83,2.5,4.4,5.11,5A5.11,5.11,0,0,0,222,74.4a15.26,15.26,0,0,0,2.59-3.71,9.67,9.67,0,0,1,3.1-3.38,13.79,13.79,0,0,1,3.18-1.23c1.52-.44,3.05-.86,4.56-1.37C237.56,64,236.66,60.66,234.53,61.36Z"/><path class="cls-3" d="M216.25,86.05c-.09.09-.17.18-.26.26s-.25.17-.27.24.28-.19.12-.09l-.14.1a3.24,3.24,0,0,1-.35.21l-.31.16c-.17.08.15-.08.16-.06l-.21.07c-.23.08-.47.12-.7.18s.19,0,.19,0l-.17,0-.32,0h-.49a.86.86,0,1,0,.78.93.85.85,0,0,0-.63-.9A3.27,3.27,0,0,0,213,87c-.07,0-.23-.12-.29-.1s.32.16.17.07l-.19-.1a2,2,0,0,1-.32-.18.71.71,0,0,0-.14-.1c.22.06.21.18.08.06s-.32-.34-.48-.51.12.15.12.15-.07-.08-.09-.12l-.15-.24c-.09-.15-.17-.32-.25-.48s.14.39.06.15c0-.06-.05-.11-.07-.17a2.76,2.76,0,0,1-.08-.27,4.92,4.92,0,0,1-.14-.55,1.55,1.55,0,0,0,0-.21c0-.17,0,.31,0,.27s0-.08,0-.13,0-.39,0-.59a4.08,4.08,0,0,0,0-.61s-.07.38,0,.2a.9.9,0,0,0,0-.16c0-.13.06-.26.1-.38l.06-.16c.06-.2.09,0,0,.08a1.2,1.2,0,0,0,.16-.32,2.2,2.2,0,0,1,.21-.32s-.2.23-.08.1l.15-.16A2.39,2.39,0,0,1,212,82l.12-.11s-.29.21-.14.11a4.6,4.6,0,0,1,.6-.37.61.61,0,0,0,.14-.07c.17-.09-.16.07-.16.07l.3-.11a5.78,5.78,0,0,1,.69-.17c.19,0-.19,0-.19,0l.22,0h.82c.22,0-.36-.07-.14,0s.43.08.64.15c.06,0,.41.16.15,0s.12.07.19.11a2.61,2.61,0,0,1,.28.17l.13.09c.15.09-.15-.11-.15-.12.05.14.37.34.47.46l.14.16c.14.15-.19-.29-.09-.11s.14.2.2.3.12.21.17.32a.91.91,0,0,1,.07.14c.11.22-.06-.07-.05-.13a1.45,1.45,0,0,0,.12.35c0,.12.07.24.1.36s0,.24.07.36,0-.2,0-.2a.74.74,0,0,0,0,.21,6.09,6.09,0,0,1,0,.74c0,.06,0,.25,0,0s0,0,0,.09l-.09.36c0,.12-.08.24-.12.36-.09.27.16-.31,0,0a3.72,3.72,0,0,1-.19.34c-.07.1-.36.48-.06.11a1.92,1.92,0,0,0-.51,1.23A1.75,1.75,0,0,0,217.47,89a1.78,1.78,0,0,0,1.23-.51,6.62,6.62,0,0,0,1.51-3.94,6.83,6.83,0,0,0-1-3.69,6.31,6.31,0,0,0-7.07-2.76,6,6,0,0,0-4.44,6.22A6.88,6.88,0,0,0,210,89.18a6.41,6.41,0,0,0,8.72-.67,1.74,1.74,0,0,0-2.46-2.46h0Z"/><path class="cls-2" d="M168.93,57.23a5.62,5.62,0,0,1,4.09-1.5,5.25,5.25,0,0,1,4.72,2.62c1.6,2.78,1.53,7.9.45,11.06-.76,2.25-2,5.68-5,8.14a6.25,6.25,0,0,1-4.81,1.39l-.53-.09c-.47,1.64-1.16,3.36-1.41,4.14-1.14,3.08-7.17,13.53-15,18.35v3.36c-2.46,3.31-8.07,7.43-14.79,10.14a3.56,3.56,0,0,0-1.31.74h-2.95a3.48,3.48,0,0,0-1.31-.74c-6.72-2.71-12.33-6.83-14.78-10.14v-3.14a33.35,33.35,0,0,1-9.1-7.92,38.14,38.14,0,0,1-8-14.75,6.17,6.17,0,0,1-5-1.34c-3-2.46-4.26-5.9-5-8.14-1.07-3.17-1.14-8.29.46-11.06a5.25,5.25,0,0,1,4.71-2.62,5.62,5.62,0,0,1,4.09,1.5S92.1,20.56,133.76,20.56,168.93,57.23,168.93,57.23Z"/><path class="cls-4" d="M118.52,4.29A40,40,0,0,0,108.36,9.7,41.76,41.76,0,0,0,90.87,42.45,45.4,45.4,0,0,0,92.54,56a7.28,7.28,0,0,1,1.8-.29,5.62,5.62,0,0,1,4.09,1.5l5.26-4.08c4.26-4.75,11.79-11.92,17.07-14.69.62-.32,1.42.12,1.67,1.15a6.9,6.9,0,0,1,.16,2.48,1.29,1.29,0,0,0,1.84,1.39c3.77-2.09,10.49-6.31,15.25-8.32a14,14,0,0,1,7.62,1.18,22.68,22.68,0,0,1,6,3.85c4.26,3.67,8.35,8.71,10.16,13.26l5.5,3.78A5.66,5.66,0,0,1,173,55.74a7.07,7.07,0,0,1,1.65.24,43.78,43.78,0,0,0,1.62-13.52c-.7-16.53-9.13-26.79-17.27-32.6a42.19,42.19,0,0,0-25.44-8.11A43.88,43.88,0,0,0,118.52,4.29Z"/><path class="cls-3" d="M99.66,56a7.89,7.89,0,0,0-8.6-1.25,7.56,7.56,0,0,0-3.91,5.16A20.06,20.06,0,0,0,90.06,75.5c2,3,5.1,5.68,8.93,5.17a1.79,1.79,0,0,0,1.73-1.73c0-.84-.8-1.86-1.73-1.74-3.14.42-5.3-2.17-6.66-4.67a17.41,17.41,0,0,1-2.15-6.88c-.18-2.21-.16-5.09,1.27-6.93,1.15-1.47,4.13-1.72,5.75-.26s4.12-1,2.45-2.46Z"/><path class="cls-3" d="M170.16,58.45c1.62-1.45,4.61-1.2,5.74.27,1.44,1.84,1.45,4.72,1.28,6.93A17.47,17.47,0,0,1,175,72.52c-1.36,2.51-3.52,5.1-6.66,4.68a1.74,1.74,0,0,0-1.73,1.74,1.76,1.76,0,0,0,1.73,1.73c6.31.84,10.18-6.2,11.66-11.31,1.27-4.41,1.33-11.35-3-14.19a7.85,7.85,0,0,0-9.36.83c-1.66,1.49.8,3.94,2.46,2.45Z"/><path class="cls-3" d="M166.59,76.44a21.37,21.37,0,0,1-1.13,4.09c-.18.52-.38,1-.56,1.57-.07.17-.13.34-.19.52s-.18.43-.08.2-.09.21-.12.27-.15.31-.22.47l-.54,1c-.45.84-.94,1.67-1.44,2.49a44,44,0,0,1-9.38,11.09,17.75,17.75,0,0,1-7.06,3.66c-2.18.51-1.26,3.85.92,3.35,5.31-1.24,9.72-5.08,13.21-9.1a48.88,48.88,0,0,0,7.51-11.25,28.55,28.55,0,0,0,2.43-7.49,1.8,1.8,0,0,0-1.22-2.14,1.76,1.76,0,0,0-2.13,1.22Z"/><path class="cls-3" d="M97,77.22a41.31,41.31,0,0,0,9.57,18.36c4.54,5.23,10.36,9.36,17.34,10.4a1.8,1.8,0,0,0,2.14-1.22,1.76,1.76,0,0,0-1.22-2.13c-6.46-1-11.6-4.66-15.81-9.51a37.72,37.72,0,0,1-8.68-16.83c-.47-2.18-3.82-1.26-3.35.92Z"/><path class="cls-3" d="M158.05,7.1a46.21,46.21,0,0,0-42.77-3.38A44.22,44.22,0,0,0,91.35,30a46.11,46.11,0,0,0-.59,26.13c.56,2.16,3.9,1.25,3.35-.92A42.76,42.76,0,0,1,94,33.08a38.91,38.91,0,0,1,8-15.24A40.23,40.23,0,0,1,134.56,3.49a41.42,41.42,0,0,1,21.73,6.61c1.89,1.2,3.63-1.8,1.75-3Z"/><path class="cls-3" d="M176.43,56.09a48.45,48.45,0,0,0,.64-21.56,41.89,41.89,0,0,0-7.17-16.35,43.51,43.51,0,0,0-6-6.64c-1.65-1.49-4.12,1-2.45,2.46a40.22,40.22,0,0,1,13.15,29.61,45.12,45.12,0,0,1-1.51,11.56c-.54,2.17,2.81,3.09,3.35.92Z"/><path class="cls-3" d="M145.92,37.62a28.66,28.66,0,0,1,9.15,6.66,31.68,31.68,0,0,1,6.69,9.63,1.78,1.78,0,0,0,2.13,1.21A1.74,1.74,0,0,0,165.11,53a35.78,35.78,0,0,0-7.38-10.94,31.5,31.5,0,0,0-10.06-7.43,1.78,1.78,0,0,0-2.37.63,1.74,1.74,0,0,0,.62,2.37Z"/><path class="cls-3" d="M104.92,54.37A79.07,79.07,0,0,1,119.2,41.43c.54-.36,1.09-.71,1.65-1,.09,0,.54-.23.56-.33l-.73-.17,0,0c-.06.14.11.43.13.6.12.77-.09,1.54.06,2.3a3.09,3.09,0,0,0,1.34,2c1.52,1,2.9.2,4.27-.59l4.12-2.4a91.93,91.93,0,0,1,9.92-5.23,1.74,1.74,0,0,0,.62-2.37,1.8,1.8,0,0,0-2.38-.63,85.25,85.25,0,0,0-8.89,4.64l-4.29,2.5-1.65.94-.42.24c0-.67.79.18.76.21.12-.13.06-.74.06-.93,0-1.66-.44-3.73-2.16-4.41-1.54-.61-2.91.39-4.17,1.2a61.13,61.13,0,0,0-7.68,6,102.66,102.66,0,0,0-7.9,7.85c-1.49,1.66,1,4.12,2.45,2.46Z"/><path class="cls-3" d="M129.71,90.63c.06-.07.21-.15.25-.23-.11.22-.32.22-.08.08l.19-.13.46-.25.26-.12c-.4.2,0,0,.06,0a10.54,10.54,0,0,1,1.46-.41,7.78,7.78,0,0,1,1.73-.2,9.55,9.55,0,0,1,1.07,0l.5,0c.6.05-.14,0,.19,0a8.72,8.72,0,0,1,1.67.43l.2.08.17.08.56.29c.33.19.66.41,1,.63a1.74,1.74,0,0,0,1.76-3,11.51,11.51,0,0,0-7.31-2c-2.25.13-4.88.64-6.57,2.29a1.74,1.74,0,0,0,2.46,2.45Z"/><path class="cls-3" d="M133.86,73.69a32.11,32.11,0,0,1,.77,3.5l-.06-.47a2.68,2.68,0,0,1,0,.49l.06-.46a1.6,1.6,0,0,1,0,.21l.17-.41a1,1,0,0,1-.08.14l.28-.35-.12.11.35-.27-.27.14.41-.17a2.54,2.54,0,0,1-.47.14l.46-.07a1.55,1.55,0,0,1-.43,0l.46.07-.49-.09a2,2,0,0,0-1.34.17,1.74,1.74,0,0,0-.62,2.38,1.68,1.68,0,0,0,1,.8c.37,0,.73.14,1.11.16a3.59,3.59,0,0,0,1.63-.39,2.36,2.36,0,0,0,1.3-1.54,3.92,3.92,0,0,0,0-1.67c-.19-1.13-.45-2.24-.74-3.35a1.74,1.74,0,0,0-3.35.93Z"/><path class="cls-3" d="M145,66.19a5,5,0,0,1,2.26-4.49,3.88,3.88,0,0,1,5.13,1.93,3.94,3.94,0,0,1,.27.82c.84,2.59-.49,6-3.44,6.34C146.79,70.93,145,68.45,145,66.19Z"/><path class="cls-3" d="M115.18,66.2a5,5,0,0,1,2.25-4.49,3.88,3.88,0,0,1,5.4,2.76c.84,2.58-.49,6-3.44,6.33C117,70.94,115.14,68.47,115.18,66.2Z"/><path class="cls-3" d="M113.79,58.82a4.6,4.6,0,0,1,.47-.41l-.36.27a6.23,6.23,0,0,1,1.28-.73l-.42.17a7,7,0,0,1,1.73-.46l-.46.06.31,0a1.84,1.84,0,0,0,1.23-.51,1.74,1.74,0,0,0-1.23-3,9.41,9.41,0,0,0-2.71.65,7.27,7.27,0,0,0-2.29,1.5,1.73,1.73,0,0,0,1.22,3,1.86,1.86,0,0,0,1.23-.5Z"/><path class="cls-2" d="M135.38,115.58a3.56,3.56,0,0,1,1.31-.74c6.72-2.71,12.33-6.83,14.79-10.14a19.4,19.4,0,0,1,4.44,6.34c-3.25,12.78-8.42,26.35-12.58,38.66l-9.29,27.51-9.28-27.51c-4.2-12.43-9.43-26.15-12.68-39a18.52,18.52,0,0,1,4.25-6c2.46,3.31,8.07,7.43,14.79,10.14a3.77,3.77,0,0,1,1.31.73Z"/><path class="cls-2" d="M129.76,164.51q-2.06-6.1-4.12-12.19c1.31-10.73,3.11-23.85,3.11-24.22,0-.66-1.07-5.08-1.35-6.55l-.05-.16c.5-.52,1-1,1.48-1.57,1.93-2.12,3.07-3.07,3.3-3.44s.46-.5.29-.8h3c-.17.3.15.56.29.8s1.37,1.32,3.3,3.44c.49.53,1,1.07,1.51,1.6l-.2.81a47.14,47.14,0,0,0-1.51,6.09c0,.63,1.86,13,3.56,24.35q-4.14,12.27-8.29,24.54Z"/><path class="cls-2" d="M133.55,175.73l-7.91-23.41c1.31-10.73,3.11-23.84,3.11-24.21,0-.67-1.07-5.09-1.35-6.56,0,0,0,0-.05-.15.5-.52,1-1.05,1.48-1.58,1.93-2.12,3.07-3.07,3.3-3.44s.46-.5.3-.8l2.94,0c-.13.28.17.54.31.76.23.37,1.36,1.32,3.3,3.44.5.56,1,1.12,1.57,1.68l-.27.73a48,48,0,0,0-1.5,6.09c0,.63,1.86,13,3.55,24.35L134,177.22Z"/><path class="cls-3" d="M146.78,128a70.53,70.53,0,0,0,8.35-12.19c.57-1.07,1.11-2.16,1.62-3.25a4.88,4.88,0,0,0,.72-1.91,4.17,4.17,0,0,0-.71-1.79,20.36,20.36,0,0,0-4.06-5.43,1.78,1.78,0,0,0-2.5.06,1.66,1.66,0,0,0-.22.3A24.32,24.32,0,0,1,144.1,109a46.17,46.17,0,0,1-4.41,2.58,53.4,53.4,0,0,0-5,2.32c-2.94,1.92.67,4.67,2.08,6.15,2.52,2.64,5.16,5.22,7.52,8,1.45,1.71,3.89-.76,2.45-2.45-1.9-2.25-4-4.28-6-6.43-.87-.93-1.73-1.88-2.65-2.78l-.84-.84a3.08,3.08,0,0,1-.24-.27c.39.44,0-.08-.16-.29l.24.88,0-.29-.51,1.23a8.88,8.88,0,0,1,2.4-1.08c.83-.36,1.64-.75,2.44-1.16a45.24,45.24,0,0,0,4.83-2.88,28.2,28.2,0,0,0,6.7-6.1l-2.73.35a19.79,19.79,0,0,1,4,5.64v-1.75a69.88,69.88,0,0,1-9.91,15.77C142.9,127.29,145.34,129.75,146.78,128Z"/><path class="cls-3" d="M123.48,125.59a70.24,70.24,0,0,1-9.91-15.77v1.75a19.79,19.79,0,0,1,4-5.64l-2.72-.35a28.2,28.2,0,0,0,6.7,6.1,42.2,42.2,0,0,0,4.66,2.79c.85.44,1.72.86,2.6,1.25a8.81,8.81,0,0,1,2.41,1.08l-.51-1.23,0,.29L131,115c-.08.15-.61.77-.15.29l-.25.27-.75.75c-.94.94-1.84,1.9-2.74,2.87-2,2.15-4.14,4.18-6,6.43-1.44,1.69,1,4.16,2.46,2.45,2.32-2.74,4.92-5.27,7.39-7.88,1.41-1.49,5.19-4.33,2.2-6.28a50.87,50.87,0,0,0-4.79-2.23,46.49,46.49,0,0,1-4.43-2.58,24.13,24.13,0,0,1-6-5.24,1.77,1.77,0,0,0-2.44-.58,2,2,0,0,0-.29.22,20,20,0,0,0-4,5.29,5.54,5.54,0,0,0-.76,1.7,3.66,3.66,0,0,0,.61,2c.54,1.15,1.11,2.29,1.7,3.42A70.91,70.91,0,0,0,121,128C122.46,129.75,124.91,127.29,123.48,125.59Z"/><path class="cls-3" d="M129.21,129.74c3.09,0,6.18-.07,9.27-.07a1.74,1.74,0,1,0,0-3.47c-3.09,0-6.18.07-9.27.07a1.74,1.74,0,1,0,0,3.47Z"/><path class="cls-3" d="M125.72,122c.24,1.19.52,2.38.79,3.57.12.56.24,1.12.35,1.68l.15.74c.07.41,0-.32,0,.1-.1,1.35-.33,2.69-.51,4-.88,6.74-1.77,13.49-2.6,20.24a1.73,1.73,0,0,0,1.73,1.73,1.77,1.77,0,0,0,1.74-1.73c.84-6.83,1.74-13.65,2.63-20.48a25.75,25.75,0,0,0,.48-3.92,18.53,18.53,0,0,0-.63-3.32c-.26-1.19-.54-2.38-.78-3.58-.44-2.19-3.79-1.26-3.35.93Z"/><path class="cls-3" d="M143.85,151.08c-1-6.51-2-13-2.91-19.52-.07-.47-.13-.95-.2-1.43l-.09-.64c-.06-.45,0,.07,0-.22a6.47,6.47,0,0,1-.08-1.16c0-.11,0-.1,0,0,0-.14.05-.26.07-.4l.15-.67c.14-.59.3-1.17.46-1.75.25-.89.52-1.77.75-2.65.56-2.17-2.78-3.09-3.34-.93a45.87,45.87,0,0,0-1.53,6.11,17.53,17.53,0,0,0,.44,4.15c1,6.66,2,13.32,3,20a1.74,1.74,0,0,0,3.35-.92Z"/><path class="cls-3" d="M84.38,200.82c-1.7-2.55-3.42-5.09-5.3-7.51-.75-1-1.59-1.86-2.31-2.85a2.4,2.4,0,0,1-.66-1.87c.28-2.2,2-4.43,3.11-6.25,1.41-2.22,2.88-4.41,4.45-6.52a1.74,1.74,0,0,0-.63-2.37,1.77,1.77,0,0,0-2.37.62C79,176.3,77.46,178.62,76,181c-1.37,2.2-3,4.64-3.3,7.26s1.49,4.51,3,6.42a95.47,95.47,0,0,1,5.65,7.91c1.24,1.85,4.25.12,3-1.75Z"/><path class="cls-3" d="M53.41,190.81a43.72,43.72,0,0,1,14.73-1,1.75,1.75,0,0,0,1.73-1.74,1.77,1.77,0,0,0-1.73-1.73,46.29,46.29,0,0,0-15.65,1.11c-2.17.52-1.26,3.87.92,3.35Z"/><path class="cls-3" d="M98.21,208.8l59.59,0h15.74a1.74,1.74,0,0,0,0-3.47l-61.09,0H98.21A1.74,1.74,0,0,0,98.21,208.8Z"/><path class="cls-3" d="M102.22,112.74c-5.08,2.19-10.22,4.24-15.3,6.42-4.72,2-9.66,4-13.93,6.89a35.93,35.93,0,0,0-10.07,10.3,138.3,138.3,0,0,0-7,13c-3.62,7.23-6.89,14.67-10.06,22.11-1.77,4.16-3.56,8.34-5,12.63A34.17,34.17,0,0,0,39,191.72a15.85,15.85,0,0,0,.57,5.31,32.69,32.69,0,0,0,6.55,12.13c2.7,3.3,6.08,6.38,10.14,7.84,2.11.76,3-2.6.92-3.35-3.17-1.14-5.87-3.74-8-6.27a30.42,30.42,0,0,1-5.76-9.73,15.56,15.56,0,0,1-1-5,22.63,22.63,0,0,1,1.34-6.35c1.29-4.16,3-8.2,4.7-12.21,3.07-7.27,6.29-14.51,9.75-21.6,1.89-3.89,3.9-7.74,6-11.53a34.32,34.32,0,0,1,8.91-10.77c4.29-3.33,9.48-5.42,14.43-7.56,5.43-2.35,10.94-4.54,16.38-6.88a1.75,1.75,0,0,0,.62-2.38,1.78,1.78,0,0,0-2.37-.62Z"/><path class="cls-3" d="M79,149.42c1,14.27,2.29,28.52,3.42,42.78q.5,6.38,1,12.74c.15,2.22,3.63,2.24,3.47,0-1-14.81-2.37-29.6-3.54-44.4-.29-3.71-.56-7.41-.82-11.12-.15-2.22-3.63-2.24-3.47,0Z"/><path class="cls-3" d="M185.05,149.39q-.35,6.63-.79,13.26a1.74,1.74,0,1,0,3.47,0q.44-6.63.79-13.26a1.74,1.74,0,1,0-3.47,0Z"/><path class="cls-3" d="M151.23,162c-2,3.24-4,6.45-6,9.65a1.74,1.74,0,0,0,.62,2.37,1.76,1.76,0,0,0,2.37-.62c2.05-3.19,4.07-6.4,6-9.65a1.74,1.74,0,0,0-3-1.77v0Z"/><path class="cls-3" d="M135.73,177.68q4.76-14.13,9.53-28.25c2.93-8.63,6.08-17.18,8.84-25.87,1.56-4.91,3-9.86,4.18-14.88l-2.55,1a36.63,36.63,0,0,1,8.94,8c1.42,1.72,3.87-.75,2.45-2.46a39.59,39.59,0,0,0-9.63-8.53,1.75,1.75,0,0,0-2.39.66,1.8,1.8,0,0,0-.16.38,268.23,268.23,0,0,1-8.06,26.47q-4.59,13.25-9.09,26.52-2.7,8-5.41,16c-.71,2.13,2.64,3,3.35.93Z"/><path class="cls-3" d="M123,171.56a293.3,293.3,0,0,1-20.9-37.37,14.51,14.51,0,0,1-1.29-2.77c0-.11-.13-.28-.15-.11,0-.07.33-.34.42-.44l1-1c1.52-1.51,3.1-3,4.69-4.39a1.76,1.76,0,0,0,0-2.48,1.61,1.61,0,0,0-.32-.25l-2.92-1.61-1.47-.8-.73-.41c-.39-.27-.47-.28-.22-.05l.24.88c0,.16.27-.4.33-.5.16-.28.33-.55.51-.82.31-.46.63-.91,1-1.35a35.33,35.33,0,0,1,3-3.28,34.68,34.68,0,0,1,6.29-5.1l-2.55-1a268.23,268.23,0,0,0,8.06,26.47q4.59,13.25,9.09,26.52l5.4,16c.71,2.1,4.07,1.2,3.35-.93q-4.77-14.12-9.53-28.23c-2.93-8.63-6.08-17.19-8.84-25.87-1.57-4.92-3-9.87-4.19-14.89a1.75,1.75,0,0,0-2.16-1.21,2.2,2.2,0,0,0-.39.17,39.23,39.23,0,0,0-9.86,8.8c-1.07,1.35-3.38,3.82-2.86,5.71.34,1.24,1.72,1.75,2.74,2.31l4,2.22-.35-2.73c-1.49,1.35-3,2.71-4.4,4.11-1.26,1.24-3,2.6-2.62,4.58a10.85,10.85,0,0,0,1,2.57L99.63,137q1.29,2.7,2.61,5.39,5,10.14,10.83,19.88,3.34,5.58,6.94,11c1.23,1.86,4.24.12,3-1.75Z"/><path class="cls-3" d="M145.54,186.69l.4.37a1,1,0,0,1,.18.22s-.23-.35-.15-.19a1,1,0,0,0,.12.17c.09.15.16.32.25.47s-.13-.25-.1-.23a.56.56,0,0,1,0,.12,2.81,2.81,0,0,1,.1.31,1.31,1.31,0,0,1,.11.52s-.05-.5,0-.22a.62.62,0,0,0,0,.13c0,.11,0,.22,0,.32a2,2,0,0,1,0,.25s0,.08,0,.13c0,.27,0-.23,0-.22a1.38,1.38,0,0,1-.12.56l-.09.27a.28.28,0,0,1,0,.12s.19-.38.1-.23-.18.37-.29.54a1,1,0,0,1-.14.2s.27-.32.14-.19l-.11.13a1.37,1.37,0,0,1-.17.17l-.13.12c-.15.13.31-.23.14-.11s-.31.21-.48.3l-.28.14.21-.09-.17.06a5.26,5.26,0,0,1-.6.18s-.24,0-.26,0l.19,0h-.18a5.61,5.61,0,0,1-.58,0,1.08,1.08,0,0,1-.31,0s.43.07.24,0l-.22-.05a3.8,3.8,0,0,1-.55-.16l-.12-.05s.35.17.21.09l-.31-.16-.26-.17c-.23-.16.27.25.08,0s-.26-.29-.4-.43c.35.36.14.19,0,.05l-.15-.24-.11-.23c-.06-.12,0-.24.08.19l-.06-.15a3.34,3.34,0,0,1-.14-.52.72.72,0,0,1-.06-.29s0,.45,0,.26,0-.11,0-.16a2.91,2.91,0,0,1,0-.59,1.94,1.94,0,0,1,0-.24c0-.19,0,.28,0,.25a.65.65,0,0,1,0-.2,4.42,4.42,0,0,1,.14-.52c0-.08.16-.41,0-.11s0,0,.05-.09.2-.33.3-.5-.26.3-.07.09l.23-.25c.11-.11.41-.27,0,0l.26-.17.31-.17.13-.06c.26-.13-.33.11-.13.05a5.53,5.53,0,0,1,.66-.2l.13,0c.33-.06-.1,0-.14,0s.26,0,.31,0a5.9,5.9,0,0,1,.73,0c.17,0-.23,0-.23,0l.18,0,.35.08.35.11c.05,0,.21.09,0,0s0,0,0,0l.28.16c.11.07.49.36,0,0a1.84,1.84,0,0,0,1.23.51,1.73,1.73,0,0,0,1.74-1.73,1.76,1.76,0,0,0-.51-1.23,6.22,6.22,0,0,0-7.18-.51,6.06,6.06,0,0,0-2.53,6.34,5.47,5.47,0,0,0,1.59,2.93,5.86,5.86,0,0,0,3.53,1.5A5.89,5.89,0,0,0,148,184.25a1.92,1.92,0,0,0-1.23-.51,1.74,1.74,0,0,0-1.73,1.74,1.69,1.69,0,0,0,.51,1.22Z"/><path class="cls-3" d="M132.38,176.75a42.91,42.91,0,0,0-1.66,14.95,123.67,123.67,0,0,0,2.38,15.43c.44,2.19,3.79,1.26,3.35-.92a116.7,116.7,0,0,1-2.26-14.51,39.19,39.19,0,0,1,0-6.5,44,44,0,0,1,1.57-7.53,1.74,1.74,0,0,0-3.35-.92Z"/><path class="cls-2" d="M100.77,225.81c8.07-3.11.64-13.71-2.57-18.16-3.9-5.41-13.89-5.68-18.8-5.74-4.35,0-10.76.52-14.29,3.35-2.46,2-6,5.29-7.67,9.19a11.38,11.38,0,0,0-.43,1.24c-.68,2.27,2.3,8.26,3.54,12,1,2.94,1.67,6,3.09,8.73,1.68,3.23,7.77,10.37,11.3,5.18l1.42-1.82c3.84,3,8.37,4.4,10-1.93,2.14.82,4.4.57,6.6-1.6Z"/><path class="cls-3" d="M69.33,234.53a24.31,24.31,0,0,0,6.15,6.79c2.44,1.89,5.77,3.68,8.85,2.28a7.16,7.16,0,0,0,3.49-4.52,1.74,1.74,0,0,0-3.35-.92,4.89,4.89,0,0,1-.5,1.15,6.1,6.1,0,0,1-.34.54c.21-.3-.16.16-.21.21s-.53.4-.17.17l-.44.26c-.21.14.28,0-.16.06-.11,0-.66.1-.15.06a5.07,5.07,0,0,1-1,0c.49.05-.11,0-.2-.06a4.94,4.94,0,0,1-.55-.15l-.55-.2c.38.15-.21-.11-.27-.14a11.66,11.66,0,0,1-1-.59A18.7,18.7,0,0,1,75,236.19c-.3-.31-.6-.64-.88-1l-.41-.49-.19-.24a14.46,14.46,0,0,1-1.17-1.72,1.73,1.73,0,0,0-3,1.75Z"/><path class="cls-3" d="M75.77,229.7c2.15,3.23,4.57,6.53,7.84,8.71a8.93,8.93,0,0,0,5.14,1.64,8.26,8.26,0,0,0,5.43-2.53c1.61-1.55-.84-4-2.46-2.45a6,6,0,0,1-1.81,1.26,3.45,3.45,0,0,1-1.62.25,7,7,0,0,1-1.54-.39,9.79,9.79,0,0,1-1.89-1.14,28.35,28.35,0,0,1-6.09-7.1c-1.24-1.85-4.24-.11-3,1.75Z"/><path class="cls-3" d="M73.44,240.76a1.86,1.86,0,0,1-2.44.8,9,9,0,0,1-3.27-2.43c-2.46-2.59-3.62-5.71-4.65-9.09-1.12-3.7-2.71-7.22-3.87-10.9a12.76,12.76,0,0,1-.53-2.13,2.32,2.32,0,0,1,.19-1.47,15.57,15.57,0,0,1,3.21-5c2.41-2.72,5-5,8.61-5.92a35.94,35.94,0,0,1,10.13-.9c5.62.13,12.82.54,16.38,5.54a35.1,35.1,0,0,1,4.8,8.36,8.57,8.57,0,0,1,.63,3.91,3.45,3.45,0,0,1-2.32,2.65,1.79,1.79,0,0,0-1.21,2.14,1.74,1.74,0,0,0,2.13,1.21,7.59,7.59,0,0,0,4.13-3.34,8.07,8.07,0,0,0,.63-5c-.51-3.4-2.37-6.59-4.23-9.41a34.88,34.88,0,0,0-2.8-3.92,13.06,13.06,0,0,0-4.56-3.22,32.61,32.61,0,0,0-11.24-2.32,49.11,49.11,0,0,0-11.36.49,20,20,0,0,0-6.15,2,23.14,23.14,0,0,0-4.88,4c-2.86,2.87-6.18,6.92-5.42,11.24a30.56,30.56,0,0,0,1.87,5.74c.81,2.07,1.59,4.12,2.24,6.25a36.57,36.57,0,0,0,2.94,7.76,20,20,0,0,0,3.51,4.41,10.11,10.11,0,0,0,5,2.89,5.49,5.49,0,0,0,5.53-2.6,1.74,1.74,0,0,0-.62-2.37,1.77,1.77,0,0,0-2.38.62Z"/><path class="cls-2" d="M97.09,225.69c2,2.76,3.38,5.55,5.57,8.07,1.88,2.18,4,4.17,4,5.63.06,3.37-2.44,4.23-5.29,2.42a48.37,48.37,0,0,1-6-4.6c-4.23-4-8.57-9-9.71-9.68Z"/><path class="cls-3" d="M95.59,226.57c2.06,2.9,3.75,6,6.1,8.72a21.86,21.86,0,0,1,3,3.67,1.88,1.88,0,0,1-.14,1.9c-.5.4-1.63-.12-2.33-.55-1-.59-1.85-1.26-2.75-1.93a62.62,62.62,0,0,1-7.26-6.75c-1.79-1.86-3.52-4.14-5.67-5.6-1.86-1.25-3.6,1.76-1.76,3,.22.14-.08-.07-.1-.09l.21.18c.17.15.34.3.5.46.45.43.88.88,1.31,1.32,1.19,1.23,2.36,2.47,3.55,3.69a63.08,63.08,0,0,0,8.47,7.52c2.12,1.52,5,3.36,7.58,1.74A4.82,4.82,0,0,0,108.4,240c.13-1.73-.77-3.08-1.81-4.37-1.36-1.69-2.92-3.19-4.17-5s-2.49-3.93-3.84-5.83-4.3-.07-3,1.76Z"/><path class="cls-3" d="M164.78,116.15c7.51,3.58,15.48,6.17,22.93,9.88a21.69,21.69,0,0,1,6.85,5,19.27,19.27,0,0,1,3.73,7.64,1.74,1.74,0,0,0,3.35-.92,21.77,21.77,0,0,0-7.8-12.07,34.9,34.9,0,0,0-6.87-3.8c-3.25-1.45-6.55-2.79-9.85-4.14-3.55-1.46-7.11-2.92-10.58-4.58-2-1-3.77,2-1.76,3Z"/><path class="cls-2" d="M134.54,108.32a3.71,3.71,0,0,1,2.35-1.74c-1.89-3.23.38-5,3.43-7.16,1.57-1.1,3.71-2.24,5.08-2,6,.88,15.32,5.38,18.46,10.73,2.73,6.51,2,12.84,3.3,20.25.57,3.3,2.34,5.1,2.7,7.23a138.51,138.51,0,0,0-16,4.77,11.32,11.32,0,0,1-6.95-6.45,19.32,19.32,0,0,1-.69-6.89c-2,.06-3.79,0-5.82-.06s-2.64-1.39-2.89-2.84a4.26,4.26,0,0,1,.82-3.09l.38-.46c-1.36.13-2.7-1.47-3-3.09a3,3,0,0,1,1.52-3.31l-.22,0a3.73,3.73,0,0,1-2.93-3.23A4.19,4.19,0,0,1,134.54,108.32Z"/><path class="cls-3" d="M171.42,134.63c-.57-2-1.8-3.67-2.34-5.65a42.83,42.83,0,0,1-1-8c-.21-2.51-.41-5-.85-7.52-.41-2.27-.94-5-2.26-6.9-2.39-3.49-6.16-6-9.91-7.82a39.1,39.1,0,0,0-5.8-2.3c-1.92-.57-4-1.17-6-.54a18.53,18.53,0,0,0-6.78,4.3,5.6,5.6,0,0,0-1.37,6.7,1.75,1.75,0,0,0,2.38.62,1.77,1.77,0,0,0,.62-2.37c-.63-1.48.81-2.57,1.85-3.37,1.34-1,3.28-2.66,5.06-2.72a14.58,14.58,0,0,1,4.69,1.18,34.78,34.78,0,0,1,5,2.22,26.53,26.53,0,0,1,4.51,3,11.38,11.38,0,0,1,3.18,3.62c1.84,4,1.92,8.75,2.28,13a44.13,44.13,0,0,0,1.05,7.77c.55,2,1.78,3.69,2.35,5.65.63,2.14,4,1.23,3.35-.92Z"/><path class="cls-3" d="M146.52,102.78q-3.37.64-6.74,1.38c-2.05.44-4.41.65-5.95,2.23-2.77,2.85-1.48,8.79,2.75,9.43a1.79,1.79,0,0,0,2.14-1.21,1.75,1.75,0,0,0-1.22-2.14,3.17,3.17,0,0,1-.66-.16c.27.11-.09-.07-.16-.11-.3-.18.08.13-.13-.12-.05-.06-.42-.54-.22-.23-.08-.12-.16-.24-.23-.37s-.22-.49-.07-.1a7.66,7.66,0,0,1-.23-.82c.1.43,0,0,0-.12s0-.36,0-.54,0-.1,0,.09l.06-.3c0-.14.08-.28.13-.42-.13.36.07-.1.12-.18a.76.76,0,0,1,.12-.19c-.12.15-.12.15,0,0a3.47,3.47,0,0,1,.34-.32c-.26.21.2-.1.26-.13a3.46,3.46,0,0,1,.89-.3l1.43-.31,2.51-.55q2.88-.62,5.78-1.16a1.74,1.74,0,1,0-.92-3.35Z"/><path class="cls-3" d="M147.31,110.21c-2.05.42-4.11.76-6.16,1.15s-4.31.63-5.84,2.12a4.85,4.85,0,0,0-1.15,4.83,6.2,6.2,0,0,0,1.84,2.94,4.47,4.47,0,0,0,1.63.92,4.83,4.83,0,0,0,2.14,0l3.3-.5.85-.12s-.24,0,0,0l.45-.06,2.09-.24a1.79,1.79,0,0,0,1.74-1.73,1.75,1.75,0,0,0-1.74-1.74c-1.86.2-3.71.45-5.55.73l-1.3.2-.73.11-.19,0c.09,0,.06,0-.11,0l.16,0s-.27-.1-.1,0-.12-.07-.15-.09a1.64,1.64,0,0,1-.22-.14c.09.07.13.13,0-.07,0,0-.31-.36-.21-.22a4.61,4.61,0,0,1-.38-.65c.09.17,0-.11,0-.12l-.09-.27a1.14,1.14,0,0,0-.07-.32c-.07-.14.05.19,0,.22s0-.29,0-.36.05-.52,0-.24,0-.13.06-.2a1.72,1.72,0,0,1,.07-.21s-.17.26-.06.15a2.32,2.32,0,0,0,.22-.36c-.19.31,0,0,.16-.13s.21-.16,0,0,.09,0,.14-.08.49-.25.25-.15a8.35,8.35,0,0,1,1.21-.34c.88-.2,1.77-.38,2.66-.54,2-.39,4.05-.72,6.07-1.14a1.73,1.73,0,1,0-.93-3.34Z"/><path class="cls-2" d="M174.08,136.44c-.22-.55-.44-1.09-.68-1.58-7.69,1.37-20.09,5.28-24.57,7.68.43,1.34,1,3.76,1.6,5.56l.19.56c3.47-1.41,7.89-2.93,12.4-4.27s9.13-2.52,13-3.25C175.3,139.68,174.7,138,174.08,136.44Z"/><path class="cls-3" d="M136.89,120.15a5.83,5.83,0,0,0,.38,7.29,5.4,5.4,0,0,0,3.89,1.28c1.7.06,3.41.09,5.11,0L144.53,127a17.47,17.47,0,0,0,1.12,8.22,13,13,0,0,0,6.06,6.08c2,1,3.76-2,1.75-3a9.77,9.77,0,0,1-4.81-4.84A15.53,15.53,0,0,1,148,127a1.76,1.76,0,0,0-1.74-1.74q-1.78,0-3.57,0c-.79,0-2.12.19-2.83-.2-.93-.51-.68-2.27,0-3.19a1.74,1.74,0,0,0-.62-2.37,1.77,1.77,0,0,0-2.37.62Z"/><path class="cls-3" d="M177.26,139.79c-.81-1.93-1.49-3.91-2.36-5.81a1.76,1.76,0,0,0-2-.8,114.66,114.66,0,0,0-13.64,3.51A67.68,67.68,0,0,0,148,141a1.75,1.75,0,0,0-.8,2c.57,1.84,1,3.73,1.6,5.57.71,2.1,4.06,1.2,3.35-.93-.62-1.83-1-3.72-1.6-5.56l-.8,2a64.21,64.21,0,0,1,10.82-4.1,111.3,111.3,0,0,1,13.33-3.41l-2-.8c.75,1.63,1.32,3.33,2,5a1.8,1.8,0,0,0,2.14,1.22,1.75,1.75,0,0,0,1.21-2.14Z"/><path class="cls-3" d="M133.33,234c0,14.12-.15,28.24-.15,42.36a1.74,1.74,0,0,0,3.47,0c0-14.12.15-28.24.15-42.36A1.74,1.74,0,0,0,133.33,234Z"/><path class="cls-3" d="M192,173c-3.61-9.14-7.3-18.26-11.17-27.3-.8-1.86-1.6-3.72-2.47-5.56a1.78,1.78,0,0,0-2-.8,130.59,130.59,0,0,0-28.27,8.55,1.75,1.75,0,0,0-.8,2c3,11.08,5.92,22.26,9.65,33.12a85.8,85.8,0,0,0,6.73,15c2.51,4.32,5.66,8.71,10.07,11.27,3.22,1.86,6.92,2,10.54,1.55a19.47,19.47,0,0,0,12-5.45c3.54-3.59,4.86-8.32,5.66-13.17a144.39,144.39,0,0,0,1.87-18.57c.23-6.36,0-12.73-.37-19.08a118.91,118.91,0,0,0-1.89-16.83c-.45-2.19-3.8-1.26-3.35.92a100.22,100.22,0,0,1,1.63,13.7c.36,5.36.62,10.73.61,16.1a144.61,144.61,0,0,1-1,17.16c-.6,4.95-1,10.55-3.69,14.9a14.35,14.35,0,0,1-9,6.4c-3.22.76-7.09,1.17-10.09,0-3.79-1.53-6.84-5.51-9-9a75.24,75.24,0,0,1-6.69-14c-2.08-5.63-3.71-11.43-5.37-17.19s-3.34-11.84-4.94-17.78l-.8,2a119,119,0,0,1,13.21-4.66,131.58,131.58,0,0,1,14.24-3.53l-2-.8c3.88,8.24,7.17,16.78,10.57,25.22q1.37,3.4,2.71,6.81a1.79,1.79,0,0,0,2.14,1.21A1.74,1.74,0,0,0,192,173Z"/></g></g></svg>