<?xml version="1.0" encoding="UTF-8"?><svg xmlns="http://www.w3.org/2000/svg" viewBox="0 0 234 240.79"><defs><style>.d{fill:#fff;}.e{fill:#cfcfcf;}.f{fill:#211715;}.g{fill:#bd957a;}</style></defs><g id="a"/><g id="b"><g id="c"><g><path class="g" d="M97.28,23.7c4.56-4.24,17.56-17.22,23.13-21.81,42.64,0,85.36,0,88.6,0,5.57,4.58,18.59,17.63,22.93,21.81,0,11.95,.22,178.18,.22,178.4-13.88,0-122.03,0-134.86,0,0-.78-.05-183.55,0-178.26l-.02-.13Z"/><path class="f" d="M232.16,200.27H97.3l1.83,1.83V45.69c0-4.88,0-9.76,0-14.64,0-2.33,.05-4.67,.01-7,0-.28,.1-.69-.06,.16l-1.77,1.34h0l-1.77-1.34c0-.05-.07-.71-.06-.37,.02,1.01,.83,1.82,1.83,1.83,5.78,0,11.55,0,17.33,0,9.77,0,19.53-.02,29.29-.03,11.31-.01,22.62-.03,33.94-.04,10.42-.01,20.84-.02,31.25-.03,7.08,0,14.17-.01,21.25-.02h1.58l-1.83-1.83c0,2.55,0,5.09,0,7.64,0,4.88,0,9.76,.02,14.64,0,6.62,.02,13.24,.02,19.86,0,7.8,.02,15.61,.03,23.41,.01,8.33,.02,16.66,.03,24.98,0,8.29,.02,16.58,.03,24.87,.01,7.68,.02,15.37,.03,23.05l.03,19.27c0,4.6,.01,9.21,.02,13.81,0,2.19-.04,4.38,0,6.57v.29c0,2.36,3.66,2.36,3.66,0,0-1.51,0-3.02,0-4.53l-.02-12.21-.02-18.11c0-7.44-.02-14.88-.03-22.32-.01-8.19-.02-16.38-.03-24.57-.01-8.37-.02-16.75-.03-25.12l-.03-23.98c0-6.96-.02-13.91-.02-20.87,0-5.36-.01-10.71-.02-16.07,0-3.17,0-6.34,0-9.52v-1.11c-.01-1.01-.83-1.82-1.83-1.83-6.5,0-13,0-19.5,.01-10.14,0-20.27,.02-30.41,.03l-34,.04c-10.09,.01-20.18,.02-30.27,.03-6.4,0-12.81,0-19.21,0h-1.27l1.83,1.83c0-.2-.02-.4-.07-.6-.22-.79-.94-1.34-1.77-1.34h0c-.82,.02-1.53,.56-1.77,1.34-.32,1.66-.08,3.54-.08,5.21,0,4.31,0,8.61,0,12.92v93.88c0,8.05,0,16.1,0,24.16v35.24c0,2.37-.04,4.74,0,7.1v.36c.01,1.01,.83,1.82,1.83,1.83H232.15c2.37,0,2.37-3.66,.01-3.66Z"/><path class="f" d="M98.57,24.99c6.26-5.83,12.25-11.93,18.53-17.73,1.51-1.39,3.02-2.77,4.6-4.08l-1.3,.53h88.6l-1.3-.53c6.69,5.53,12.77,11.86,18.96,17.93,1.32,1.3,2.64,2.59,3.97,3.88,1.7,1.64,4.29-.95,2.59-2.59-6.66-6.42-13.14-13.06-20.01-19.27-1.17-1.05-2.79-3.02-4.42-3.08-.75-.02-1.5,0-2.24,0H122.69c-.9,0-2.16-.21-2.99,.15-.51,.28-.97,.63-1.38,1.04-7.21,6.16-13.82,13.02-20.67,19.57-.55,.53-1.11,1.06-1.67,1.58-1.73,1.61,.87,4.2,2.59,2.59h0Z"/><path class="d" d="M107.88,67.99c-16.06,4.38-87.84,24.08-103.84,28.45-1.62,.44-2.57,2.1-2.14,3.72,2.71,10.22,7.16,27.5,8.57,32.77,3.29,12.28,23.89,87.11,28.46,103.83,.44,1.62,2.11,2.58,3.73,2.14,16.63-4.45,88.47-23.65,104.39-27.91,1.63-.43,2.59-2.1,2.16-3.73v-.02c-4.65-17.02-25.43-92.56-28.95-105.69-1.1-4.12-6.26-22.72-8.64-31.41-.44-1.62-2.11-2.58-3.73-2.15h0Z"/><path class="f" d="M107.4,66.22c-6.3,1.72-12.59,3.44-18.88,5.17l-28.57,7.83-29.69,8.14c-7.54,2.06-15.07,4.13-22.61,6.19l-3.53,.96c-1.24,.26-2.34,.94-3.14,1.92-.98,1.38-1.24,3.15-.69,4.76,1.56,5.89,3.1,11.79,4.62,17.69,1.78,6.86,3.57,13.71,5.43,20.55,2.03,7.44,4.06,14.88,6.1,22.31,2.67,9.72,5.33,19.44,8,29.16,2.55,9.29,5.1,18.58,7.65,27.87,1,3.63,1.99,7.26,2.99,10.9,.69,2.52,1.3,5.08,2.07,7.57,.48,1.68,1.81,2.98,3.5,3.44,1.1,.21,2.23,.13,3.29-.23l3.71-.99,10.24-2.74,27.69-7.4,30.23-8.08,24.48-6.55,4.3-1.15c1.36-.26,2.7-.66,3.97-1.2,1.54-.84,2.52-2.44,2.56-4.2-.04-.85-.19-1.69-.47-2.49-.34-1.23-.67-2.46-1.01-3.69-2.07-7.55-4.14-15.09-6.21-22.64-2.67-9.73-5.34-19.45-8.01-29.18-2.57-9.37-5.14-18.74-7.71-28.11-1.74-6.36-3.47-12.72-5.2-19.08-2.22-8.21-4.5-16.39-6.75-24.59-.67-2.42-1.33-4.84-2-7.26-.35-1.28-.64-2.59-1.61-3.58-1.25-1.24-3.07-1.73-4.78-1.29-2.3,.52-1.33,4.06,.97,3.53,1.11-.25,1.44,.68,1.68,1.57,.3,1.1,.6,2.19,.9,3.29,.72,2.64,1.45,5.28,2.18,7.92,1.41,5.12,2.82,10.25,4.24,15.37,1.4,5.11,2.78,10.24,4.17,15.35,2.24,8.22,4.5,16.45,6.75,24.67,2.67,9.73,5.34,19.46,8.01,29.19,2.4,8.76,4.81,17.51,7.21,26.27,.89,3.24,1.78,6.48,2.66,9.72l.98,3.6c.15,.56,.47,1.24,.23,1.8-.28,.66-.99,.75-1.6,.92-6.43,1.72-12.87,3.44-19.3,5.16l-28.35,7.58-29.39,7.86-22.42,5.99-3.53,.94c-.65,.17-1.33,.39-1.85-.2-.3-.52-.49-1.09-.57-1.68-.74-2.72-1.49-5.44-2.24-8.16-2.24-8.17-4.49-16.34-6.73-24.51-2.66-9.69-5.32-19.37-7.98-29.06-2.38-8.66-4.75-17.31-7.12-25.97-1.42-5.2-2.86-10.39-4.24-15.6-2.8-10.57-5.68-21.15-8.29-31.77-.44-1.76,1.18-1.91,2.5-2.27l3.83-1.05,10.24-2.8c9.05-2.48,18.09-4.96,27.14-7.44l29.63-8.12c8.01-2.19,16.02-4.39,24.02-6.58,2.42-.66,4.83-1.32,7.25-1.98,2.27-.62,1.31-4.15-.97-3.53Z"/><path class="e" d="M106.41,124.04c-10.12,2.71-20.25,5.43-30.37,8.14-8.83,2.38-17.66,4.76-26.5,7.15-5.39,1.44-10.78,2.84-16.17,4.28-1.63,.45-2.58,2.13-2.13,3.75,.45,1.63,2.13,2.58,3.75,2.13,8.93-2.39,17.88-4.74,26.81-7.15,8.64-2.33,17.28-4.66,25.93-6.98l20.3-5.44c1.63-.45,2.58-2.13,2.13-3.75-.45-1.63-2.13-2.58-3.75-2.13h0Z"/><path class="e" d="M112.57,147.02c-10.12,2.71-20.25,5.43-30.37,8.14-8.83,2.38-17.66,4.76-26.5,7.14-5.39,1.44-10.78,2.84-16.17,4.28-1.63,.45-2.58,2.13-2.13,3.75,.45,1.63,2.13,2.58,3.75,2.13,8.93-2.39,17.88-4.74,26.81-7.15,8.64-2.33,17.28-4.66,25.93-6.98l20.3-5.44c1.63-.45,2.58-2.13,2.13-3.75-.45-1.63-2.13-2.58-3.75-2.13h0Z"/><path class="e" d="M118.72,170c-10.12,2.71-20.25,5.43-30.37,8.14-8.83,2.38-17.66,4.76-26.5,7.14-5.39,1.44-10.78,2.84-16.17,4.28-1.63,.45-2.58,2.13-2.13,3.75s2.13,2.58,3.75,2.13c8.93-2.39,17.88-4.74,26.81-7.15,8.64-2.33,17.28-4.66,25.93-6.98l20.3-5.44c1.63-.45,2.58-2.13,2.13-3.75-.45-1.63-2.13-2.58-3.75-2.13h0Z"/></g></g></g></svg>