<svg xmlns="http://www.w3.org/2000/svg" viewBox="0 0 219.98 130"><defs><style>.cls-1{fill:#fff;}</style></defs><g id="レイヤー_2" data-name="レイヤー 2"><g id="レイヤー_1-2" data-name="レイヤー 1"><path id="パス_563" data-name="パス 563" d="M43.43,109.48c-.14-1-.41-3.06-.72-5.08a4.8,4.8,0,0,0-.46-1.07,3.91,3.91,0,0,0-3.71-2.43,14.08,14.08,0,0,1-11-6.29A10.42,10.42,0,0,1,26,86.89c.38-2.53,1.1-5,1.56-7.52a9.43,9.43,0,0,0,.07-3.09,3.55,3.55,0,0,0-2.56-2.86c-2.66-1-5.37-.72-8.1-.47-3.67.33-7.25.24-10.6-1.63a10.94,10.94,0,0,1-6-8.85C.25,61.09.1,59.7,0,58.31a13.07,13.07,0,0,1,1.72-7A16.86,16.86,0,0,1,11.38,43a30.06,30.06,0,0,1,7.55-2.16c1.58-.14,3.2,0,4.78-.11a51.4,51.4,0,0,0,6.64-1,6.75,6.75,0,0,0,3-1.64c4.29-4.07,4.07-9.65-.2-13.23a16.57,16.57,0,0,1-3.42-3.67c-2.34-3.72-2.92-7.67-.39-11.54a14.42,14.42,0,0,1,5.88-4.95,7.57,7.57,0,0,1,5.23-.57,31.5,31.5,0,0,1,4.65,1.5,8,8,0,0,1,4.53,4.87c.66,1.76,1.39,3.5,2,5.28a11.31,11.31,0,0,0,3.86,5.42c1.2.93,2.81,1.33,4.2,2a4.16,4.16,0,0,0,3.17.29,6.06,6.06,0,0,0,2.19-1.15A32.58,32.58,0,0,0,68,19.34a14.53,14.53,0,0,0,3.16-6.74c.59-2.76,1.27-5.55,3.45-7.56,3.7-3.41,8-5.56,13.24-4.93a16,16,0,0,1,7.56,3.47c3.16,2.39,4.75,5.78,6.33,9.2a3.16,3.16,0,0,0,.76,1.08c1.36,1.15,2.74,2.27,4.13,3.38a3.49,3.49,0,0,0,2.6.78c4.81-.4,3.57-.05,6.87-3.06,4.07-3.7,9.8-4.82,14.11-2.46a25.45,25.45,0,0,1,5.41,4.17,14.21,14.21,0,0,0,7,3.72A4.45,4.45,0,0,0,147.18,19c2-2.16,3.85-4.46,5.9-6.56C158.67,6.75,165.5,5,173.23,6.94c5.3,1.32,7.76,5.28,8.85,10.23a30.7,30.7,0,0,1,.06,12.52,11,11,0,0,0,.1,5.92,7.27,7.27,0,0,0,2.6,3.72c2.66,2,5.72,2.41,8.8,3a24.81,24.81,0,0,0,8.42-.29,15.37,15.37,0,0,1,17.5,12.89v0c.5,3.72.72,7.41-.39,11.06a13.53,13.53,0,0,1-4.07,6.55,58.33,58.33,0,0,1-5,3.87A15.38,15.38,0,0,1,202,78.86a65.15,65.15,0,0,1-7.26-.12,10,10,0,0,0-4.38.38,20.81,20.81,0,0,1-3,.86c-4.54,1-6.73,6.88-5.5,10.29a9,9,0,0,0,3.25,4.3,23.1,23.1,0,0,1,4.37,3.58c2.61,3.12,3.69,6.77,1.82,10.57-1.47,3-3.67,5.52-7.1,6.55A11.27,11.27,0,0,1,171.44,110c-.85-1.65-1.75-3.27-2.68-4.88a11.5,11.5,0,0,0-4.1-4,3.74,3.74,0,0,0-2-.3,19.12,19.12,0,0,0-6.64,2c-3.22,1.39-4.28,4-4.74,7.07-.26,1.74-.39,3.5-.71,5.22a10.13,10.13,0,0,1-3.82,6.21c-2.4,1.91-4.94,3.6-8.1,4a9.88,9.88,0,0,1-3.07,0c-3.76-.7-7.2-2.11-9.8-5a16.26,16.26,0,0,1-3.47-5.27,7.64,7.64,0,0,0-3.74-4.07,3.69,3.69,0,0,0-.42-.17c-3.77-1.57-4.77-1.44-8.2,1.8a15.89,15.89,0,0,0-1.65,2,13.1,13.1,0,0,1-6.71,4.55c-4.31,1.33-7.92,0-11.09-2.92-1.19-1.1-2.34-2.27-3.62-3.26-2.79-2.16-5.5-1.87-7.85.73a14.71,14.71,0,0,0-1.35,1.69c-1.43,2.1-2.76,4.28-4.25,6.34-4.58,6.3-10.88,8.91-18.64,8.09-4.41-.47-7.3-3.13-9-6.93A25.85,25.85,0,0,1,43.43,109.48Z"/><path class="cls-1" d="M82.57,70.33c-.56,1.46-1,2.6-1.27,3.36a2.69,2.69,0,0,1-2.46,1.92,3,3,0,0,1-2.68-2c-1.38-3.16-4.89-12.09-6.21-16a.94.94,0,0,0-.79-.67A1.37,1.37,0,1,1,69,54.23h.09c.65,0,1.3.05,1.92.05s1.52,0,2.4-.05h.06A1.37,1.37,0,0,1,75,55.61,1.3,1.3,0,0,1,73.62,57c-.31.05-.42.19-.42.42s.28,1.44,5,14c.17.45.31.71.48.71s.74-.76,2.49-5.23c-1.36-3.5-2.8-7.2-3.56-9.26-.2-.51-.37-.65-.65-.68a1.19,1.19,0,0,1-1-1.33c0-.68.37-1.35,1.1-1.35h0l2.12,0c.45,0,.93,0,1.47,0h.06c.73,0,1.1.7,1.1,1.38a1.22,1.22,0,0,1-.85,1.3c-.23,0-.31.17-.31.31a61.9,61.9,0,0,0,1.89,6,62.24,62.24,0,0,0,1.9-6c0-.2-.12-.31-.34-.31a1.23,1.23,0,0,1-1.25-1.33,1.25,1.25,0,0,1,1.22-1.35h.08c.65,0,1.16.05,1.67.05s1.21,0,2.09-.05H88a1.19,1.19,0,0,1,1.18,1.32,1.27,1.27,0,0,1-1,1.36.62.62,0,0,0-.6.45c-1,2.71-2.4,6.3-3.64,9.49,1.89,4.92,2.23,5.17,2.4,5.17s.28-.23.42-.59c5-13.5,5.09-13.79,5.09-14a.52.52,0,0,0-.51-.5,1.23,1.23,0,0,1-1.22-1.36c0-.71.37-1.38,1.13-1.38h.06c.65,0,1.38.05,2.09.05.88,0,1.78,0,2.66-.05h0a1.22,1.22,0,0,1,1.13,1.35A1.24,1.24,0,0,1,96.05,57a.73.73,0,0,0-.77.45c-2,5.17-5.19,13.08-6.32,16.27a2.66,2.66,0,0,1-2.49,2,2.88,2.88,0,0,1-2.65-2Z"/><path class="cls-1" d="M99,68.6a7.1,7.1,0,1,1,14.2,0,7.1,7.1,0,1,1-14.2,0Zm11.35,0a4.26,4.26,0,1,0-4.24,4.52A4.22,4.22,0,0,0,110.3,68.6Z"/><path class="cls-1" d="M120.46,75.5h0c-.57,0-1.47,0-2.32,0-.59,0-1.16,0-1.5,0a1.28,1.28,0,0,1-1.52-1.33,1.34,1.34,0,0,1,1.41-1.39h.26c.25,0,.36-.08.36-.39.06-2.88.09-3.33.09-4.41,0-.56,0-1.3,0-2.68,0-.43-.14-.71-.65-.71h-.17a1.3,1.3,0,0,1-1.27-1.44,1.33,1.33,0,0,1,1.3-1.44c.34,0,.42,0,.71,0h.14a2.85,2.85,0,0,1,2.57,1.08c0,.05,0,.08.11.08s.14-.08.28-.2a5.65,5.65,0,0,1,3.17-1.13,1.46,1.46,0,0,1,1.49,1.5,1.32,1.32,0,0,1-1.41,1.36,3.45,3.45,0,0,0-3.5,2.93c0,.51,0,1.16,0,2s0,1.86,0,3.13c0,.31.2.31.48.31A1.33,1.33,0,0,1,122,74.11,1.39,1.39,0,0,1,120.46,75.5Z"/><path class="cls-1" d="M139.81,75.5c-.56,0-1.44,0-2.26,0-.59,0-1.13,0-1.47,0h-.14a1.26,1.26,0,0,1-1.36-1.25,1.41,1.41,0,0,1,.74-1.24c.11-.06.23-.08.23-.14a.14.14,0,0,0-.06-.14c-1.1-1.16-2.6-2.77-3.33-3.62a.88.88,0,0,0-.57-.14c-.73,0-.79,0-.79,2,0,.4,0,.85,0,1.47,0,.34.08.31.42.37a1.34,1.34,0,1,1,.09,2.66h-.06c-.57,0-1.47,0-2.32,0-.59,0-1.15,0-1.49,0a1.29,1.29,0,0,1-1.53-1.3,1.34,1.34,0,0,1,1.41-1.36h.23c.23,0,.42-.08.42-.37.06-2.85.09-6.44.09-9.68,0-1.79,0-3.48,0-4.89,0-.51-.17-.74-.76-.74a1.36,1.36,0,0,1-1.58-1.47A1.33,1.33,0,0,1,127,54.23h.09c.34,0,.62,0,.9,0,1.9,0,2.94,1,2.94,2.32,0,.79,0,1.75,0,2.8,0,3.1-.06,6.64-.06,6.64a.44.44,0,0,0,.45.39,1.57,1.57,0,0,0,.77-.23c.17-.11,2.45-2,2.45-2s-.11-.08-.19-.17a1.35,1.35,0,0,1-.45-1,1.26,1.26,0,0,1,1.38-1.27h.11c.54,0,1.25,0,1.92,0s1.36,0,1.84,0a1.32,1.32,0,1,1,.08,2.63h0a1.66,1.66,0,0,0-.82.2c-1.39,1-2.77,2-4.1,2.85-.14.09-.23.17-.23.26s.15.25.32.42c1.21,1.21,3.61,3.42,4.77,4.55a1.25,1.25,0,0,0,.68.25,1.27,1.27,0,0,1,1.41,1.27,1.37,1.37,0,0,1-1.44,1.39Z"/><path class="cls-1" d="M151.78,62.84c0,.48,0,.88,0,1.27a7.68,7.68,0,0,0,0,.82,1.22,1.22,0,0,1-1.33,1.27A1.29,1.29,0,0,1,149,65V64.9c0-1-1.66-1-1.78-1-1,0-1.52.57-1.52,1.19a1.57,1.57,0,0,0,1,1.3c.76.4,2,.93,2.85,1.38,1.95,1,2.77,2.49,2.77,3.85,0,2.14-2,4.12-4.8,4.15a5.17,5.17,0,0,1-2.29-.45.65.65,0,0,0-.23-.06.4.4,0,0,0-.22.08,1.6,1.6,0,0,1-1,.29,1.28,1.28,0,0,1-1.42-1.19v-.08c0-.4,0-.71,0-1s0-.77,0-1.25v-.08a1.27,1.27,0,0,1,1.39-1.24,1.32,1.32,0,0,1,1.41,1.32.53.53,0,0,0,.26.46,2.9,2.9,0,0,0,1.86.59c1.92,0,2.12-1.19,2.12-1.5,0-.79-.51-1.44-3.93-3A3.85,3.85,0,0,1,143,65.21c0-1.92,1.58-3.78,4.29-3.78a4.34,4.34,0,0,1,1.73.34.42.42,0,0,0,.19,0,.68.68,0,0,0,.37-.09,1.52,1.52,0,0,1,.79-.2,1.33,1.33,0,0,1,1.44,1.3Z"/></g></g></svg>