<?xml version="1.0" encoding="UTF-8"?><svg xmlns="http://www.w3.org/2000/svg" viewBox="0 0 984 180"><defs><style>.d{fill:#fff;}.e{fill:#4b4b4b;}</style></defs><g id="a"/><g id="b"><g id="c"><circle class="d" cx="90" cy="90" r="90"/><g><path class="e" d="M101.26,54.69c-10.35,0-18.74,8.39-18.74,18.74s8.39,18.74,18.74,18.74c10.35,0,18.74-8.39,18.74-18.74s-8.39-18.74-18.74-18.74Zm7.45,17.2h-5.13l-.55,.86v2.05h5.68v2.92h-5.68v4.4h-3.53v-4.4h-5.69v-2.91h5.69v-2.06l-.56-.86h-5.13v-2.49h3.53l-3-4.67h2.99l3.93,6.11,3.93-6.11h2.99l-3,4.67h3.53v2.49Z"/><path class="e" d="M90.44,39.09c0,3.58-6.81,6.48-15.22,6.48s-15.22-2.9-15.22-6.48,6.81-6.48,15.22-6.48,15.22,2.9,15.22,6.48Z"/><path class="e" d="M60,50.06c0,3.58,6.81,6.48,15.22,6.48s15.22-2.9,15.22-6.48v-1.61c0-.49-.25-.96-.66-1.23-.41-.27-.94-.32-1.39-.13,0,0-4.76,2.94-13.17,2.94s-13.16-2.94-13.16-2.94c-.46-.19-.98-.14-1.39,.13-.41,.27-.66,.74-.66,1.23v1.61Z"/><path class="e" d="M80.14,61.02c-1.24,2.09-2.17,4.37-2.73,6.79-.72,.05-1.45,.07-2.19,.07-8.4,0-15.21-2.9-15.21-6.49v-1.6c0-.49,.24-.96,.66-1.23,.41-.27,.93-.32,1.39-.13,0,0,4.76,2.94,13.16,2.94,1.82,0,3.46-.14,4.92-.35Z"/><path class="e" d="M77.43,79.13c-.72,.05-1.47,.07-2.21,.07-8.4,0-15.21-2.9-15.21-6.47v-1.61c0-.49,.24-.96,.66-1.23,.41-.27,.93-.32,1.39-.13,0,0,4.76,2.94,13.16,2.94,.53,0,1.05,0,1.55-.03-.02,.25-.02,.51-.02,.76,0,1.96,.23,3.87,.68,5.71Z"/><path class="e" d="M82.89,89.64c-2.25,.57-4.87,.89-7.68,.89-8.4,0-15.21-2.9-15.21-6.48v-1.61c0-.49,.24-.96,.66-1.23,.41-.27,.93-.32,1.39-.13,0,0,4.76,2.94,13.16,2.94,1.38,0,2.67-.08,3.85-.21,1,2.13,2.29,4.09,3.83,5.83Z"/></g><g><path d="M55.14,127.09v.04c0,1.19-.81,2.45-3.1,2.45-.72,0-2.3-.02-2.3-1.1,0-.41,.29-.81,.79-.81,.07,0,.16,.02,.25,.04,.49,.11,.9,.16,1.24,.16,.94,0,1.33-.41,1.33-1.13v-5.37c-2.36,.02-4.79,.04-6,.05h-.02c-.47,0-.72-.38-.72-.76s.25-.76,.72-.76c1.3-.02,4.09-.04,6.73-.05-.77-.56-1.89-1.13-2.61-1.42-.34-.13-.47-.36-.47-.61,0-.38,.36-.79,.86-.79,.43,0,1.71,.61,2.32,.94,.04-.02,2.67-1.41,2.67-1.78,0-.09-.07-.13-1.64-.13-1.71,0-4.41,.04-5.8,.09h-.05c-.58,0-.88-.38-.88-.76,0-.4,.31-.79,.92-.81,.85-.04,2.14-.04,3.47-.04,1.84,0,3.76,.02,4.74,.04,1.1,.02,1.67,.54,1.67,1.19,0,.36-.18,.76-.56,1.12-.49,.49-1.93,1.42-3.06,2,.04,.04,.07,.07,.11,.09,.2,.18,.27,.4,.27,.61,0,.09,0,.18-.04,.27,1.78,0,3.28,0,3.85,.02,.92,.02,1.53,.63,1.53,1.39,0,1.24-2.27,3.55-3.28,3.55-.58,0-1.01-.41-1.01-.85,0-.23,.14-.49,.47-.68,.4-.23,1.85-1.35,1.85-1.73,0-.11-.11-.18-.34-.18h-3.96v4.11l.02,1.62Z"/><path d="M67.7,116.11c-.54,.83-1.21,1.66-1.89,2.23-.2,.16-.41,.23-.63,.23-.47,0-.9-.36-.9-.76,0-.2,.09-.4,.31-.58,1.17-.99,1.93-2.03,2.57-3.42,.14-.29,.4-.41,.65-.41,.43,0,.88,.34,.88,.79,0,.13-.02,.25-.09,.38l-.07,.14h2.5c.49,0,.74,.34,.74,.68,0,.36-.25,.7-.74,.7h-3.33Zm7.11,10.73v2.23c0,.49-.41,.72-.81,.72s-.83-.23-.83-.72v-2.23h-2.65c-1.21,2.7-4.52,3.12-4.92,3.12-.54,0-.81-.43-.81-.83,0-.32,.18-.63,.52-.68,1.82-.25,2.86-.81,3.42-1.6l-3.67,.02c-.45,0-.67-.34-.67-.7s.22-.7,.67-.7l4.21,.02c.05-.29,.07-.61,.07-.94v-.07l-.54-.02c-1.26-.02-1.94-.61-1.98-1.4-.04-.7-.05-1.28-.05-1.82,0-.61,.02-1.21,.05-1.91,.04-.65,.56-1.33,1.94-1.35h.38s-.07-.05-.09-.09c-.27-.32-.56-.43-.88-.56-.23-.09-.34-.25-.34-.43,0-.31,.32-.65,.76-.65,.11,0,1.62,.32,1.62,1.1,0,.25-.16,.49-.38,.61h1.46c1.33,0,2.72,.02,4.12,.04h.14l-.02-.02c-.29-.32-.56-.45-.9-.58-.23-.09-.34-.25-.34-.43,0-.32,.34-.68,.79-.68,.25,0,1.62,.4,1.62,1.13,0,.31-.23,.59-.52,.7,.65,.22,1.06,.67,1.08,1.12,.05,.76,.07,1.31,.07,1.89s-.02,1.15-.07,1.93c-.04,.74-.79,1.4-1.94,1.42l-.52,.02v.99l4.18-.02c.45,0,.68,.34,.68,.7,0,.34-.23,.7-.68,.7l-4.18-.02Zm.86-6.01l-7.29-.02v.72l7.29,.02v-.72Zm-.04-1.12c-.02-.38-.27-.59-.86-.61-1.03-.02-2.23-.04-3.4-.04-.72,0-1.44,0-2.09,.02-.56,.02-.85,.32-.86,.63v.09l7.22,.02v-.11Zm0,2.84l-7.22-.02v.14c.04,.68,.41,.68,4.05,.68,.79,0,1.58-.02,2.32-.04,.47-.02,.81-.22,.85-.65v-.13Zm-2-6.45c-.4,.56-1.31,1.73-1.98,1.73-.45,0-.83-.34-.83-.72,0-.18,.09-.38,.31-.56,.97-.77,1.6-1.66,2.14-2.77,.13-.29,.38-.41,.65-.41,.41,0,.86,.32,.86,.76,0,.11-.04,.23-.11,.36-.05,.07-.09,.16-.14,.25l4.16-.02c.49,0,.74,.34,.74,.68,0,.36-.25,.7-.74,.7h-5.06Zm-.47,8.37h-2.16v.07c-.02,.31-.04,.63-.09,.92h2.25v-.99Z"/><path d="M94.88,121.71c0-2-1.57-3.71-4.18-3.71h-.04c.29,.13,.5,.4,.5,.76v.09c0,1.89-1.85,5.17-3.83,7.11-.45,.43-.92,.61-1.35,.61-1.28,0-2.43-1.44-2.43-3.4,0-3.26,3.21-6.57,7.26-6.57,3.64,0,5.91,2.41,5.91,5.22,0,.67-.13,1.35-.4,2.04-1.58,4-6.48,4.55-6.73,4.55-.63,0-1.03-.43-1.03-.88,0-.4,.31-.77,.99-.9,3.28-.54,5.33-2.56,5.33-4.92Zm-5.2-3.62c-2.25,.45-4.5,2.84-4.5,4.99,0,1.35,.9,1.51,.95,1.51,.11,0,.23-.04,.34-.14,.54-.49,2.79-3.15,2.86-5.58,0-.36,.14-.63,.34-.77Z"/><path d="M103.47,116.13c-.54,.79-1.21,1.57-1.87,2.14-.2,.16-.4,.23-.59,.23-.47,0-.88-.36-.88-.76,0-.2,.09-.4,.31-.58,1.17-1.01,1.94-2,2.59-3.4,.13-.29,.36-.4,.61-.4,.41,0,.88,.36,.88,.83,0,.02,0,.16-.2,.56h2.63c.49,0,.74,.34,.74,.68s-.25,.68-.74,.68h-3.48Zm6.28,0c-.38,.45-.83,.86-1.3,1.21,.29,.11,.52,.36,.52,.72v.31c.9,0,1.78,0,2.65,.02-.07-.04-.14-.09-.2-.18-.27-.4-.58-.58-.92-.76-.23-.13-.32-.31-.32-.47,0-.34,.34-.67,.79-.67,.34,0,1.73,.58,1.73,1.39,0,.31-.22,.58-.47,.7h.94c.97,.02,2.07,.47,2.11,1.58,.02,.2,.02,.41,.02,.65,0,.67-.07,1.24-.9,1.24-.43,0-.85-.23-.85-.7v-.04c0-1.33-.02-1.39-.97-1.41-1.44-.02-3.29-.04-5.1-.04-1.48,0-2.9,.02-4,.04-.97,.02-1.03,.31-1.04,.74v.7c0,.45-.43,.7-.86,.7-.81,0-.86-.56-.86-1.28,0-.83,0-2.18,1.93-2.2,.74-.02,1.49-.02,2.27-.02-.07-.04-.13-.09-.18-.18-.27-.4-.58-.58-.92-.76-.23-.13-.32-.31-.32-.47,0-.34,.34-.67,.79-.67,.65,0,1.73,.83,1.73,1.39,0,.29-.18,.56-.43,.68,.54,0,1.08-.02,1.64-.02v-.31c0-.2,.05-.36,.16-.49-.27-.13-.47-.38-.47-.65,0-.2,.09-.4,.34-.58,.99-.68,1.6-1.33,2.34-2.61,.14-.23,.34-.32,.56-.32,.41,0,.85,.36,.85,.81,0,.13-.04,.25-.13,.4l-.09,.14h4.3c.49,0,.74,.34,.74,.68s-.25,.68-.74,.68h-5.33Zm-4.83,9.22c5.53,0,5.98,0,6.68,.02,1.76,.04,1.89,.85,1.89,1.89,0,.92-.05,1.98-2.03,2.05-.94,.04-2.21,.07-3.46,.07-.97,0-1.93-.02-2.67-.05-1.03-.05-1.96-.47-2-1.64-.04-.86-.05-1.76-.05-2.67,0-1.03,.02-2.03,.05-2.99,.02-.67,.63-1.4,1.91-1.4,1.21-.02,2.43-.04,3.6-.04,3.28,0,3.83,.02,3.83,2.04,0,.86-.13,1.69-1.78,1.75-.86,.04-1.87,.04-2.84,.04-1.17,0-2.3,0-3.13-.02v.95Zm.02-2.25c.59,0,1.33,.02,2.07,.02,3.93,0,3.94,0,4.02-.4,.02-.07,.02-.13,.02-.2q0-.63-2.12-.63c-1.15,0-2.39,.02-3.28,.02-.49,0-.68,.27-.68,.59l-.02,.59Zm6.81,4c0-.18-.16-.38-.54-.4-.95-.04-2.54-.05-4-.05-.85,0-1.64,.02-2.27,.02,0,.23,0,.47,.02,.7,.04,.67,.47,.67,3.38,.67,3.1,0,3.37-.02,3.4-.54v-.4Z"/><path d="M120.53,120.81h-1.37c-.5,0-.74-.36-.74-.72,0-.4,.27-.79,.74-.79h1.37v-2.75h-1.64c-.5,0-.74-.36-.74-.72,0-.4,.27-.79,.74-.79h4.81c.47,0,.7,.38,.7,.76s-.23,.76-.7,.76h-1.58v2.75h1.26c.47,0,.7,.38,.7,.76s-.23,.76-.7,.76h-1.26v3.02c.47-.18,.92-.38,1.35-.58,.14-.07,.27-.09,.41-.09,.43,0,.76,.34,.76,.72,0,.25-.16,.54-.56,.72-1.69,.77-4.66,1.94-5.33,1.94-.52,0-.79-.41-.79-.83,0-.34,.2-.68,.61-.79,.67-.18,1.31-.36,1.96-.56v-3.56Zm3.02,8.05c-.52,0-.76-.34-.76-.68,0-.38,.27-.76,.76-.76h4.52v-1.76h-2.72c-.52,0-.77-.34-.77-.68,0-.36,.27-.74,.77-.74h2.72v-1.76c-.5,0-.99-.02-1.46-.04-1.26-.05-1.87-.76-1.91-1.75-.02-.74-.04-1.55-.04-2.36s.02-1.62,.04-2.34c.04-.81,.56-1.64,1.93-1.69,.72-.04,1.48-.04,2.27-.04s1.58,0,2.38,.04c1.21,.04,1.91,.81,1.94,1.67,.04,.81,.05,1.66,.05,2.5,0,.72-.02,1.48-.05,2.2-.05,.94-.79,1.71-1.94,1.76-.52,.02-1.04,.04-1.57,.04v1.76h2.86c.5,0,.74,.36,.74,.7,0,.36-.23,.72-.74,.72h-2.86v1.76h3.87c.49,0,.72,.36,.72,.72s-.23,.72-.72,.72h-10.03Zm4.52-13.27c-.36,0-.7,0-1.01,.02-.79,.02-.83,.41-.83,2.04h1.84v-2.05Zm0,3.37h-1.84c0,.47,.02,.95,.04,1.42,.04,.72,.58,.72,1.8,.72v-2.14Zm3.56-1.31c0-.45,0-.9-.02-1.33-.04-.74-.45-.74-1.91-.74v2.07h1.93Zm-1.93,1.31v2.14c.38,0,.77,0,1.13-.02,.77-.04,.81-.29,.81-2.12h-1.94Z"/></g><circle class="d" cx="291" cy="90" r="90"/><g><path d="M233.98,116.22c-.02,.54-.2,1.37-.31,2.25-.13,.97-.18,1.85-.18,2.65,0,2.21,.41,3.75,.83,4.88,.05,.14,.07,.29,.07,.41,0,.56-.45,.92-.94,.92-.36,0-.74-.2-.94-.7-.54-1.33-.7-3.08-.7-4.74,0-1.26,.09-2.48,.16-3.42,.07-.97,.16-1.58,.22-2.32,.04-.52,.47-.77,.88-.77,.45,0,.9,.29,.9,.83v.02Zm5.62,3.53c-1.69,.32-2.54,.47-2.99,.47-.61,0-.95-.45-.95-.88,0-.4,.31-.79,.95-.79,1.12,0,1.53-.02,3.21-.42-.04-1.03-.09-1.78-.14-2.23,0-.05-.02-.11-.02-.14,0-.56,.41-.81,.86-.81,.49,0,.99,.31,1.03,.83,.02,.2,.02,.41,.02,.68,0,.36,0,.81-.02,1.33,.74-.16,1.04-.2,1.26-.2,.61,0,.9,.36,.9,.74,0,.41-.32,.85-.94,.92-.4,.05-.81,.11-1.22,.18,0,.61,.02,1.28,.05,2.05,.02,.2,.02,.4,.02,.58,0,3.55-1.58,6.16-4.79,7.67-.16,.07-.32,.11-.47,.11-.52,0-.92-.43-.92-.88,0-.29,.16-.58,.58-.76,2.65-1.12,3.89-3.38,3.89-6.45,0-.23-.04-1.37-.05-2.05l-.25,.05Z"/><path d="M248.84,123.87c-.54,0-1.01-.45-1.01-.92,0-.34,.23-.67,.85-.86,.77-.23,1.53-.63,2.3-1.12-.76-1.04-.94-1.48-.94-1.95,0-.63,.4-1.13,1.1-1.33,.32-.09,.9-.18,1.24-.27,.2-.05,.29-.16,.29-.32,0-.13,0-.38-.72-.68-.4-.16-.56-.41-.56-.68,0-.36,.32-.7,.83-.7,.7,0,2.32,1.04,2.32,2.21s-1.57,1.49-2.25,1.6c-.25,.04-.47,.13-.47,.34s.22,.52,.49,.92c.72-.5,1.49-1.04,2.32-1.6,1.4-.94,3.13-1.71,4.68-1.71,.97,0,3.04,.45,3.04,2.36,0,1.57-1.4,3.98-5.26,3.98-1.24,0-2.27-.09-2.27-1.01,0-.45,.32-.88,.92-.88,.11,0,.22,.02,.32,.04,.32,.07,.7,.11,1.1,.11,2.48,0,3.37-1.31,3.37-2.11,0-.94-1.26-.94-1.35-.94-1.69,0-3.22,1.1-5.96,3.06,.45,.63,.97,1.3,1.48,2,1.26,1.73,2.83,3.92,2.83,4.9,0,.61-.43,.97-.88,.97-.38,0-.77-.25-.97-.85-.58-1.78-2.81-4.86-3.75-6.14-1.28,.85-2.57,1.58-3.1,1.58Z"/><path d="M276.75,122.54c.2,.65,.47,1.19,.67,1.66,.13,.32,.23,.63,.23,.92,0,.47-.25,1.01-1.01,1.01-.25,0-.52-.05-.81-.14-.5-.16-1.94-.49-3.17-.49-1.31,0-2.16,.5-2.16,.97,0,.43,.79,1.19,2.81,1.19,.32,0,.63-.02,.88-.05,.07-.02,.14-.02,.22-.02,.63,0,.94,.4,.94,.81,0,.79-.76,1.03-1.33,1.03-2.86,0-5.24-1.28-5.24-2.84,0-.67,.65-2.5,4.1-2.5,.74,0,1.42,.05,1.94,.09,.13,0,.23,.02,.34,.02,.2,0,.38,0,.38-.27,0-.04,0-.11-.4-1.37-.4,.05-.77,.07-1.17,.07-.34,0-3.78-.04-3.78-2.03,0-.49,.23-.99,.7-1.35,.13-.09,.18-.18,.18-.29,0-.36-1.08-.97-1.96-1.15-.59-.11-.86-.47-.86-.81,0-.38,.36-.77,.94-.77,1.13,0,3.89,1.62,3.89,2.7,0,.43-.36,.74-.77,.95-.32,.16-.47,.32-.47,.47,0,.31,1.03,.67,2.07,.67,.23,0,.49-.02,.72-.05-.65-1.85-1.48-3.76-2.56-5.47-.13-.2-.18-.36-.18-.52,0-.45,.45-.72,.92-.72,.38,0,.77,.18,.99,.61,.86,1.78,1.64,3.78,2.3,5.73,.29-.09,.58-.2,.86-.29,.13-.04,.23-.05,.34-.05,.49,0,.76,.4,.76,.83,0,.7-.5,.9-1.4,1.19l.09,.31Z"/><path d="M291.96,124.03v1.48l.02,1.53v.04c0,1.08-.86,2.27-2.77,2.27-1.26,0-1.76-.36-1.76-.99,0-.4,.27-.77,.72-.77,.07,0,.14,0,.22,.02,.23,.05,.5,.09,.74,.09,.63,0,1.19-.23,1.19-.99v-2.67l-3.76-.02c-.49,0-.74-.38-.74-.74,0-.07,0-.14,.02-.2-.72,.45-1.64,.88-2,.88-.47,0-.83-.4-.83-.79,0-.29,.18-.58,.63-.72,1.01-.34,1.94-.94,2.75-1.66-.31-.18-.59-.29-.9-.38-.32-.11-.45-.34-.45-.59,0-.4,.32-.81,.77-.81,.38,0,1.04,.38,1.58,.76,.23-.27,.45-.54,.65-.81-.34-.22-.65-.32-.97-.43-.32-.11-.45-.34-.45-.59,0-.38,.32-.79,.76-.79,.27,0,.86,.23,1.46,.63,.23-.43,.56-1.06,.56-1.21,0-.16-.2-.22-.32-.22-.4,0-1.19,.02-1.84,.04-.36,.52-2.3,3.22-3.35,3.22-.45,0-.81-.32-.81-.72,0-.25,.14-.52,.49-.77,1.33-.97,2.38-2.3,3.12-3.87,.16-.36,.43-.5,.7-.5,.41,0,.83,.34,.83,.81,0,.13-.04,.27-.13,.43l-.07,.14c.67-.02,1.39-.04,1.75-.04,.56,0,.94,.16,1.15,.4,0-.05-.02-.09-.02-.14,0-.45,.41-.76,.79-.76,.27,0,.52,.14,.65,.43,.52,1.13,1.15,2.29,2.02,3.31,.25-.29,1.44-1.67,1.44-1.91,0-.16-.22-.22-.4-.22l-1.62,.02h-.02c-.49,0-.74-.34-.74-.68,0-.72,.67-.72,1.28-.72,.72,0,1.66,.02,2.02,.02,1.1,0,1.58,.54,1.58,1.17,0,.31-.13,.65-.36,.95-.25,.31-1.4,1.67-2.16,2.47,.81,.76,1.78,1.42,2.95,1.98,.38,.18,.54,.49,.54,.77,0,.47-.4,.92-.97,.92-1.22,0-4.9-3.26-6.72-6.95v.09c0,.79-1.17,2.65-2.02,3.76h4.29c.47,0,.68,.34,.68,.68s-.22,.7-.68,.7h-4.45c-.34,0-.56-.2-.65-.43-.52,.58-1.12,1.12-1.75,1.6h9.58c.47,0,.7,.36,.7,.72s-.23,.74-.7,.74l-4.21,.02Zm-7.27,4.56c-.52,0-.9-.45-.9-.88,0-.29,.18-.58,.58-.72,1.12-.4,2.11-1.1,2.86-2.04,.16-.2,.36-.29,.56-.29,.43,0,.86,.41,.86,.86,0,.16-.07,.32-.2,.49-.79,.94-2.95,2.58-3.76,2.58Zm11.54-.43c-.67-.81-1.82-1.48-2.83-1.98-.31-.14-.43-.4-.43-.65,0-.4,.32-.77,.77-.77,.49,0,2.74,1.13,3.71,2.12,.22,.22,.31,.47,.31,.7,0,.49-.41,.92-.88,.92-.22,0-.45-.11-.65-.34Z"/><path d="M313.88,121.71c0-2-1.57-3.71-4.18-3.71h-.04c.29,.13,.5,.4,.5,.76v.09c0,1.89-1.85,5.17-3.83,7.11-.45,.43-.92,.61-1.35,.61-1.28,0-2.43-1.44-2.43-3.4,0-3.26,3.21-6.57,7.26-6.57,3.64,0,5.91,2.41,5.91,5.22,0,.67-.13,1.35-.4,2.04-1.58,4-6.48,4.55-6.73,4.55-.63,0-1.03-.43-1.03-.88,0-.4,.31-.77,.99-.9,3.28-.54,5.33-2.56,5.33-4.92Zm-5.2-3.62c-2.25,.45-4.5,2.84-4.5,4.99,0,1.35,.9,1.51,.95,1.51,.11,0,.23-.04,.34-.14,.54-.49,2.79-3.15,2.86-5.58,0-.36,.14-.63,.34-.77Z"/><path d="M333.81,121.64c-.2,0-.41-.05-.63-.2-1.66-1.12-4.03-3.42-5.62-5.29-.2-.23-.36-.34-.52-.34-.18,0-.32,.11-.5,.34-1.44,1.91-3.93,4.39-5.64,5.73-.29,.23-.58,.32-.85,.32-.58,0-1.01-.47-1.01-.95,0-.29,.14-.58,.5-.79,1.98-1.21,4.38-3.75,5.71-5.55,.43-.58,1.03-.88,1.64-.88s1.24,.29,1.76,.88c1.71,1.91,3.75,3.67,5.87,4.95,.29,.18,.41,.43,.41,.68,0,.54-.52,1.1-1.13,1.1Zm-13.23,7.18c-.58,0-.86-.41-.86-.81s.29-.81,.86-.81h1.84v-4.66c0-.58,.45-.86,.9-.86s.88,.29,.88,.86v4.66h2.03v-8.05c0-.59,.45-.88,.9-.88s.9,.29,.9,.88v3.33h3.67c.52,0,.77,.41,.77,.81s-.25,.81-.77,.81h-3.67v3.1h5.4c.52,0,.79,.41,.79,.83s-.27,.79-.79,.79h-12.86Z"/><path d="M345.76,116.54v1.37c.45,0,.95,0,1.55,.02,1.04,.02,1.8,.79,1.84,1.57,.04,.56,.04,1.49,.04,2.43s0,1.87-.04,2.39c-.04,.94-.77,1.75-1.93,1.78-1.03,.04-1.55,.05-2.05,.05-.58,0-1.12-.02-2.29-.05-1.26-.04-1.96-.77-2-1.76-.02-.59-.04-1.51-.04-2.41s.02-1.78,.04-2.29c.04-.81,.54-1.67,1.91-1.71,.5-.02,.92-.04,1.33-.04v-1.35h-5.33c-.58,0-.85-.4-.85-.79s.31-.85,.85-.85h12.53c.54,0,.81,.41,.81,.83s-.27,.81-.81,.81h-5.56Zm-6,3.01c-.02,1.13-.04,2.56-.04,3.91,0,.97,0,1.93,.04,2.67,.04,.72,.29,1.12,1.13,1.15,1.06,.04,2.56,.05,4.07,.05s2.99-.02,4.02-.05c.72-.04,1.17-.4,1.21-1.1,.04-.9,.05-1.96,.05-3.06,0-1.22-.02-2.47-.05-3.51v-.04c0-.52,.43-.79,.88-.79s.9,.27,.92,.83c.04,.79,.04,2,.04,3.26s0,2.59-.04,3.65c-.05,1.55-1.22,2.34-2.56,2.38-1.24,.05-2.95,.07-4.63,.07s-3.31-.02-4.43-.07c-1.48-.05-2.3-.83-2.34-2.34-.02-1.15-.04-2.45-.04-3.76,0-1.1,.02-2.2,.04-3.24,.02-.58,.43-.85,.85-.85s.88,.29,.88,.83v.02Zm4.36-.31l-.9,.02c-.56,.02-.77,.34-.79,.72-.02,.29-.02,.76-.02,1.28h1.71v-2.02Zm0,3.31h-1.71c0,.59,0,1.13,.02,1.48,.02,.68,.27,.72,1.69,.72v-2.2Zm3.44-1.3c0-.52,0-.97-.02-1.3-.02-.7-.45-.74-1.78-.74v2.04h1.8Zm-.79,3.47c.47,0,.76-.16,.77-.72,.02-.32,.02-.86,.02-1.46h-1.8v2.2l1.01-.02Z"/></g><g><path class="e" d="M299.69,50.12c-.65-.28-2.85-1.95-4.54-3.17,1.67-.73,3.34-1.91,3.38-2.4,.06-.8-2.22-2.03-2.83-2.28-.62-.25-2.44,.43-3.22,.39-1.17-.06-.06,1.91,.55,1.91s1.98-.45,2.17-.14c.15,.25,.1,.94-.81,1.97-.28-.21-.54-.39-.74-.53-1.42-.99-2.4-2.47-2.4-2.47l-.25-.62c-.25-.62-4.25,.06-4.25,.06,0,0,0-.49-.55-.8-.56-.31-2.47-.43-2.34,.43,.12,.86-2.51,5.44-2.84,5.86-.25,.31,.06,.55,.92,.12,.25-.13,.64-.45,1.06-.86,.14,.4,.34,.91,.55,1.35,.21,.44,.28,.86,.45,1.11-1.42,1.23-2.77,2.1-3.1,2.28-.68,.37-.25,.68,2.22,.49,.71-.05,1.56-.51,2.42-1.17,.09,.27,.36,.41,.79,.3,1.42-.37,7.34-.99,8.14-1.36,.18-.08,.25-.23,.24-.41,2.03,1.66,3.3,3.26,4.17,3.06,4.07-.93,4.26-1.67,.83-3.14Zm-14.4-1.28c-.34-.71-1.12-1.52-1.58-1.97,.22-.23,.44-.47,.64-.69,.32,.7,.86,1.64,1.57,1.98-.2,.23-.41,.46-.63,.68Zm1.85-2.37c-.76-.41-1.7-.78-2.2-.97,.23-.27,.39-.47,.45-.56,.25-.37,2.34-.19,2.28,.31-.12,.41-.3,.82-.53,1.22Zm5.59,2.11c-1.15,.06-4.66,.93-4.98,.98,1.24-1.39,2.23-2.89,2.51-3.76,.16,.42,1.2,1.54,2.56,2.77-.03,0-.06,0-.09,0Z"/><path class="e" d="M292.04,54.32c1.51-.28,2.75-.51,3.09-.51,.86,0,1.79,.19,2.03-.25,.25-.43-.18-2.22-2.71-2.16-2.53,.06-8.94,1.48-8.94,1.48-1.66,.43-2.65,0-2.53,.62,.14,.69,.37,2.03,2.4,1.91,.14,0,.3-.02,.48-.04-.27,.2-.64,.45-1.16,.78-1.73,1.11-2.59,1.03-2.96,2.4-.25,.93,.74,2.4,3.02,1.23,2.28-1.17,2.4-4.31,2.4-4.31,.01-.06,0-.17-.02-.29,.51-.08,1.07-.18,1.65-.28-.02,.42-.03,.9-.03,1.12,0,.43,.25,3.08,.06,3.02-.18-.06-2.03-.8-2.03-.8,0,0-.56,.12-.19,.62,.37,.49,1.73,1.11,2.34,1.73,.62,.62,2.34,.92,2.9-.06,.55-.99,.12-3.14,0-4.07-.09-.66,.08-1.64,.18-2.15Z"/><path class="e" d="M294.63,54.18c-.55-.06-1.23,.19-.8,.92,.56,.95,1.85,3.02,1.66,3.51-.18,.49-.66,.6-.42,.73,.25,.12,1.46,1.37,2.94,.51,1.48-.86,1.97-1.73,.25-3.58-1.73-1.85-3.08-2.03-3.64-2.1Z"/><path class="e" d="M315.21,50.82c-.21-2.25-.71-4.52-1.65-6.67-.7-1.61-1.64-3.16-2.88-4.56-1.85-2.1-4.35-3.86-7.6-5.08-3.25-1.22-7.22-1.9-12.08-1.9-4.32,0-7.94,.54-10.97,1.52-2.27,.73-4.21,1.71-5.85,2.88-2.45,1.76-4.2,3.96-5.37,6.34-1.17,2.38-1.78,4.94-2.02,7.48-.05,.57-.08,1.14-.08,1.71,0,3.87,1.19,7.58,2.96,10.78,1.78,3.2,4.14,5.89,6.63,7.71l.36,.26h.92l.07-.05c2.48,1.51,5.19,2.64,8.12,3.34,.96,.23,1.93,.4,2.88,.53v14.71c0,1.29,1.05,2.35,2.35,2.35s2.35-1.05,2.35-2.35v-14.71c.95-.12,1.92-.3,2.88-.53,2.92-.69,5.64-1.83,8.12-3.34l.07,.05h.92l.36-.26c2.49-1.82,4.85-4.51,6.63-7.71,1.77-3.2,2.96-6.92,2.96-10.78,0-.57-.03-1.14-.08-1.71Zm-38.29,19.98s.04,.03,.07,.04c-.05-.01-.08-.03-.07-.04Zm1.74-1.1c.76-.43,1.55-.83,2.36-1.19l4.86,4.18c-2.59-.65-5.01-1.66-7.22-3Zm4.31-1.95c.84-.29,1.7-.53,2.58-.72l2.94,5.47-5.52-4.75Zm7.11,3.8l-2.62-4.88c.86-.12,1.73-.2,2.62-.24v5.11Zm1.85,0v-5.11c.89,.03,1.76,.11,2.62,.24l-2.62,4.87Zm4.53-4.52c.88,.2,1.74,.44,2.58,.72l-5.52,4.75,2.94-5.47Zm-.33,5.66l4.86-4.18c.81,.36,1.6,.75,2.36,1.19-2.21,1.34-4.63,2.35-7.22,3Zm8.89-1.86s.05-.03,.07-.04c.02,.01-.01,.03-.07,.04Zm4.9-8.86c-1.4,2.53-3.24,4.71-5.1,6.24-3.97-2.59-8.73-4.09-13.82-4.09-5.09,0-9.84,1.51-13.82,4.09-1.87-1.54-3.7-3.72-5.1-6.24-1.59-2.86-2.61-6.15-2.61-9.45,0-.48,.02-.97,.07-1.45,.19-2.02,.64-4.01,1.43-5.84,.6-1.37,1.39-2.66,2.41-3.83,1.55-1.75,3.63-3.24,6.5-4.32,2.86-1.08,6.51-1.72,11.12-1.72,4.09,0,7.43,.51,10.13,1.38,2.03,.65,3.7,1.5,5.08,2.5,2.07,1.49,3.51,3.3,4.5,5.32,.99,2.01,1.53,4.24,1.75,6.52,.05,.49,.07,.97,.07,1.45,0,3.29-1.02,6.58-2.61,9.45Z"/></g><circle class="d" cx="492" cy="90" r="90"/><g><path d="M439.88,118.25c1.84,1.06,3.64,1.58,5.6,2.07,.43,.11,.61,.38,.61,.68,0,.43-.41,.94-1.01,.94-.23,0-3.13-.74-6.27-2.86l.02,1.39v.02c0,.45-.41,.67-.85,.67s-.85-.23-.85-.67v-.02l.02-1.33c-2.34,1.84-5.78,3.22-6.27,3.22-.54,0-.9-.4-.9-.79,0-.29,.18-.56,.61-.7,2.11-.67,3.76-1.4,5.44-2.61h-4.72c-.49,0-.74-.36-.74-.72,0-.34,.25-.7,.74-.7h5.85l-.04-1.01c-1.4,.09-2.77,.14-3.82,.14-.27,0-.52-.02-.76-.02-.52-.02-.79-.4-.79-.76,0-.34,.25-.68,.76-.68h.04c.45,.02,.92,.02,1.4,.02,2.45,0,5.44-.2,8.16-.7,.09-.02,.18-.02,.25-.02,.56,0,.85,.4,.85,.77,0,.31-.18,.58-.54,.65-.99,.18-2.39,.34-3.85,.47l-.04,1.13h5.91c.47,0,.7,.36,.7,.7,0,.36-.23,.72-.7,.72h-4.83Zm1.48,5.96c-.18,.72-.43,1.35-.77,1.93,1.62,.43,3.01,1.01,3.96,1.67,.29,.2,.4,.47,.4,.74,0,.49-.4,.97-.9,.97-.18,0-.36-.05-.54-.2-1.04-.79-2.39-1.44-3.94-1.91-1.51,1.39-3.94,2.11-7.49,2.11-.25,0-.5-.02-.77-.02-.56-.02-.83-.41-.83-.81s.27-.79,.81-.79h.04c.41,.02,.83,.02,1.22,.02,2.2,0,3.87-.27,5.04-.95-.68-.13-1.4-.22-2.12-.25-.23,.32-.56,.45-.88,.45-.43,0-.85-.25-.85-.65,0-.14,.05-.29,.16-.45,.41-.61,.74-1.22,1.03-1.85l-3.94,.02c-.5,0-.76-.38-.76-.76s.25-.76,.76-.76l4.54,.04c.16-.43,.31-.86,.45-1.3,.11-.34,.47-.5,.81-.5,.45,0,.9,.23,.9,.61,0,.04,0,.07-.4,1.19l7.8-.04c.5,0,.74,.38,.74,.76s-.23,.76-.74,.76l-3.71-.02Zm-4.65-.02c-.18,.43-.36,.86-.56,1.26,.94,.05,1.85,.16,2.74,.32,.31-.45,.54-.97,.68-1.58h-2.86Z"/><path d="M462.7,127.87c.56,.04,.81,.41,.81,.83,0,.49-.36,1.01-1.01,1.01-.58,0-3.01-.59-4.83-1.64-.29-.16-.4-.41-.4-.67,0-.23,.11-.49,.29-.65-1.08,0-2.23,0-3.29-.02,.23,.18,.4,.49,.4,.77,0,.25-.11,.49-.38,.65-1.78,1.1-4.3,1.64-4.88,1.64-.63,0-.95-.45-.95-.88s.27-.83,.86-.86c1.22-.07,2.74-.52,4-1.33-.34,0-.68-.02-.99-.02-1.31-.04-2.02-.68-2.05-1.57-.04-.68-.05-1.53-.05-2.38s.02-1.67,.05-2.3c.04-.72,.56-1.49,2-1.51,.97-.02,2.12-.02,3.31-.02,1.48,0,2.99,0,4.32,.04,1.1,.02,1.89,.7,1.93,1.39,.04,.65,.05,1.37,.05,2.11,0,.94-.02,1.87-.05,2.68-.04,.83-.81,1.57-2.02,1.58-.34,0-.68,.02-1.04,.02,1.24,.65,2.77,1.06,3.93,1.13Zm-6.7-9.71c-1.21,0-2.38-.02-3.4-.04-1.78-.05-1.85-.85-1.85-1.98s.13-1.85,1.82-1.87c1.17-.02,2.54-.04,3.87-.04,1.12,0,2.21,.02,3.19,.04,1.66,.04,1.75,.94,1.75,1.82s0,1.98-1.84,2.03c-1.12,.02-2.34,.04-3.53,.04Zm4.18,4.16h-8.3v.96h8.3v-.96Zm-.05-1.44c-.02-.41-.27-.67-.88-.68-1.06-.02-2.59-.04-4.02-.04-.88,0-1.73,0-2.41,.02-.58,.02-.88,.36-.9,.7v.31h8.23l-.02-.31Zm-8.21,3.53v.31c.02,.5,.38,.68,.92,.7,1.03,.04,2.41,.05,3.75,.05,.97,0,1.91-.02,2.68-.04,.49-.02,.83-.22,.86-.7,0-.11,.02-.22,.02-.32h-8.23Zm7.71-8.21c0-.49-.16-.59-.7-.59-.85-.02-1.89-.02-2.92-.02s-2.05,0-2.9,.02c-.65,0-.67,.31-.67,.61,0,.54,.18,.59,.68,.59,.85,.02,1.87,.02,2.9,.02,3.39,0,3.48,0,3.57-.38,.02-.07,.04-.16,.04-.25Z"/><path d="M474.49,115.96c-.2-.22-.34-.32-.47-.32s-.25,.11-.43,.32c-1.48,1.87-3.85,4.14-5.78,5.4-.27,.18-.52,.25-.76,.25-.58,0-.99-.47-.99-.95,0-.31,.18-.63,.58-.85,2.09-1.08,4.32-3.28,5.69-5.06,.43-.56,.99-.86,1.57-.86s1.15,.27,1.69,.86c1.76,1.89,3.69,3.4,5.83,4.5,.34,.18,.49,.47,.49,.77,0,.52-.45,1.06-1.06,1.06-.97,0-4.36-2.9-6.36-5.13Zm-.92,7.76c-.32,1.03-.77,2.36-1.31,3.51,1.66-.13,3.29-.32,4.86-.56-.41-.38-.86-.74-1.31-1.04-.27-.18-.38-.4-.38-.61,0-.38,.38-.74,.85-.74,1.06,0,4.3,3.01,4.3,4.07,0,.54-.5,.97-1.01,.97-.29,0-.56-.14-.74-.49-.18-.32-.38-.63-.59-.92-4.21,.88-9.33,1.22-9.69,1.22-.54,0-.83-.47-.83-.9,0-.4,.23-.79,.74-.81,.63-.02,1.28-.04,1.93-.07,.5-1.04,.97-2.43,1.28-3.62l-3.4,.02c-.58,0-.85-.38-.85-.77s.29-.85,.85-.85h11.43c.58,0,.86,.41,.86,.83s-.29,.79-.86,.79l-6.12-.04Zm-2.05-3.31c-.56,0-.85-.4-.85-.81s.29-.81,.85-.81h5.17c.56,0,.85,.41,.85,.81s-.29,.81-.85,.81h-5.17Z"/><path d="M491.46,121.67c-.77-.41-.94-1.01-.94-2.02,0-.29,.02-.61,.04-.97,.04-.83,.05-1.48,.05-2.02,0-.79-.04-1.31-.13-1.73-.02-.09-.02-.16-.02-.23,0-.52,.4-.79,.83-.79,1.1,0,1.15,1.04,1.15,2.25,0,.5-.04,1.13-.11,2.03-.04,.56-.09,1.01-.09,1.37,0,1.12,.74,1.22,1.28,1.22,.27,0,.31-.14,.52-.22,.09-.04,.2-.05,.29-.05,.47,0,.9,.4,.9,.86,0,.31-.2,.65-.67,.94-.61,.38-2.05,.99-2.88,1.44-1.37,.76-1.98,1.53-1.98,2.2,0,.72,.79,1.49,2.65,1.49,.29,0,1.71-.02,2.5-.58,.29-.2,.59-.29,.85-.29,.59,0,1.03,.43,1.03,.92,0,1.12-2.11,1.75-3.96,1.75-3.26,0-4.72-1.55-4.72-3.1,0-1.3,.99-2.77,3.17-4,.04-.02,.47-.25,.61-.34-.11-.02-.25-.07-.38-.14Z"/><path d="M514.88,121.71c0-2-1.57-3.71-4.18-3.71h-.04c.29,.13,.5,.4,.5,.76v.09c0,1.89-1.85,5.17-3.83,7.11-.45,.43-.92,.61-1.35,.61-1.28,0-2.43-1.44-2.43-3.4,0-3.26,3.21-6.57,7.26-6.57,3.64,0,5.91,2.41,5.91,5.22,0,.67-.13,1.35-.4,2.04-1.58,4-6.48,4.55-6.73,4.55-.63,0-1.03-.43-1.03-.88,0-.4,.31-.77,.99-.9,3.28-.54,5.33-2.56,5.33-4.92Zm-5.2-3.62c-2.25,.45-4.5,2.84-4.5,4.99,0,1.35,.9,1.51,.95,1.51,.11,0,.23-.04,.34-.14,.54-.49,2.79-3.15,2.86-5.58,0-.36,.14-.63,.34-.77Z"/><path d="M520.93,129.4c-.52,0-.99-.47-.99-.95,0-.25,.13-.5,.45-.68,.97-.54,1.8-1.15,2.41-1.87,.02-.81,.04-1.51,.04-2.2v-.74c0-.47-.22-.52-.83-.52h-.7c-.34,0-.99-.02-.99-.77,0-.4,.27-.81,.76-.81,.65,0,1.15,0,1.75,.02,1.15,.04,1.69,.54,1.69,1.69,0,1.04-.04,2.29-.04,3.44,1.13,1.44,2.99,1.82,5.49,1.82,1.8,0,3.76-.2,5.13-.31h.09c.56,0,.86,.43,.86,.86s-.27,.83-.9,.88c-1.13,.11-2.79,.22-4.43,.22-3.91,0-5.38-.47-7.08-2.21-.9,1.01-2.02,2.14-2.72,2.14Zm2.2-11.81c-.47-.72-1.26-1.28-1.76-1.57-.25-.14-.36-.34-.36-.56,0-.4,.43-.81,.92-.81,.54,0,2.79,1.39,2.79,2.3,0,.52-.49,1.01-.97,1.01-.22,0-.45-.11-.61-.38Zm7.6,8.14v1.21c0,.5-.4,.77-.81,.77s-.81-.27-.81-.77v-1.21h-3.48c-.5,0-.76-.34-.76-.7,0-.34,.25-.7,.76-.7h3.48v-.86c-.54,0-1.06-.02-1.6-.04-1.06-.04-1.67-.63-1.71-1.46-.02-.49-.02-.99-.02-1.48s0-.99,.02-1.44c.04-.74,.68-1.37,1.69-1.39,.5-.02,1.06-.04,1.62-.04v-.81h-3.19c-.5,0-.76-.36-.76-.7,0-.36,.25-.72,.76-.72h3.19v-1.06c0-.49,.41-.74,.83-.74s.79,.23,.79,.74v1.06h3.71c.52,0,.77,.36,.77,.7,0,.36-.25,.72-.77,.72h-3.71v.81c.59,0,1.19,.02,1.76,.04,.94,.04,1.71,.54,1.76,1.35,.04,.5,.05,1.04,.05,1.57,0,.49-.02,.94-.05,1.37-.07,.85-.76,1.44-1.87,1.48-.56,.02-1.1,.04-1.66,.04v.86h4c.52,0,.77,.36,.77,.7,0,.36-.25,.7-.77,.7h-4Zm-1.58-6.86c-1.69,0-1.87,.02-1.87,1.06h1.87v-1.06Zm0,2.25h-1.87c0,.67,.07,1.1,.61,1.1,.4,.02,.81,.02,1.26,.02v-1.12Zm3.64-1.19c0-1.01,0-1.06-2.09-1.06v1.06h2.09Zm-2.09,1.19v1.13c1.62,0,2.02-.02,2.05-.58,0-.18,.02-.36,.02-.56h-2.07Z"/><path d="M553.04,121.06c.38,0,.56,.29,.56,.59s-.18,.61-.58,.61c-1.35,0-3.06,.02-4.68,.02-.81,0-1.6,0-2.3-.02-1.06-.02-1.8-.43-1.82-1.51,0-.54,0-1.4,.04-2.21-.58,.58-.61,.61-.92,.61-.34,0-.63-.22-.74-.49h-.54v2.07c.29-.16,.56-.34,.83-.52,.13-.09,.25-.13,.38-.13,.4,0,.72,.36,.72,.76,0,.43-.14,.58-1.93,1.64,0,1.15-.02,2.05-.02,2.32,0,.29,.05,1.93,.07,2.56v.07c0,1.13-.68,2.02-2.21,2.02-.7,0-1.62-.04-1.62-.97,0-.41,.25-.83,.7-.83,.05,0,.11,0,.16,.02,.16,.04,.36,.07,.56,.07,.36,0,.68-.13,.68-.59v-3.76c-1.17,.59-1.26,.63-1.53,.63-.52,0-.86-.43-.86-.86,0-.29,.16-.58,.52-.74,.67-.29,1.3-.54,1.87-.81v-2.93h-1.44c-.52,0-.79-.4-.79-.79s.27-.79,.79-.79h1.44l-.02-2.63c0-.56,.43-.85,.86-.85s.83,.27,.83,.85v2.63h.65c.29,0,.5,.13,.63,.31,.83-.86,1.55-1.95,2.09-3.17,.13-.31,.4-.41,.67-.41,.43,0,.88,.31,.88,.7,0,.09,0,.16-.5,1.04h1.66c.16-.32,.32-.72,.52-1.28,.09-.25,.38-.36,.68-.36,.45,0,.95,.25,.95,.59,0,.2-.4,.9-.47,1.04,1.1,0,2.16,0,3.01,.02,.38,0,.56,.31,.56,.61,0,.29-.18,.58-.58,.58h-.02c-.88-.02-2.02-.02-3.15-.02v.76h2.67c.32,0,.49,.25,.49,.5s-.16,.5-.49,.5h-2.67v.74h2.67c.32,0,.5,.25,.5,.52,0,.23-.16,.49-.5,.49h-2.67v.85c1.19,0,2.4-.02,3.39-.04h.02Zm-2.68,5.1c-.12,.38-.47,.54-.79,.54-.4,0-.78-.23-.78-.59,0-.07,0-.14,.04-.22,.18-.47,.47-1.3,.47-1.49,0-.07-.05-.11-.14-.11h-1.1c-.68,4.72-4.97,5.29-4.99,5.29-.5,0-.85-.43-.85-.83,0-.29,.18-.58,.59-.68,2.2-.58,3.4-1.85,3.67-3.8-.72,0-1.44,.02-1.98,.04h-.02c-.45,0-.68-.32-.68-.67,0-.32,.23-.67,.68-.67,.88-.02,2.48-.02,3.78-.02h1.4c.68,.02,1.28,.36,1.28,1.08,0,.11,0,.22-.04,.34-.02,.05-.04,.11-.05,.18h1.13c.9,.04,1.5,.52,1.5,1.28,0,.56-.32,1.53-.49,1.93-.49,1.24-1.6,1.66-2.79,1.66-.54,0-1.1-.09-1.62-.22-.41-.11-.59-.41-.59-.74,0-.4,.29-.81,.76-.81,.07,0,.14,.02,.23,.04,.4,.11,.86,.23,1.3,.23,.52,0,.99-.16,1.24-.7,.04-.09,.31-.7,.31-1.1,0-.13-.05-.27-.29-.27h-1.1l-.09,.31Zm-2.25-7.65h-2.36c0,.23-.02,.49-.02,.74h2.38v-.74Zm0,1.75h-2.36v.2c0,.65,.45,.65,2.36,.65v-.85Zm0-3.51l-1.75,.02c-.29,0-.52,.11-.56,.52,0,.07-.02,.14-.02,.22h2.32v-.76Z"/></g><g><path class="e" d="M462.59,68.99c3.7,0,6.69-3,6.69-6.69s-2.99-6.69-6.69-6.69-6.69,3-6.69,6.69c0,3.69,2.99,6.69,6.69,6.69Z"/><path class="e" d="M462.58,71.27c-3.6,0-6.53,2.92-6.53,6.53v8.12h7.74l4.99-10.2c-.86-2.6-3.3-4.45-6.2-4.45Z"/><path class="e" d="M473.53,56.2c3.31,0,5.99-2.68,5.99-5.99s-2.68-5.99-5.99-5.99-5.99,2.69-5.99,5.99c0,3.31,2.68,5.99,5.99,5.99Z"/><path class="e" d="M467.67,70.08v1.29h3.25l5.94-12.1c-.94-.66-2.08-1.03-3.32-1.03-.84,0-1.64,.17-2.36,.49,.45,1.1,.72,2.3,.72,3.56,0,3.27-1.68,6.13-4.23,7.79Z"/><path class="e" d="M491.29,44.6c3.31,0,5.99-2.68,5.99-5.99s-2.68-5.99-5.99-5.99-5.99,2.69-5.99,5.99,2.68,5.99,5.99,5.99Z"/><path class="e" d="M491.29,46.63c-3.24,0-5.86,2.62-5.86,5.86v2.54h11.73v-2.54c0-3.24-2.62-5.86-5.86-5.86Z"/><path class="e" d="M521.41,68.99c3.7,0,6.69-3,6.69-6.69s-2.99-6.69-6.69-6.69-6.69,3-6.69,6.69,2.99,6.69,6.69,6.69Z"/><path class="e" d="M521.42,71.27c-2.9,0-5.34,1.85-6.2,4.45l4.99,10.2h7.74v-8.12c0-3.61-2.94-6.53-6.53-6.53Z"/><path class="e" d="M510.47,56.2c3.31,0,5.99-2.68,5.99-5.99s-2.68-5.99-5.99-5.99-5.99,2.69-5.99,5.99c0,3.31,2.68,5.99,5.99,5.99Z"/><path class="e" d="M510.47,58.24c-1.24,0-2.37,.37-3.32,1.03l5.94,12.1h3.25v-1.29c-2.55-1.66-4.23-4.52-4.23-7.79,0-1.26,.26-2.46,.72-3.56-.72-.31-1.52-.49-2.36-.49Z"/><path class="e" d="M480.74,57.29l-15.47,31.57v3.3h53.46v-3.3l-15.47-31.57h-22.52Zm3.48,25.23h-8.57l2.5-5.82h7.08l-1,5.82Zm2.77-12.31h-6.75l1.96-4.58h5.57l-.79,4.58Zm21.16,12.31h-8.57l-1-5.82h7.08l2.5,5.82Zm-11.34-12.31l-.79-4.58h5.57l1.97,4.58h-6.75Z"/></g><circle class="d" cx="693" cy="90" r="90"/><g><path d="M631.88,121.71c-.68-.56-1.37-1.17-2-1.87l-.02-.02c-.88,3.62-2.7,7.15-5.71,9.34-.27,.2-.54,.27-.77,.27-.56,0-.97-.4-.97-.86,0-.25,.14-.54,.5-.77,2.02-1.3,3.44-3.24,4.34-5.24-.54-.31-1.04-.5-1.67-.7-.36-.11-.52-.36-.52-.65,0-.47,.43-.99,.97-.99,.47,0,1.46,.52,1.84,.74,.14-.45,.61-2.05,.61-3.02,0-.32-.11-.47-.45-.47h-.05s-.9,.04-1.6,.05c-.76,1.96-1.71,3.76-2.72,5.13-.27,.36-.59,.5-.9,.5-.47,0-.86-.36-.86-.79,0-.18,.07-.38,.23-.58,1.58-1.93,2.65-4.23,3.33-7.11,.13-.52,.5-.76,.88-.76,.45,0,.88,.32,.88,.83,0,.09-.11,.63-.32,1.26,.68-.02,1.37-.02,1.66-.02,.99,.04,1.73,.47,1.73,1.53,0,.05,0,.11-.16,1.12,.09-.05,.2-.09,.29-.09,.14,0,.29,.07,.41,.2,.36,.38,.72,.7,1.06,1.01l-.05-4.86v-.02c0-.5,.43-.76,.86-.76s.9,.27,.9,.77l-.05,6.12c1.24,.81,2.52,1.37,3.96,1.98,.4,.16,.56,.49,.56,.79,0,.49-.38,.97-.95,.97-.5,0-2.25-.96-3.57-1.82l.05,5.8c0,.49-.45,.72-.88,.72s-.88-.23-.88-.72l.05-7.02Z"/><path d="M646.31,126.52c0,2.18-1.44,2.99-2.97,2.99s-1.66-.58-1.66-.83c0-.38,.31-.74,.76-.74,.07,0,.14,0,.22,.02,.27,.07,.56,.11,.83,.11,.77,0,1.22-.41,1.22-1.6,0-.13,0-.23-.02-.34-2.07,.29-3.6,.4-3.71,.4-.5,0-.77-.34-.77-.67s.23-.67,.76-.68c.92-.05,1.94-.13,2.97-.23-.13-.07-.27-.14-.43-.18-.32-.07-.45-.25-.45-.43,0-.32,.41-.7,.94-.7,.29,0,.52,.11,.74,.2,.38-.25,1.04-.81,1.04-.83,0-.05-.04-.09-.11-.09-1.03,0-3.03,.05-4.09,.09h-.04c-.4,0-.59-.31-.59-.63s.22-.67,.61-.67c.68-.02,1.96-.04,3.17-.04,.79,0,1.55,.02,2.09,.04,.9,.04,1.24,.43,1.24,.86,0,.31-.18,.61-.45,.81-.45,.32-1.44,.97-1.93,1.22,.04,.04,.07,.07,.09,.11,.9-.13,1.67-.25,2.27-.36,.05-.02,.11-.02,.16-.02,.4,0,.63,.31,.63,.61,0,.59-.56,.68-2.58,.97,.04,.2,.05,.41,.05,.61Zm-5.28-9.7c-.5,0-.78-.36-.78-.72,0-.34,.27-.7,.78-.7l2.77,.02v-1.06c0-.49,.45-.74,.88-.74s.9,.25,.9,.74v1.06l2.88-.02c.49,0,.74,.36,.74,.7,0,.36-.25,.72-.74,.72h-7.44Zm3.73,4.05c-3.19,0-3.67-.02-3.67-1.6,0-.83,0-1.66,1.46-1.69,.65-.02,1.4-.04,2.16-.04s1.53,.02,2.21,.04c1.35,.04,1.35,.83,1.35,1.67,0,.61-.05,1.53-1.33,1.58-.65,.02-1.42,.04-2.18,.04Zm1.57-2.14c-.47-.02-1.04-.04-1.62-.04s-1.17,.02-1.67,.04c-.36,0-.4,.16-.4,.38,0,.63,.02,.65,1.73,.65,2.32,0,2.39-.04,2.39-.56,0-.38-.12-.47-.43-.47Zm5.26,7.2c0-.45,.29-.88,.77-.88,.05,0,.13,0,.18,.02,.18,.04,.34,.05,.49,.05,.38,0,1.08-.09,1.08-1.37,0-.86-.45-1.6-1.03-2.32-.4-.5-.56-.96-.56-1.39,0-.49,.2-.95,.43-1.44,.58-1.22,.86-1.87,.86-2.16,0-.34-.2-.36-1.22-.36s-1.44,0-1.44,.7c-.02,1.06-.02,2.16-.02,3.28,0,2.36,.02,4.83,.02,7.33v1.46c0,.52-.42,.77-.85,.77s-.86-.27-.86-.77c0-6.19,0-9.11,.05-12.3,.02-1.15,.59-1.87,1.76-1.89,.49-.02,1.01-.02,1.55-.02,.38,0,.77,0,1.17,.02,1.19,.04,1.78,.65,1.78,1.49,0,.76-.56,1.75-1.24,2.92-.22,.4-.32,.65-.32,.88,0,.27,.16,.52,.47,.92,.67,.86,1.22,1.73,1.22,3.1,0,2.97-2.52,2.99-2.79,2.99-.72,0-1.51-.2-1.51-1.03Z"/><path d="M671.06,128.95c-1.58,.04-3.24,.05-4.9,.05s-3.31-.02-4.93-.05c-1.57-.04-2.34-.85-2.4-2.18-.05-1.35-.07-2.97-.07-4.64,0-2.04,.04-4.12,.07-5.89,.02-1.15,.9-1.93,2.25-1.96,1.57-.04,3.22-.05,4.92-.05s3.4,.02,5.09,.05c1.26,.04,2.18,.79,2.2,2.05,.04,1.84,.07,3.87,.07,5.83,0,1.62-.02,3.19-.07,4.56-.04,1.26-.94,2.2-2.23,2.23Zm.58-7.42c0-1.55-.02-3.1-.07-4.48-.04-1.03-.4-1.21-1.28-1.22-1.35-.02-2.84-.04-4.3-.04s-2.9,.02-4.16,.04c-1.03,.02-1.31,.31-1.33,1.22-.04,1.46-.05,3.06-.05,4.63s.02,3.1,.05,4.45c.04,1.03,.4,1.21,1.51,1.22,1.24,.02,2.56,.04,3.94,.04s2.81-.02,4.27-.04c1.01-.02,1.31-.5,1.35-1.28,.05-1.44,.07-2.99,.07-4.54Zm-4.54-1.55h-5.11c-.5,0-.76-.36-.76-.74s.25-.72,.76-.72h5.1v-1.39c0-.49,.41-.72,.81-.72,.42,0,.81,.23,.81,.72l.02,1.39h1.58c.5,0,.76,.36,.76,.72s-.25,.74-.76,.74h-1.58l.02,1.82,.04,2.41v.04c0,.97-.67,2.23-2.75,2.23-.86,0-2-.07-2-.99,0-.41,.31-.79,.83-.79,.07,0,.16,0,.23,.02,.36,.07,.7,.13,1.01,.13,.59,0,1.03-.22,1.03-.96l-.02-3.91Zm-2.61,3.15c-.49-.63-1.22-1.06-1.6-1.26-.27-.14-.4-.34-.4-.56,0-.38,.36-.76,.83-.76,.36,0,2.59,.97,2.59,2,0,.49-.4,.92-.83,.92-.2,0-.41-.11-.59-.34Z"/><path d="M686.87,125.74v3.11c0,.49-.41,.72-.83,.72s-.83-.23-.83-.72v-3.11h-1.57c-.56,0-.81-.36-.81-.72,0-.4,.29-.79,.81-.79h1.57v-.45l.05-3.12c-.94,1.89-2.14,3.58-3.8,5.11-.2,.2-.43,.27-.65,.27-.31,0-.58-.16-.72-.4l-.05,3.19c0,.56-.45,.83-.88,.83s-.85-.27-.85-.81v-.02l.18-8.32c-1.15,1.49-1.64,1.76-2.03,1.76-.47,0-.85-.36-.85-.79,0-.2,.09-.43,.31-.63,1.71-1.64,3.28-4.02,4.11-6.52,.14-.4,.45-.58,.77-.58,.49,0,1.01,.38,1.01,.88,0,.43-.88,2.12-1.55,3.26l-.14,6.97c.05-.09,.14-.18,.23-.25,1.78-1.46,3.24-3.28,4.38-5.6l-3.06,.05h-.02c-.56,0-.81-.36-.81-.76s.29-.81,.83-.81h3.51v-3.06c0-.52,.43-.77,.85-.77,.45,0,.88,.27,.88,.77v3.06h4.02c.52,0,.79,.4,.79,.79s-.25,.77-.77,.77h-.02l-3.6-.05c1.3,2.21,3.03,3.85,4.72,5.11,.27,.2,.38,.47,.38,.72,0,.47-.38,.9-.88,.9-.22,0-.47-.09-.72-.29-1.4-1.15-2.84-2.88-4-4.79l.05,3.08v.47h1.6c.52,0,.77,.38,.77,.76s-.25,.76-.77,.76h-1.6Z"/><path d="M701.46,121.67c-.77-.41-.94-1.01-.94-2.02,0-.29,.02-.61,.04-.97,.04-.83,.05-1.48,.05-2.02,0-.79-.04-1.31-.13-1.73-.02-.09-.02-.16-.02-.23,0-.52,.4-.79,.83-.79,1.1,0,1.15,1.04,1.15,2.25,0,.5-.04,1.13-.11,2.03-.04,.56-.09,1.01-.09,1.37,0,1.12,.74,1.22,1.28,1.22,.27,0,.31-.14,.52-.22,.09-.04,.2-.05,.29-.05,.47,0,.9,.4,.9,.86,0,.31-.2,.65-.67,.94-.61,.38-2.05,.99-2.88,1.44-1.37,.76-1.98,1.53-1.98,2.2,0,.72,.79,1.49,2.65,1.49,.29,0,1.71-.02,2.5-.58,.29-.2,.59-.29,.85-.29,.59,0,1.03,.43,1.03,.92,0,1.12-2.11,1.75-3.96,1.75-3.26,0-4.72-1.55-4.72-3.1,0-1.3,.99-2.77,3.17-4,.04-.02,.47-.25,.61-.34-.11-.02-.25-.07-.38-.14Z"/><path d="M724.88,121.71c0-2-1.57-3.71-4.18-3.71h-.04c.29,.13,.5,.4,.5,.76v.09c0,1.89-1.85,5.17-3.83,7.11-.45,.43-.92,.61-1.35,.61-1.28,0-2.43-1.44-2.43-3.4,0-3.26,3.21-6.57,7.26-6.57,3.64,0,5.91,2.41,5.91,5.22,0,.67-.13,1.35-.4,2.04-1.58,4-6.48,4.55-6.73,4.55-.63,0-1.03-.43-1.03-.88,0-.4,.31-.77,.99-.9,3.28-.54,5.33-2.56,5.33-4.92Zm-5.2-3.62c-2.25,.45-4.5,2.84-4.5,4.99,0,1.35,.9,1.51,.95,1.51,.11,0,.23-.04,.34-.14,.54-.49,2.79-3.15,2.86-5.58,0-.36,.14-.63,.34-.77Z"/><path d="M730.93,129.4c-.52,0-.99-.47-.99-.95,0-.25,.13-.5,.45-.68,.97-.54,1.8-1.15,2.41-1.87,.02-.81,.04-1.51,.04-2.2v-.74c0-.47-.22-.52-.83-.52h-.7c-.34,0-.99-.02-.99-.77,0-.4,.27-.81,.76-.81,.65,0,1.15,0,1.75,.02,1.15,.04,1.69,.54,1.69,1.69,0,1.04-.04,2.29-.04,3.44,1.13,1.44,2.99,1.82,5.49,1.82,1.8,0,3.76-.2,5.13-.31h.09c.56,0,.86,.43,.86,.86s-.27,.83-.9,.88c-1.13,.11-2.79,.22-4.43,.22-3.91,0-5.38-.47-7.08-2.21-.9,1.01-2.02,2.14-2.72,2.14Zm2.2-11.81c-.47-.72-1.26-1.28-1.76-1.57-.25-.14-.36-.34-.36-.56,0-.4,.43-.81,.92-.81,.54,0,2.79,1.39,2.79,2.3,0,.52-.49,1.01-.97,1.01-.22,0-.45-.11-.61-.38Zm7.6,8.14v1.21c0,.5-.4,.77-.81,.77s-.81-.27-.81-.77v-1.21h-3.48c-.5,0-.76-.34-.76-.7,0-.34,.25-.7,.76-.7h3.48v-.86c-.54,0-1.06-.02-1.6-.04-1.06-.04-1.67-.63-1.71-1.46-.02-.49-.02-.99-.02-1.48s0-.99,.02-1.44c.04-.74,.68-1.37,1.69-1.39,.5-.02,1.06-.04,1.62-.04v-.81h-3.19c-.5,0-.76-.36-.76-.7,0-.36,.25-.72,.76-.72h3.19v-1.06c0-.49,.41-.74,.83-.74s.79,.23,.79,.74v1.06h3.71c.52,0,.77,.36,.77,.7,0,.36-.25,.72-.77,.72h-3.71v.81c.59,0,1.19,.02,1.76,.04,.94,.04,1.71,.54,1.76,1.35,.04,.5,.05,1.04,.05,1.57,0,.49-.02,.94-.05,1.37-.07,.85-.76,1.44-1.87,1.48-.56,.02-1.1,.04-1.66,.04v.86h4c.52,0,.77,.36,.77,.7,0,.36-.25,.7-.77,.7h-4Zm-1.58-6.86c-1.69,0-1.87,.02-1.87,1.06h1.87v-1.06Zm0,2.25h-1.87c0,.67,.07,1.1,.61,1.1,.4,.02,.81,.02,1.26,.02v-1.12Zm3.64-1.19c0-1.01,0-1.06-2.09-1.06v1.06h2.09Zm-2.09,1.19v1.13c1.62,0,2.02-.02,2.05-.58,0-.18,.02-.36,.02-.56h-2.07Z"/><path d="M763.04,121.06c.38,0,.56,.29,.56,.59s-.18,.61-.58,.61c-1.35,0-3.06,.02-4.68,.02-.81,0-1.6,0-2.3-.02-1.06-.02-1.8-.43-1.82-1.51,0-.54,0-1.4,.04-2.21-.58,.58-.61,.61-.92,.61-.34,0-.63-.22-.74-.49h-.54v2.07c.29-.16,.56-.34,.83-.52,.13-.09,.25-.13,.38-.13,.4,0,.72,.36,.72,.76,0,.43-.14,.58-1.93,1.64,0,1.15-.02,2.05-.02,2.32,0,.29,.05,1.93,.07,2.56v.07c0,1.13-.68,2.02-2.21,2.02-.7,0-1.62-.04-1.62-.97,0-.41,.25-.83,.7-.83,.05,0,.11,0,.16,.02,.16,.04,.36,.07,.56,.07,.36,0,.68-.13,.68-.59v-3.76c-1.17,.59-1.26,.63-1.53,.63-.52,0-.86-.43-.86-.86,0-.29,.16-.58,.52-.74,.67-.29,1.3-.54,1.87-.81v-2.93h-1.44c-.52,0-.79-.4-.79-.79s.27-.79,.79-.79h1.44l-.02-2.63c0-.56,.43-.85,.86-.85s.83,.27,.83,.85v2.63h.65c.29,0,.5,.13,.63,.31,.83-.86,1.55-1.95,2.09-3.17,.13-.31,.4-.41,.67-.41,.43,0,.88,.31,.88,.7,0,.09,0,.16-.5,1.04h1.66c.16-.32,.32-.72,.52-1.28,.09-.25,.38-.36,.68-.36,.45,0,.95,.25,.95,.59,0,.2-.4,.9-.47,1.04,1.1,0,2.16,0,3.01,.02,.38,0,.56,.31,.56,.61,0,.29-.18,.58-.58,.58h-.02c-.88-.02-2.02-.02-3.15-.02v.76h2.67c.32,0,.49,.25,.49,.5s-.16,.5-.49,.5h-2.67v.74h2.67c.32,0,.5,.25,.5,.52,0,.23-.16,.49-.5,.49h-2.67v.85c1.19,0,2.4-.02,3.39-.04h.02Zm-2.68,5.1c-.12,.38-.47,.54-.79,.54-.4,0-.78-.23-.78-.59,0-.07,0-.14,.04-.22,.18-.47,.47-1.3,.47-1.49,0-.07-.05-.11-.14-.11h-1.1c-.68,4.72-4.97,5.29-4.99,5.29-.5,0-.85-.43-.85-.83,0-.29,.18-.58,.59-.68,2.2-.58,3.4-1.85,3.67-3.8-.72,0-1.44,.02-1.98,.04h-.02c-.45,0-.68-.32-.68-.67,0-.32,.23-.67,.68-.67,.88-.02,2.48-.02,3.78-.02h1.4c.68,.02,1.28,.36,1.28,1.08,0,.11,0,.22-.04,.34-.02,.05-.04,.11-.05,.18h1.13c.9,.04,1.5,.52,1.5,1.28,0,.56-.32,1.53-.49,1.93-.49,1.24-1.6,1.66-2.79,1.66-.54,0-1.1-.09-1.62-.22-.41-.11-.59-.41-.59-.74,0-.4,.29-.81,.76-.81,.07,0,.14,.02,.23,.04,.4,.11,.86,.23,1.3,.23,.52,0,.99-.16,1.24-.7,.04-.09,.31-.7,.31-1.1,0-.13-.05-.27-.29-.27h-1.1l-.09,.31Zm-2.25-7.65h-2.36c0,.23-.02,.49-.02,.74h2.38v-.74Zm0,1.75h-2.36v.2c0,.65,.45,.65,2.36,.65v-.85Zm0-3.51l-1.75,.02c-.29,0-.52,.11-.56,.52,0,.07-.02,.14-.02,.22h2.32v-.76Z"/></g><g><path class="e" d="M705.73,47.31c-2.33-.39-7.7-.43-12.22,.55-.29-.19-.58-.39-.87-.56-.87-.53-1.73-.99-2.58-1.33-.82-.33-1.65-.55-2.51-.6h0c-1.29-.11-2.54-.15-3.69-.15-1.75,0-3.25,.1-4.35,.28h0c-.15,.02-.32,.04-.5,.04-.96,.01-2.28-.44-3.48-1.1-.81-.43-1.81-.2-2.35,.54l-13.19,18.19c-.45,.62-.47,1.46-.04,2.1,.33,.5,.61,1.02,.8,1.54,.27,.74,.65,1.4,1.09,2.05,.44,.65,.95,1.28,1.48,1.87l.21,.2s.95,.78,2.46,2.03c-.39,.57-.61,1.24-.62,1.95,0,.93,.34,1.82,1,2.48,.66,.68,1.55,1.05,2.5,1.05,.66,0,1.3-.19,1.85-.54-.37,.56-.58,1.21-.58,1.89-.01,.93,.34,1.82,1,2.48,.66,.68,1.55,1.05,2.5,1.05,.75,0,1.45-.24,2.05-.68-1.08,1.36-1.03,3.34,.22,4.62,.66,.68,1.55,1.05,2.5,1.05h0c.92,0,1.79-.36,2.45-1l.65-.64c-.27,.5-.43,1.05-.44,1.63,0,.93,.34,1.82,1,2.48,.66,.68,1.55,1.05,2.5,1.05s1.79-.35,2.46-1.01l.39-.4c.2,.16,.38,.29,.52,.41,.12,.09,.22,.17,.32,.24l.14,.1,.2,.12c.74,.41,1.45,.58,2.01,.71,.28,.06,.52,.1,.7,.12l.22,.03h.15s.01,.02,.12,.02h.13c1.23-.1,2.4-.52,3.36-1.25,.38-.29,.71-.64,1.01-1.03,.59,.19,1.21,.3,1.86,.3,2.64,0,4.85-1.68,5.71-4.02,.1,0,.19-.01,.28-.03,.33,.06,.67,.1,1.03,.1,2.62,0,4.83-1.65,5.7-3.96,0,0,.01,0,.02-.01l.21,.02c3.38,0,6.11-2.74,6.12-6.12,0-.94-.13-1.98-.49-3.05,2.32-2.05,5.72-5.21,6.33-6.93,.3-.83,1.96-2.81,2.44-3.49l-13.09-18.05c-1.67,.94-4.91,2.95-6.7,2.65Zm7.82,28.87c0,1.35-1.09,2.44-2.44,2.45-.33,0-.65-.07-.94-.19-.03-.01-.06-.02-.09-.02l-2.27-2.76c-.57-.66-1.58-.74-2.24-.17-.67,.57-.74,1.58-.16,2.24l2.19,2.67c-.14,1.22-1.16,2.17-2.42,2.17-.6,0-1.12-.21-1.56-.57l-2.18-2.65c-.57-.66-1.58-.74-2.24-.16-.67,.57-.74,1.58-.16,2.24l1.52,1.89c0,.12-.01,.24,0,.35,.03,.15,.04,.28,.04,.41,0,1.35-1.09,2.44-2.44,2.45-.35,0-.68-.08-.98-.21l-2.65-2.79c-.64-.6-1.65-.57-2.25,.07-.6,.64-.57,1.65,.07,2.25l1.24,1.46c-.12,.27-.29,.51-.54,.71-.32,.25-.77,.42-1.28,.48-.15-.02-.35-.06-.59-.11-.3-.07-.61-.18-.77-.26-.06-.04-.2-.15-.41-.31-.12-.09-.25-.19-.4-.31,.27-1.13-.02-2.37-.89-3.26-.66-.68-1.55-1.05-2.5-1.05-.53,0-1.05,.13-1.52,.36h-.01l.02-.03c.67-.65,1.04-1.53,1.05-2.46,0-.93-.35-1.82-1-2.48-.66-.68-1.55-1.05-2.5-1.05-.74,0-1.44,.24-2.04,.67,.48-.6,.76-1.34,.77-2.12,.01-.93-.34-1.82-1-2.48-.66-.68-1.55-1.05-2.5-1.05s-1.79,.35-2.45,1l-.59,.59c.73-1.32,.56-3.01-.55-4.13-.66-.68-1.55-1.05-2.5-1.05s-1.79,.35-2.45,1l-.39,.39c-.28-.23-.55-.45-.79-.65-.9-.74-1.53-1.26-1.78-1.46-.42-.48-.81-.97-1.12-1.42-.33-.48-.56-.92-.67-1.21-.15-.43-.34-.84-.54-1.22l11.59-15.99c1.15,.48,2.4,.84,3.75,.85,.36,0,.73-.03,1.1-.09h0c.77-.13,2.15-.24,3.74-.23,1.05,0,2.21,.04,3.39,.14h.08c.29,.01,.77,.12,1.36,.35l.13,.06c-4.95,2.24-11.97,6.54-14.28,7.31-2.63,.88-2.85,4.39,3.07,5.05,5.93,.66,11.19-3.07,12.51-3.73,.95-.47,6.95,.1,10.28,.47,1.47,1.45,2.75,2.79,3.69,3.81l7.3,8.93,.03,.04c.94,1.08,1.44,1.96,1.73,2.72,.29,.75,.37,1.41,.37,2.15Z"/><path class="e" d="M740.18,57.5l-17.65-24.34c-.43-.59-1.25-.72-1.84-.29l-7.82,5.67c-.59,.43-.72,1.25-.29,1.84l17.65,24.34c.43,.59,1.25,.72,1.84,.29l7.82-5.67c.59-.43,.72-1.25,.29-1.84Zm-6.01,2.19c-.98,.71-2.35,.49-3.07-.49-.71-.98-.49-2.35,.49-3.06,.98-.71,2.35-.49,3.07,.49,.71,.98,.49,2.36-.49,3.07Z"/><path class="e" d="M673.13,38.53l-7.82-5.67c-.59-.43-1.41-.3-1.84,.29l-17.65,24.34c-.43,.59-.29,1.41,.29,1.84l7.82,5.67c.59,.43,1.41,.29,1.84-.29l17.65-24.34c.43-.59,.3-1.41-.29-1.84Zm-5.23,2.72c-.71,.98-2.08,1.2-3.07,.49-.98-.71-1.2-2.09-.49-3.06,.71-.98,2.08-1.2,3.07-.49,.98,.71,1.2,2.08,.49,3.07Z"/></g><circle class="d" cx="894" cy="90" r="90"/><g><path d="M833,128.89c-.58,0-.85-.38-.85-.77,0-.43,.31-.86,.85-.86l6.14,.02v-3.24l-3.38,.02c-.58,0-.85-.38-.85-.77s.31-.83,.85-.83l3.38,.02v-2.75l-3.21,.02c-.58,1.03-1.24,2-2,2.94-.25,.31-.54,.41-.79,.41-.47,0-.86-.36-.86-.81,0-.18,.07-.38,.23-.58,1.15-1.31,2.48-3.42,3.2-5.89,.13-.43,.47-.61,.83-.61,.5,0,1.01,.32,1.01,.83,0,.07-.02,.18-.05,.27-.23,.63-.49,1.24-.76,1.84l2.39,.02v-3.21c0-.67,.47-.99,.94-.99s.92,.32,.92,.99v3.21l4.86-.02c.58,0,.86,.4,.86,.81s-.29,.79-.86,.79l-4.86-.02v2.75l3.64-.02c.58,0,.86,.4,.86,.81s-.29,.79-.86,.79l-3.64-.02v3.24l6.01-.02c.54,0,.81,.41,.81,.83s-.25,.81-.81,.81h-14.01Z"/><path d="M852.29,122.3c-1.17,1.01-1.53,1.19-1.85,1.19-.5,0-.86-.45-.86-.9,0-.27,.13-.54,.43-.72,1.55-.9,3.1-2.49,4.2-4.32,.18-.29,.41-.41,.67-.41,.47,0,.96,.43,.96,.92,0,.16-.04,.58-1.8,2.56l-.22,8.23c-.02,.54-.45,.81-.9,.81-.41,0-.83-.25-.83-.77v-.04l.22-6.54Zm-1.64-3.1c-.5,0-.9-.38-.9-.81,0-.29,.18-.61,.59-.85,1.4-.81,2.58-2.03,3.46-3.49,.2-.32,.47-.45,.72-.45,.47,0,.9,.4,.9,.88,0,.16-.05,.36-.18,.54-1.13,1.64-3.53,4.18-4.59,4.18Zm10.68,5.28v3.1c.41,.05,.86,.09,1.33,.09,.85,0,1.76-.09,2.68-.14h.05c.47,0,.72,.38,.72,.77s-.25,.81-.81,.86c-.9,.11-1.71,.14-2.43,.14-3.22,0-4.72-1.01-5.49-2.86-.34,1.03-.79,1.96-1.28,2.59-.22,.27-.49,.38-.77,.38-.47,0-.94-.34-.94-.79,0-.16,.07-.34,.22-.52,1.12-1.39,1.82-3.51,1.89-5.51,.02-.5,.41-.74,.83-.74s.88,.27,.88,.79c0,.4-.18,1.31-.27,1.76,.34,1.31,.94,2.11,1.69,2.59l.02-6.21h-3.49c-.5,0-.77-.36-.77-.74s.27-.72,.77-.72l3.47,.02-.02-1.85h-2.65c-.52,0-.79-.38-.79-.76s.27-.76,.79-.76h2.65v-1.46c0-.52,.43-.79,.85-.79s.85,.27,.85,.79v1.46h2.9c.5,0,.76,.38,.76,.76s-.25,.76-.76,.76h-2.9v1.85l3.87-.02c.49,0,.72,.36,.72,.72,0,.38-.23,.74-.72,.74h-3.85v2.18h2.95c.52,0,.77,.38,.77,.76s-.25,.76-.77,.76h-2.95Z"/><path d="M868.48,128.35c-.4,0-.79-.29-.79-.7,0-.14,.04-.31,.14-.47,.49-.79,.94-2.07,1.04-3.12,.05-.43,.36-.63,.68-.63,.4,0,.79,.29,.79,.79,0,.54-.56,2.79-1.17,3.73-.18,.27-.45,.4-.7,.4Zm2.27,.36l.05-6.25c-.92,.13-2.02,.25-2.12,.25-.43,0-.67-.36-.67-.72,0-.32,.2-.65,.58-.67,.22-.02,.49-.04,.79-.05,.32-.38,.7-.83,1.06-1.33-.56-.58-1.62-1.39-2.04-1.67-.23-.16-.34-.38-.34-.59,0-.36,.31-.7,.72-.7,.11,0,.21,.04,.49,.16,.5-.79,1.13-2.12,1.39-3.08,.09-.36,.4-.5,.72-.5,.43,0,.9,.29,.9,.74,0,.27-.68,2.04-1.84,3.69,.29,.23,.58,.5,.81,.72,.58-.94,1.08-1.89,1.37-2.59,.13-.32,.4-.45,.67-.45,.43,0,.9,.32,.9,.79,0,.59-1.76,3.22-2.86,4.65,.58-.05,1.13-.13,1.57-.18-.07-.13-.16-.23-.23-.34-.11-.14-.14-.27-.14-.4,0-.31,.31-.52,.65-.52,.85,0,1.67,1.96,1.67,2.39,0,.49-.4,.81-.76,.81s-.58-.32-.67-.81c-.27,.05-.65,.11-1.06,.18l.04,6.48c0,.54-.43,.83-.85,.83s-.79-.27-.79-.81v-.02Zm3.15-2.12c-.32,0-.63-.2-.67-.63-.05-.67-.25-1.35-.54-1.93-.05-.11-.07-.2-.07-.29,0-.32,.32-.54,.65-.54,1.04,0,1.44,2.43,1.44,2.61,0,.49-.41,.77-.81,.77Zm-.11,1.35c0-.14,.07-.32,.22-.5,.58-.67,.9-1.53,1.08-2.25,.09-.4,.38-.56,.68-.56,.4,0,.79,.29,.79,.72,0,.54-.81,3.28-1.98,3.28-.41,0-.79-.29-.79-.68Zm.41-9c0-.22,.11-.45,.38-.65,.74-.52,1.33-1.22,1.71-1.94,.16-.32,.43-.45,.7-.45,.41,0,.83,.31,.83,.72,0,.63-1.84,3.04-2.84,3.04-.45,0-.77-.34-.77-.72Zm7.2,2.52c-2.02,.52-4.88,.88-5.69,.88-.5,0-.74-.36-.74-.74s.23-.74,.72-.74c.34,0,.7-.04,1.08-.05,.34-.79,.81-2.14,.99-2.94,.09-.36,.4-.52,.7-.52,.43,0,.9,.29,.9,.7,0,.13-.31,1.21-1.04,2.63,.83-.09,1.64-.2,2.32-.32-.2-.25-.4-.49-.58-.65-.16-.16-.23-.32-.23-.47,0-.34,.36-.61,.76-.61,.77,0,2.52,2.14,2.52,2.88,0,.5-.4,.88-.81,.88-.25,0-.52-.14-.68-.5l-.22-.43Zm-2.92,3.28c-.02,.54-.05,1.3-.05,1.93,0,.95,.07,1.15,.97,1.15s1.13-.25,1.13-.77,.36-.74,.72-.74c.16,0,.9,.05,.9,.92,0,1.95-1.51,2.09-3.1,2.09-1.19,0-2.21-.18-2.21-1.87,0-.65,.02-1.91,.04-2.7,.02-.47,.4-.68,.77-.68,.41,0,.83,.25,.83,.67v.02Zm-.68-9.15h-.04c-.49,0-.74-.34-.74-.68s.25-.68,.74-.68l1.8-.04h.09c.58,0,1.15,.18,1.44,.74,.61,1.15,1.37,1.98,2.63,2.68,.31,.18,.43,.41,.43,.67,0,.43-.4,.86-.9,.86-.7,0-2.41-1.42-3.44-3.4-.07-.13-.16-.18-.45-.18l-1.57,.04Zm1.89,9.17c-.47-.63-1.3-1.03-1.64-1.19-.25-.13-.36-.32-.36-.52,0-.36,.38-.76,.83-.76,.23,0,2.5,.83,2.5,1.85,0,.47-.41,.9-.83,.9-.18,0-.36-.09-.5-.29Zm3.22,2.59c-.4-.68-.94-1.22-1.48-1.6-.23-.16-.34-.38-.34-.56,0-.38,.38-.72,.83-.72,.76,0,2.58,1.58,2.58,2.43,0,.5-.41,.92-.86,.92-.25,0-.52-.14-.72-.47Z"/><path d="M894.49,115.96c-.2-.22-.34-.32-.47-.32s-.25,.11-.43,.32c-1.48,1.87-3.85,4.14-5.78,5.4-.27,.18-.52,.25-.76,.25-.58,0-.99-.47-.99-.95,0-.31,.18-.63,.58-.85,2.09-1.08,4.32-3.28,5.69-5.06,.43-.56,.99-.86,1.57-.86s1.15,.27,1.69,.86c1.76,1.89,3.69,3.4,5.83,4.5,.34,.18,.49,.47,.49,.77,0,.52-.45,1.06-1.06,1.06-.97,0-4.36-2.9-6.36-5.13Zm-.92,7.76c-.32,1.03-.77,2.36-1.31,3.51,1.66-.13,3.29-.32,4.86-.56-.41-.38-.86-.74-1.31-1.04-.27-.18-.38-.4-.38-.61,0-.38,.38-.74,.85-.74,1.06,0,4.3,3.01,4.3,4.07,0,.54-.5,.97-1.01,.97-.29,0-.56-.14-.74-.49-.18-.32-.38-.63-.59-.92-4.21,.88-9.33,1.22-9.69,1.22-.54,0-.83-.47-.83-.9,0-.4,.23-.79,.74-.81,.63-.02,1.28-.04,1.93-.07,.5-1.04,.97-2.43,1.28-3.62l-3.4,.02c-.58,0-.85-.38-.85-.77s.29-.85,.85-.85h11.43c.58,0,.86,.41,.86,.83s-.29,.79-.86,.79l-6.12-.04Zm-2.05-3.31c-.56,0-.85-.4-.85-.81s.29-.81,.85-.81h5.17c.56,0,.85,.41,.85,.81s-.29,.81-.85,.81h-5.17Z"/><path d="M916.88,121.71c0-2-1.57-3.71-4.18-3.71h-.04c.29,.13,.5,.4,.5,.76v.09c0,1.89-1.85,5.17-3.83,7.11-.45,.43-.92,.61-1.35,.61-1.28,0-2.43-1.44-2.43-3.4,0-3.26,3.21-6.57,7.26-6.57,3.64,0,5.91,2.41,5.91,5.22,0,.67-.13,1.35-.4,2.04-1.58,4-6.48,4.55-6.73,4.55-.63,0-1.03-.43-1.03-.88,0-.4,.31-.77,.99-.9,3.28-.54,5.33-2.56,5.33-4.92Zm-5.2-3.62c-2.25,.45-4.5,2.84-4.5,4.99,0,1.35,.9,1.51,.95,1.51,.11,0,.23-.04,.34-.14,.54-.49,2.79-3.15,2.86-5.58,0-.36,.14-.63,.34-.77Z"/><path d="M924.46,121.56c0,2.02-.02,4.74-.07,7.31,0,.52-.45,.79-.88,.79s-.85-.27-.85-.76v-.04c.13-3.33,.09-9.29,.13-13.09,0-1.66,1.1-1.71,3.1-1.71,.72,0,1.46,0,1.8,.02,.92,.04,1.62,.59,1.66,1.39,.02,.61,.04,1.24,.04,1.85,0,2.21-.02,2.63-3.66,2.63-.49,0-.94-.02-1.26-.04v1.64Zm3.31-5.11c0-.2-.02-.38-.02-.54-.04-.52-.23-.54-1.62-.54-1.49,0-1.62,.04-1.66,.68,0,.13-.02,.25-.02,.4h3.31Zm-3.31,1.15v1.06c.27,.02,.81,.02,1.37,.02,1.78,0,1.91-.07,1.93-.56,0-.16,.02-.34,.02-.52h-3.31Zm7.87,7.44v2.94c0,.5-.4,.76-.79,.76s-.79-.25-.79-.76v-2.94h-1.6c-.2,1.93-.92,3.26-2.95,3.87-.13,.04-.23,.05-.34,.05-.5,0-.76-.38-.76-.74,0-.31,.18-.59,.52-.67,1.42-.31,1.85-1.3,1.98-2.52h-1.4c-.54,0-.79-.32-.79-.67s.29-.7,.79-.7h1.46v-.29c0-.47-.02-.92-.04-1.33h-1.1c-.54,0-.79-.32-.79-.67s.29-.7,.79-.7h6.73c.5,0,.74,.34,.74,.68s-.23,.68-.74,.68h-.92v1.62h1.44c.5,0,.74,.34,.74,.68s-.23,.68-.74,.68h-1.44Zm-1.58-2.99h-1.55v1.62h1.55v-1.62Zm3.57-2.09c-2.27,0-3.69-.02-3.75-1.53-.02-.34-.02-.72-.02-1.1,0-.61,.02-1.24,.04-1.85,.04-.79,.7-1.35,1.62-1.39,.34-.02,1.12-.02,1.85-.02,.54,0,1.04,0,1.35,.02,1.35,.07,1.89,.76,1.89,1.55v1.33c0,2.7,.04,5.65,.04,7.96,0,.86,.02,1.62,.02,2.25,0,1.3-.63,2.43-2.67,2.43-1.22,0-1.94-.16-1.94-.99,0-.4,.27-.79,.74-.79,.05,0,.09,.02,.14,.02,.36,.05,.69,.11,.97,.11,.59,0,1.01-.22,1.03-1.1,.02-.72,.04-1.55,.04-2.4,0-1.3-.02-2.66-.02-3.8v-.74c-.32,.02-.81,.04-1.33,.04Zm1.3-3.51c0-1.06-.07-1.08-1.71-1.08-1.49,0-1.69,.02-1.73,.56,0,.16-.02,.34-.02,.52h3.46Zm.04,1.15h-3.49c0,.18,.02,.36,.02,.52,.02,.56,.42,.56,2.02,.56,.59,0,1.21,0,1.46-.02v-1.06Z"/><path d="M942.13,128.84l.18-8.5c-.99,1.26-1.44,1.69-1.96,1.69-.45,0-.81-.36-.81-.79,0-.2,.09-.43,.29-.63,1.67-1.66,3.08-3.8,4-6.27,.14-.4,.45-.56,.77-.56,.49,0,.99,.38,.99,.88,0,.32-.85,1.96-1.55,3.15l-.18,11.02c-.02,.54-.45,.81-.88,.81s-.85-.25-.85-.79v-.02Zm13.02-1.1c.4,0,.59,.32,.59,.65,0,.34-.2,.68-.61,.7-1.04,.02-2.34,.04-3.62,.04s-2.57-.02-3.58-.04c-1.75-.04-1.75-1.15-1.75-2.2,0-.97,.02-2.18,.05-3.17-.63,.63-.79,.67-1.06,.67-.45,0-.81-.36-.81-.76,0-.22,.09-.43,.32-.61,1.12-.88,1.91-2,2.65-3.51,.16-.34,.45-.47,.74-.47,.43,0,.88,.32,.88,.76,0,.14-.04,.29-.56,1.12,.56,0,1.21-.02,1.86-.02,.2-.38,.36-.76,.63-1.42,.11-.29,.38-.4,.65-.4,.43,0,.88,.27,.88,.67,0,.18-.27,.7-.54,1.15,1.04,0,2.07,0,2.99,.02,.41,0,.63,.32,.63,.65,0,.31-.22,.63-.67,.63h-3.04v1.01h2.47c.45,0,.67,.29,.67,.58s-.22,.58-.67,.58h-2.47v1.06h2.47c.45,0,.67,.29,.67,.58s-.22,.58-.67,.58h-2.47v1.19c1.15,0,2.34,0,3.35-.02h.02Zm-1.71-12.33c0-.45,.41-.67,.83-.67s.85,.22,.86,.68c.02,.23,.02,.45,.02,.67,0,1.42,0,2.61-1.98,2.68-.65,.02-1.69,.04-2.74,.04-4.3,0-4.57,0-4.57-2.5,0-.31,.02-.63,.02-.9,.02-.43,.45-.65,.86-.65s.77,.2,.77,.63v1.49c.04,.59,.18,.61,2.09,.61v-3.04c0-.5,.41-.74,.85-.74s.86,.25,.86,.77v3.01c.63,0,1.17-.02,1.5-.04,.56-.04,.63-.13,.63-1.57v-.49Zm-3.24,8.95h-2.43c0,.34-.02,.7-.02,1.06h2.45v-1.06Zm0,2.2h-2.45v.56c0,.36,.16,.61,.67,.63,.5,.02,1.12,.02,1.78,.02v-1.21Zm0-4.36h-1.87c-.27,0-.5,.14-.52,.58,0,.13-.02,.27-.02,.43h2.41v-1.01Z"/></g><g><path class="e" d="M876.92,44.6c2.66,0,4.82-2.16,4.82-4.82s-2.16-4.82-4.82-4.82-4.82,2.16-4.82,4.82,2.16,4.82,4.82,4.82Z"/><path class="e" d="M890.43,35.29h31.38v25.54h-31.38v-2.13c-.41,0-.82-.04-1.22-.12l-.13-.02-1.32-.37v5.32h36.74v-30.9h-36.74v12.83l2.68,.94v-11.09Z"/><path class="e" d="M891.24,75.1c0,2.66,2.16,4.82,4.82,4.82s4.82-2.16,4.82-4.82-2.16-4.82-4.82-4.82-4.82,2.16-4.82,4.82Z"/><path class="e" d="M896.06,82.33c-4.52,0-8.53,1.51-9.54,6.52l.08,3.32h18.91l.08-3.32c-1-5.01-5.02-6.52-9.53-6.52Z"/><path class="e" d="M911.35,75.1c0,2.66,2.16,4.82,4.82,4.82s4.82-2.16,4.82-4.82-2.16-4.82-4.82-4.82-4.82,2.16-4.82,4.82Z"/><path class="e" d="M916.17,82.33c-4.52,0-8.53,1.51-9.54,6.52l.08,3.32h18.91l.08-3.32c-1-5.01-5.02-6.52-9.54-6.52Z"/><path class="e" d="M892.73,55.18l7.78-3.72c1.05-.44,1.54-1.65,1.1-2.7-.44-1.05-1.65-1.54-2.7-1.1l-6.99,2.39-6.33-2.21c-.92-.32-1.88-.53-2.85-.63l-4.26,6.57v-3.52h-2.6v3.54l-4.78-5.76c-2.57,1.06-4.51,3.07-5.21,6.54l-3.54,14.78c-.25,1.11,.45,2.21,1.56,2.46,1.11,.25,2.21-.45,2.46-1.56l3.72-9.85,.96,29.3c0,1.35,1.09,2.44,2.44,2.44s2.45-1.09,2.45-2.44l.97-17.47,.97,17.47c0,1.35,1.1,2.44,2.45,2.44s2.45-1.09,2.45-2.44l1.38-35.61,5.58,1.55c1.02,.19,2.08,.02,2.99-.48Z"/><rect class="e" x="875.87" y="47.3" width="2.6" height="1.82"/></g></g></g></svg>