<svg xmlns="http://www.w3.org/2000/svg" viewBox="0 0 984 180"><defs><style>.cls-1{fill:#fff;}.cls-2{fill:#4b4b4b;}.cls-3{font-size:18px;font-family:TsukuBRdGothicStd-B-90ms-RKSJ-H, FOT-TsukuBRdGothic Std;}</style></defs><g id="レイヤー_2" data-name="レイヤー 2"><g id="レイヤー_1-2" data-name="レイヤー 1"><circle class="cls-1" cx="90" cy="90" r="90"/><path class="cls-2" d="M101.26,54.69A18.74,18.74,0,1,0,120,73.43,18.74,18.74,0,0,0,101.26,54.69Zm7.45,17.2h-5.13l-.55.86v2h5.68v2.91H103v4.4H99.5v-4.4H93.81V74.81H99.5v-2l-.56-.86H93.81V69.4h3.53l-3-4.67h3l3.92,6.11,3.93-6.11h3l-3,4.67h3.53Z"/><path class="cls-2" d="M90.44,39.09c0,3.58-6.82,6.48-15.22,6.48S60,42.67,60,39.09s6.81-6.48,15.22-6.48S90.44,35.51,90.44,39.09Z"/><path class="cls-2" d="M60,50.06c0,3.58,6.81,6.48,15.22,6.48s15.22-2.9,15.22-6.48V48.45a1.47,1.47,0,0,0-.67-1.23,1.49,1.49,0,0,0-1.39-.13S83.62,50,75.22,50s-13.17-2.95-13.17-2.95a1.48,1.48,0,0,0-2,1.36Z"/><path class="cls-2" d="M80.14,61a23.59,23.59,0,0,0-2.73,6.78c-.72,0-1.45.07-2.2.07C66.82,67.87,60,65,60,61.39V59.78a1.5,1.5,0,0,1,.66-1.23,1.46,1.46,0,0,1,1.39-.12s4.77,2.94,13.16,2.94A34.71,34.71,0,0,0,80.14,61Z"/><path class="cls-2" d="M77.43,79.13c-.72.05-1.47.07-2.22.07C66.82,79.2,60,76.3,60,72.73V71.12a1.48,1.48,0,0,1,2-1.37s4.77,3,13.16,3c.54,0,1.05,0,1.56,0,0,.25,0,.5,0,.76A23.85,23.85,0,0,0,77.43,79.13Z"/><path class="cls-2" d="M82.89,89.64a31.64,31.64,0,0,1-7.68.89c-8.39,0-15.21-2.9-15.21-6.47V82.44a1.48,1.48,0,0,1,2-1.36s4.77,3,13.16,3a32.77,32.77,0,0,0,3.85-.22A24.5,24.5,0,0,0,82.89,89.64Z"/><text class="cls-3" transform="translate(45 128.35)">予算の管理</text><circle class="cls-1" cx="291" cy="90" r="90"/><text class="cls-3" transform="translate(228 128.35)">けやき祭の企画</text><path class="cls-2" d="M299.69,50.12c-.65-.29-2.85-1.95-4.54-3.18,1.67-.73,3.34-1.9,3.38-2.39.06-.8-2.22-2-2.84-2.28s-2.43.43-3.21.39c-1.17-.07-.07,1.91.55,1.91s2-.46,2.17-.15.11.94-.81,2l-.74-.53a10.48,10.48,0,0,1-2.41-2.46l-.24-.62c-.25-.62-4.26.06-4.26.06a1,1,0,0,0-.55-.8c-.56-.31-2.47-.43-2.34.43s-2.51,5.44-2.84,5.86.06.55.93.12a5.5,5.5,0,0,0,1.05-.86c.15.41.34.91.55,1.35a10,10,0,0,0,.45,1.11,23,23,0,0,1-3.1,2.28c-.68.37-.25.68,2.22.5a5.1,5.1,0,0,0,2.42-1.17c.09.27.36.42.78.31,1.42-.37,7.34-1,8.14-1.36a.4.4,0,0,0,.24-.42c2,1.67,3.3,3.27,4.17,3.07C302.93,52.33,303.12,51.59,299.69,50.12Zm-14.4-1.29a8.8,8.8,0,0,0-1.58-2c.22-.23.43-.47.63-.69a4.24,4.24,0,0,0,1.57,2C285.71,48.39,285.5,48.62,285.29,48.83Zm1.85-2.37a18.49,18.49,0,0,0-2.2-1c.23-.27.39-.48.45-.56.24-.37,2.34-.19,2.28.31A5.79,5.79,0,0,1,287.14,46.46Zm5.58,2.11c-1.15.07-4.65.93-5,1a13.2,13.2,0,0,0,2.52-3.76,13.1,13.1,0,0,0,2.55,2.77Z"/><path class="cls-2" d="M292,54.32c1.51-.28,2.75-.51,3.09-.51.86,0,1.79.19,2-.24s-.18-2.22-2.71-2.16a74.06,74.06,0,0,0-8.94,1.48c-1.66.43-2.65,0-2.53.62a2,2,0,0,0,2.41,1.91l.48-.05c-.27.2-.64.46-1.16.79-1.73,1.11-2.59,1-3,2.4-.25.93.74,2.4,3,1.23s2.41-4.31,2.41-4.31a1.07,1.07,0,0,0,0-.29c.51-.08,1.07-.17,1.65-.28,0,.43,0,.91,0,1.12a17.65,17.65,0,0,1,.06,3c-.18-.06-2-.8-2-.8s-.56.13-.19.62S288.35,60,289,60.59s2.35.93,2.9-.06.12-3.14,0-4.06A7.64,7.64,0,0,1,292,54.32Z"/><path class="cls-2" d="M294.63,54.18c-.55-.06-1.23.19-.8.93.56,1,1.85,3,1.67,3.51s-.67.6-.42.73,1.47,1.37,2.94.51,2-1.73.25-3.58A5.64,5.64,0,0,0,294.63,54.18Z"/><path class="cls-2" d="M315.21,50.82a22.26,22.26,0,0,0-1.65-6.68,17.1,17.1,0,0,0-2.88-4.55,18.68,18.68,0,0,0-7.6-5.08A34.23,34.23,0,0,0,291,32.61a35.62,35.62,0,0,0-11,1.52A20.87,20.87,0,0,0,274.18,37a16.92,16.92,0,0,0-5.37,6.33,21.59,21.59,0,0,0-2,7.48c-.05.57-.08,1.14-.08,1.71a22.57,22.57,0,0,0,3,10.78A24.19,24.19,0,0,0,276.3,71l.36.27h.93l.06-.05a28.09,28.09,0,0,0,8.12,3.34,28.52,28.52,0,0,0,2.88.52V89.82a2.35,2.35,0,0,0,4.7,0V75.1c.95-.12,1.92-.3,2.88-.52a28.09,28.09,0,0,0,8.12-3.34l.06.05h.93l.36-.27a24.19,24.19,0,0,0,6.63-7.71,22.57,22.57,0,0,0,3-10.78C315.29,52,315.26,51.39,315.21,50.82Zm-38.3,20,.07,0C276.93,70.83,276.9,70.81,276.91,70.8Zm1.75-1.1A25.79,25.79,0,0,1,281,68.52l4.86,4.18A26.11,26.11,0,0,1,278.66,69.7ZM283,67.76a24.6,24.6,0,0,1,2.58-.73l2.93,5.48Zm7.11,3.8-2.62-4.87a22.57,22.57,0,0,1,2.62-.24Zm1.84,0V66.45a22.57,22.57,0,0,1,2.62.24ZM296.45,67a24.6,24.6,0,0,1,2.58.73l-5.52,4.75Zm-.33,5.67L301,68.52a24.73,24.73,0,0,1,2.36,1.18A26,26,0,0,1,296.12,72.7Zm8.9-1.86.07,0S305.07,70.83,305,70.84Zm4.9-8.86a22.32,22.32,0,0,1-5.1,6.24,25.39,25.39,0,0,0-27.64,0,22.32,22.32,0,0,1-5.1-6.24,19.79,19.79,0,0,1-2.61-9.45,14.08,14.08,0,0,1,.07-1.45A19,19,0,0,1,271,45.24a14.6,14.6,0,0,1,2.41-3.83,16,16,0,0,1,6.5-4.32A31.61,31.61,0,0,1,291,35.37a33.11,33.11,0,0,1,10.13,1.38,18.09,18.09,0,0,1,5.08,2.49,14.35,14.35,0,0,1,4.51,5.32,18.59,18.59,0,0,1,1.74,6.52,14.08,14.08,0,0,1,.07,1.45A19.79,19.79,0,0,1,309.92,62Z"/><circle class="cls-1" cx="492" cy="90" r="90"/><text class="cls-3" transform="translate(429 128.35)">委員会との連携</text><path class="cls-2" d="M462.59,69a6.69,6.69,0,1,0-6.69-6.69A6.69,6.69,0,0,0,462.59,69Z"/><path class="cls-2" d="M462.58,71.27a6.54,6.54,0,0,0-6.53,6.53v8.12h7.74l5-10.2A6.49,6.49,0,0,0,462.58,71.27Z"/><path class="cls-2" d="M473.53,56.2a6,6,0,1,0-6-6A6,6,0,0,0,473.53,56.2Z"/><path class="cls-2" d="M467.67,70.08v1.29h3.24l5.94-12.1a5.73,5.73,0,0,0-3.32-1,5.92,5.92,0,0,0-2.35.49,9.42,9.42,0,0,1,.71,3.56A9.28,9.28,0,0,1,467.67,70.08Z"/><path class="cls-2" d="M491.29,44.6a6,6,0,1,0-6-6A6,6,0,0,0,491.29,44.6Z"/><path class="cls-2" d="M491.29,46.63a5.87,5.87,0,0,0-5.86,5.87V55h11.73V52.5A5.87,5.87,0,0,0,491.29,46.63Z"/><path class="cls-2" d="M521.41,69a6.69,6.69,0,1,0-6.69-6.69A6.7,6.7,0,0,0,521.41,69Z"/><path class="cls-2" d="M521.42,71.27a6.49,6.49,0,0,0-6.2,4.45l5,10.2H528V77.8A6.54,6.54,0,0,0,521.42,71.27Z"/><path class="cls-2" d="M510.47,56.2a6,6,0,1,0-6-6A6,6,0,0,0,510.47,56.2Z"/><path class="cls-2" d="M510.47,58.24a5.73,5.73,0,0,0-3.32,1l5.94,12.1h3.24V70.08a9.28,9.28,0,0,1-4.22-7.79,9.42,9.42,0,0,1,.71-3.56A5.92,5.92,0,0,0,510.47,58.24Z"/><path class="cls-2" d="M480.74,57.29,465.27,88.86v3.3h53.46v-3.3L503.26,57.29Zm3.48,25.23h-8.58l2.5-5.82h7.08ZM487,70.21h-6.75l2-4.58h5.57Zm21.16,12.31h-8.57l-1-5.82h7.08ZM496.81,70.21,496,65.63h5.57l2,4.58Z"/><circle class="cls-1" cx="693" cy="90" r="90"/><text class="cls-3" transform="translate(621 128.35)">外郭団体との連携</text><path class="cls-2" d="M705.73,47.31a38.47,38.47,0,0,0-12.22.55l-.86-.57A17.51,17.51,0,0,0,690.07,46a7.73,7.73,0,0,0-2.51-.6h0c-1.29-.1-2.54-.15-3.69-.15a26.93,26.93,0,0,0-4.35.29h0a3.84,3.84,0,0,1-.5,0,7.83,7.83,0,0,1-3.49-1.1,1.84,1.84,0,0,0-2.35.54L660,63.16a1.85,1.85,0,0,0,0,2.1,6.66,6.66,0,0,1,.8,1.54,9.61,9.61,0,0,0,1.09,2,20.48,20.48,0,0,0,1.49,1.88l.2.2L666,73a3.37,3.37,0,0,0-.62,2,3.49,3.49,0,0,0,5.35,3,3.49,3.49,0,0,0,2.91,5.42,3.41,3.41,0,0,0,2.05-.68,3.51,3.51,0,0,0,.22,4.62,3.45,3.45,0,0,0,2.5,1h0a3.47,3.47,0,0,0,2.45-1l.65-.64a3.48,3.48,0,0,0,3.06,5.16,3.43,3.43,0,0,0,2.45-1l.4-.39.52.4.32.24.14.1.19.12a7.33,7.33,0,0,0,2,.7l.7.13.22,0h.4a6.19,6.19,0,0,0,3.36-1.25,5.48,5.48,0,0,0,1-1,6,6,0,0,0,7.58-3.71,1.45,1.45,0,0,0,.29,0,5.69,5.69,0,0,0,1,.11,6.1,6.1,0,0,0,5.7-4h0l.21,0a6.11,6.11,0,0,0,6.11-6.12,9.29,9.29,0,0,0-.48-3c2.32-2.05,5.72-5.22,6.33-6.94a25.83,25.83,0,0,1,2.44-3.48L712.43,44.65C710.76,45.6,707.52,47.6,705.73,47.31Zm7.82,28.86a2.45,2.45,0,0,1-2.44,2.45,2.43,2.43,0,0,1-.94-.19.32.32,0,0,0-.09,0l-2.27-2.76a1.59,1.59,0,0,0-2.24-.16,1.58,1.58,0,0,0-.16,2.24l2.19,2.68a2.45,2.45,0,0,1-2.42,2.17,2.5,2.5,0,0,1-1.55-.57l-2.18-2.66A1.59,1.59,0,0,0,699,81.42l1.52,1.89a1.37,1.37,0,0,0,0,.35,2.1,2.1,0,0,1,0,.41,2.45,2.45,0,0,1-2.44,2.45,2.27,2.27,0,0,1-1-.22l-2.65-2.78a1.59,1.59,0,1,0-2.18,2.31l1.24,1.46a1.85,1.85,0,0,1-.54.71,2.52,2.52,0,0,1-1.28.47,5.08,5.08,0,0,1-.58-.11,4.41,4.41,0,0,1-.78-.26l-.4-.31-.4-.31a3.49,3.49,0,0,0-3.4-4.31,3.42,3.42,0,0,0-1.51.36h0l0,0a3.5,3.5,0,0,0-2.45-6,3.43,3.43,0,0,0-2,.67,3.54,3.54,0,0,0,.76-2.12,3.5,3.5,0,0,0-6-2.54l-.59.59A3.48,3.48,0,0,0,669,69.92l-.39.39-.79-.65c-.91-.74-1.53-1.26-1.78-1.47a16,16,0,0,1-1.12-1.41,5.41,5.41,0,0,1-.66-1.22,11.25,11.25,0,0,0-.54-1.22l11.59-16a9.9,9.9,0,0,0,3.76.84,6.87,6.87,0,0,0,1.1-.08h0a23.66,23.66,0,0,1,3.74-.24c1,0,2.21,0,3.39.14h.08a4.1,4.1,0,0,1,1.37.35l.13.06c-5,2.23-12,6.54-14.28,7.3-2.63.88-2.85,4.4,3.07,5s11.2-3.07,12.52-3.73c.94-.47,6.94.11,10.27.47,1.47,1.45,2.75,2.79,3.69,3.81l7.3,8.93,0,0A9.39,9.39,0,0,1,713.18,74,5.87,5.87,0,0,1,713.55,76.17Z"/><path class="cls-2" d="M740.18,57.5,722.53,33.16a1.32,1.32,0,0,0-1.84-.3l-7.82,5.67a1.31,1.31,0,0,0-.29,1.84l17.65,24.35a1.31,1.31,0,0,0,1.84.29l7.82-5.67A1.31,1.31,0,0,0,740.18,57.5Zm-6,2.19a2.2,2.2,0,1,1,.48-3.07A2.2,2.2,0,0,1,734.18,59.69Z"/><path class="cls-2" d="M673.13,38.53l-7.82-5.67a1.32,1.32,0,0,0-1.84.3L645.82,57.5a1.31,1.31,0,0,0,.29,1.84L653.93,65a1.31,1.31,0,0,0,1.84-.29l17.65-24.35A1.31,1.31,0,0,0,673.13,38.53Zm-5.23,2.72a2.19,2.19,0,1,1-.49-3.06A2.19,2.19,0,0,1,667.9,41.25Z"/><circle class="cls-1" cx="894" cy="90" r="90"/><text class="cls-3" transform="translate(831 128.35)">生徒総会の開催</text><path class="cls-2" d="M876.92,44.6a4.82,4.82,0,1,0-4.82-4.81A4.81,4.81,0,0,0,876.92,44.6Z"/><path class="cls-2" d="M890.43,35.29h31.38V60.83H890.43V58.7a8.26,8.26,0,0,1-1.22-.11l-.14,0-1.32-.37v5.32h36.74V32.61H887.75V45.45l2.68.93Z"/><path class="cls-2" d="M891.24,75.1a4.82,4.82,0,1,0,4.82-4.81A4.82,4.82,0,0,0,891.24,75.1Z"/><path class="cls-2" d="M896.06,82.33c-4.52,0-8.53,1.51-9.53,6.52l.08,3.31h18.91l.08-3.31C904.59,83.84,900.58,82.33,896.06,82.33Z"/><path class="cls-2" d="M911.35,75.1a4.82,4.82,0,1,0,4.82-4.81A4.81,4.81,0,0,0,911.35,75.1Z"/><path class="cls-2" d="M916.17,82.33c-4.52,0-8.54,1.51-9.54,6.52l.08,3.31h18.91l.08-3.31C924.7,83.84,920.69,82.33,916.17,82.33Z"/><path class="cls-2" d="M892.73,55.18l7.78-3.72a2.06,2.06,0,1,0-1.61-3.8l-7,2.39-6.32-2.21a12.22,12.22,0,0,0-2.85-.63l-4.27,6.58V50.27h-2.6v3.54l-4.77-5.76a8.37,8.37,0,0,0-5.21,6.54l-3.54,14.78a2.06,2.06,0,0,0,4,.9l3.73-9.85,1,29.3a2.45,2.45,0,0,0,4.89,0l1-17.47,1,17.47a2.45,2.45,0,0,0,4.89,0l1.38-35.6,5.58,1.54A4.51,4.51,0,0,0,892.73,55.18Z"/><rect class="cls-2" x="875.87" y="47.3" width="2.6" height="1.82"/></g></g></svg>